<svg width="144" height="22" viewBox="0 0 144 22" fill="none" xmlns="http://www.w3.org/2000/svg">
<g opacity="0.6">
<path opacity="0.2" d="M8.36672 0.102035C7.3135 0.109087 6.40012 0.713641 5.82287 1.53445C5.24562 2.35527 4.94361 3.41243 4.95125 4.55414C4.9589 5.69584 5.27504 6.74985 5.86323 7.56286C6.45142 8.37587 7.3728 8.96716 8.42602 8.96011C9.47925 8.95306 10.3926 8.3485 10.9699 7.52769C11.5471 6.70688 11.8491 5.64971 11.8415 4.50801C11.8338 3.3663 11.5177 2.31229 10.9295 1.49928C10.3413 0.68627 9.41994 0.094984 8.36672 0.102035ZM11.8415 4.50801C11.8491 5.64971 12.1653 6.70372 12.7535 7.51673C13.3417 8.32974 14.264 8.92102 15.3163 8.91398C16.3695 8.90693 17.2829 8.30237 17.8601 7.48156C18.4374 6.66075 18.7394 5.60358 18.7317 4.46188C18.7241 3.32017 18.4079 2.26616 17.8198 1.45315C17.2316 0.64014 16.3102 0.0488538 15.257 0.0559051C14.2037 0.0629565 13.2904 0.667511 12.7131 1.48832C12.1359 2.30914 11.8338 3.3663 11.8415 4.50801ZM8.3799 2.0705C8.687 2.06844 9.02664 2.21971 9.3386 2.64874C9.64662 3.0768 9.86776 3.76038 9.87285 4.52119C9.87794 5.282 9.66599 5.96946 9.36372 6.40062C9.05753 6.83378 8.71995 6.98959 8.41284 6.99165C8.10574 6.9937 7.7661 6.84243 7.45414 6.41341C7.14612 5.98534 6.92498 5.30177 6.91989 4.54096C6.9148 3.78015 7.12675 3.09269 7.42902 2.66152C7.73521 2.22836 8.07279 2.07255 8.3799 2.0705ZM15.2701 2.02437C15.5772 2.02231 15.9169 2.17358 16.2288 2.60261C16.5369 3.03067 16.758 3.71425 16.7631 4.47506C16.7682 5.23587 16.5562 5.92332 16.254 6.35449C15.9478 6.78765 15.6102 6.94346 15.3031 6.94552C14.996 6.94757 14.6563 6.7963 14.3444 6.36728C14.0364 5.93921 13.8152 5.25564 13.8101 4.49483C13.805 3.73402 14.017 3.04656 14.3193 2.61539C14.6255 2.18223 14.963 2.02642 15.2701 2.02437ZM3.49125 7.0246C2.43802 7.03165 1.52464 7.6362 0.947395 8.45701C0.370147 9.27783 0.0681347 10.335 0.0757784 11.4767C0.0834221 12.6184 0.399569 13.6724 0.987756 14.4854C1.57594 15.2984 2.49733 15.8897 3.55055 15.8827C4.60377 15.8756 5.51715 15.2711 6.0944 14.4503C6.67165 13.6294 6.97366 12.5723 6.96602 11.4306C6.95837 10.2889 6.64223 9.23485 6.05404 8.42184C5.46585 7.60883 4.54447 7.01755 3.49125 7.0246ZM20.2247 6.91257C19.1715 6.91962 18.2581 7.52417 17.6808 8.34498C17.1036 9.1658 16.8016 10.223 16.8092 11.3647C16.8169 12.5064 17.133 13.5604 17.7212 14.3734C18.3094 15.1864 19.2308 15.7777 20.284 15.7706C21.3372 15.7636 22.2506 15.159 22.8278 14.3382C23.4051 13.5174 23.7071 12.4602 23.6995 11.3185C23.6918 10.1768 23.3757 9.12282 22.7875 8.30981C22.1993 7.4968 21.2779 6.90552 20.2247 6.91257ZM3.50442 8.99306C3.81153 8.991 4.15117 9.14227 4.46313 9.5713C4.77115 9.99936 4.99228 10.6829 4.99738 11.4437C5.00247 12.2046 4.79051 12.892 4.48825 13.3232C4.18206 13.7563 3.84448 13.9122 3.53737 13.9142C3.23026 13.9163 2.89063 13.765 2.57867 13.336C2.27066 12.9089 2.04951 12.2243 2.04442 11.4635C2.03932 10.7027 2.25128 10.0153 2.55355 9.58408C2.85974 9.15092 3.19732 8.99511 3.50442 8.99306ZM20.2379 8.88103C20.545 8.87897 20.8846 9.03024 21.1966 9.45927C21.5046 9.88733 21.7257 10.5709 21.7308 11.3317C21.7359 12.0925 21.5239 12.78 21.2217 13.2112C20.9155 13.6443 20.5779 13.8001 20.2708 13.8022C19.9637 13.8042 19.6241 13.653 19.3121 13.2239C19.0041 12.7959 18.7829 12.1123 18.7779 11.3515C18.7728 10.5907 18.9847 9.90322 19.287 9.47205C19.5932 9.03889 19.9308 8.88308 20.2379 8.88103ZM11.8843 10.9055C10.5722 10.9143 9.6625 11.7718 9.21768 12.5228C8.77581 13.2738 8.50436 13.8977 8.24427 14.1593C8.0947 14.3148 7.14723 14.6784 6.16038 15.19C5.66696 15.4462 5.17017 15.7872 4.75333 16.3067C4.33353 16.8263 4.05286 17.5417 4.05821 18.3419C4.07086 20.2316 5.6365 21.7763 7.52639 21.7637C8.37881 21.758 9.2668 21.4764 10.1363 21.2245C11.0096 20.9667 11.9502 20.7478 11.9502 20.7478C11.9502 20.7478 12.8936 20.9541 13.7684 21.1982C14.6422 21.4385 15.5338 21.7081 16.3862 21.7024C18.2761 21.6897 19.821 20.1242 19.8083 18.2345C19.8031 17.453 19.5099 16.7404 19.0862 16.2413C18.6645 15.7392 18.1584 15.4305 17.6655 15.173C16.6777 14.6579 15.7073 14.251 15.5666 14.1103C15.3288 13.8786 15.0588 13.2377 14.6009 12.4887C14.1441 11.7369 13.2033 10.8967 11.8843 10.9055ZM11.8975 12.874C12.5472 12.8696 12.6201 13.0266 12.9157 13.5128C13.2142 13.998 13.4403 14.8243 14.1597 15.5351C14.9771 16.3367 16.004 16.507 16.7537 16.8996C17.1291 17.0959 17.416 17.3056 17.5886 17.5092C17.7603 17.7118 17.8373 17.8973 17.8396 18.2457C17.8452 19.0725 17.1999 19.7264 16.3731 19.732C16.0876 19.7339 15.1668 19.5235 14.3088 19.2832C13.4508 19.0458 12.7402 18.772 11.937 18.7774C11.1338 18.7828 10.427 19.066 9.57224 19.3149C8.71753 19.5667 7.79963 19.7894 7.51417 19.7913C6.68735 19.7968 6.03335 19.1516 6.02781 18.3248C6.02515 17.9282 6.10647 17.7239 6.26853 17.522C6.43059 17.3211 6.73046 17.1213 7.09538 16.9328C7.82521 16.5539 8.84398 16.3994 9.67016 15.5622C10.3868 14.832 10.5976 13.9762 10.8868 13.492C11.171 13.0078 11.239 12.8744 11.8965 12.87L11.8975 12.874Z" fill="white"/>
<path opacity="0.4" d="M48.396 0.102035C47.3428 0.109087 46.4294 0.713641 45.8522 1.53445C45.2749 2.35527 44.9729 3.41243 44.9805 4.55414C44.9882 5.69584 45.3043 6.74985 45.8925 7.56286C46.4807 8.37587 47.4021 8.96716 48.4553 8.96011C49.5085 8.95306 50.4219 8.3485 50.9992 7.52769C51.5764 6.70688 51.8784 5.64971 51.8708 4.50801C51.8631 3.3663 51.547 2.31229 50.9588 1.49928C50.3706 0.68627 49.4492 0.094984 48.396 0.102035ZM51.8708 4.50801C51.8784 5.64971 52.1946 6.70372 52.7828 7.51673C53.371 8.32974 54.2933 8.92102 55.3456 8.91398C56.3988 8.90693 57.3122 8.30237 57.8894 7.48156C58.4667 6.66075 58.7687 5.60358 58.761 4.46188C58.7534 3.32017 58.4372 2.26616 57.849 1.45315C57.2609 0.64014 56.3395 0.0488538 55.2863 0.0559051C54.233 0.0629565 53.3197 0.667511 52.7424 1.48832C52.1652 2.30914 51.8631 3.3663 51.8708 4.50801ZM48.4092 2.0705C48.7163 2.06844 49.0559 2.21971 49.3679 2.64874C49.6759 3.0768 49.8971 3.76038 49.9021 4.52119C49.9072 5.282 49.6953 5.96946 49.393 6.40062C49.0868 6.83378 48.7492 6.98959 48.4421 6.99165C48.135 6.9937 47.7954 6.84243 47.4834 6.41341C47.1754 5.98534 46.9543 5.30177 46.9492 4.54096C46.9441 3.78015 47.1561 3.09269 47.4583 2.66152C47.7645 2.22836 48.1021 2.07255 48.4092 2.0705ZM55.2994 2.02437C55.6065 2.02231 55.9462 2.17358 56.2581 2.60261C56.5662 3.03067 56.7873 3.71425 56.7924 4.47506C56.7975 5.23587 56.5855 5.92332 56.2833 6.35449C55.9771 6.78765 55.6395 6.94346 55.3324 6.94552C55.0253 6.94757 54.6856 6.7963 54.3737 6.36728C54.0657 5.93921 53.8445 5.25564 53.8394 4.49483C53.8343 3.73402 54.0463 3.04656 54.3486 2.61539C54.6547 2.18223 54.9923 2.02642 55.2994 2.02437ZM43.5205 7.0246C42.4673 7.03165 41.5539 7.6362 40.9767 8.45701C40.3994 9.27783 40.0974 10.335 40.1051 11.4767C40.1127 12.6184 40.4289 13.6724 41.0171 14.4854C41.6052 15.2984 42.5266 15.8897 43.5798 15.8827C44.6331 15.8756 45.5464 15.2711 46.1237 14.4503C46.7009 13.6294 47.003 12.5723 46.9953 11.4306C46.9877 10.2889 46.6715 9.23485 46.0833 8.42184C45.4952 7.60883 44.5738 7.01755 43.5205 7.0246ZM60.254 6.91257C59.2008 6.91962 58.2874 7.52417 57.7101 8.34498C57.1329 9.1658 56.8309 10.223 56.8385 11.3647C56.8462 12.5064 57.1623 13.5604 57.7505 14.3734C58.3387 15.1864 59.2601 15.7777 60.3133 15.7706C61.3665 15.7636 62.2799 15.159 62.8571 14.3382C63.4344 13.5174 63.7364 12.4602 63.7288 11.3185C63.7211 10.1768 63.405 9.12282 62.8168 8.30981C62.2286 7.4968 61.3072 6.90552 60.254 6.91257ZM43.5337 8.99306C43.8408 8.991 44.1805 9.14227 44.4924 9.5713C44.8004 9.99936 45.0216 10.6829 45.0267 11.4437C45.0318 12.2046 44.8198 12.892 44.5175 13.3232C44.2114 13.7563 43.8738 13.9122 43.5667 13.9142C43.2596 13.9163 42.9199 13.765 42.608 13.336C42.3 12.9089 42.0788 12.2243 42.0737 11.4635C42.0686 10.7027 42.2806 10.0153 42.5828 9.58408C42.889 9.15092 43.2266 8.99511 43.5337 8.99306ZM60.2672 8.88103C60.5743 8.87897 60.9139 9.03024 61.2259 9.45927C61.5339 9.88733 61.755 10.5709 61.7601 11.3317C61.7652 12.0925 61.5532 12.78 61.251 13.2112C60.9448 13.6443 60.6072 13.8001 60.3001 13.8022C59.993 13.8042 59.6534 13.653 59.3414 13.2239C59.0334 12.7959 58.8122 12.1123 58.8072 11.3515C58.8021 10.5907 59.014 9.90322 59.3163 9.47205C59.6225 9.03889 59.9601 8.88308 60.2672 8.88103ZM51.9136 10.9055C50.6015 10.9143 49.6918 11.7718 49.247 12.5228C48.8051 13.2738 48.5337 13.8977 48.2736 14.1593C48.124 14.3148 47.1765 14.6784 46.1897 15.19C45.6963 15.4462 45.1995 15.7872 44.7826 16.3067C44.3628 16.8263 44.0822 17.5417 44.0875 18.3419C44.1002 20.2316 45.6658 21.7763 47.5557 21.7637C48.4081 21.758 49.2961 21.4764 50.1656 21.2245C51.0389 20.9667 51.9795 20.7478 51.9795 20.7478C51.9795 20.7478 52.9229 20.9541 53.7977 21.1982C54.6714 21.4385 55.5631 21.7081 56.4155 21.7024C58.3054 21.6897 59.8502 20.1242 59.8376 18.2345C59.8324 17.453 59.5392 16.7404 59.1155 16.2413C58.6938 15.7392 58.1877 15.4305 57.6948 15.173C56.707 14.6579 55.7366 14.251 55.5959 14.1103C55.3581 13.8786 55.0881 13.2377 54.6302 12.4887C54.1734 11.7369 53.2326 10.8967 51.9136 10.9055ZM51.9268 12.874C52.5764 12.8696 52.6494 13.0266 52.945 13.5128C53.2435 13.998 53.4696 14.8243 54.189 15.5351C55.0064 16.3367 56.0333 16.507 56.783 16.8996C57.1584 17.0959 57.4453 17.3056 57.6179 17.5092C57.7896 17.7118 57.8666 17.8973 57.8689 18.2457C57.8745 19.0725 57.2292 19.7264 56.4023 19.732C56.1169 19.7339 55.1961 19.5235 54.3381 19.2832C53.4801 19.0458 52.7695 18.772 51.9663 18.7774C51.1631 18.7828 50.4563 19.066 49.6015 19.3149C48.7468 19.5667 47.8289 19.7894 47.5435 19.7913C46.7166 19.7968 46.0626 19.1516 46.0571 18.3248C46.0545 17.9282 46.1358 17.7239 46.2978 17.522C46.4599 17.3211 46.7598 17.1213 47.1247 16.9328C47.8545 16.5539 48.8733 16.3994 49.6995 15.5622C50.4161 14.832 50.6269 13.9762 50.9161 13.492C51.2002 13.0078 51.2683 12.8744 51.9258 12.87L51.9268 12.874Z" fill="white"/>
<path opacity="0.6" d="M88.4273 0.102035C87.374 0.109087 86.4607 0.713641 85.8834 1.53445C85.3062 2.35527 85.0042 3.41243 85.0118 4.55414C85.0194 5.69584 85.3356 6.74985 85.9238 7.56286C86.512 8.37587 87.4333 8.96716 88.4866 8.96011C89.5398 8.95306 90.4532 8.3485 91.0304 7.52769C91.6077 6.70688 91.9097 5.64971 91.902 4.50801C91.8944 3.3663 91.5782 2.31229 90.9901 1.49928C90.4019 0.68627 89.4805 0.094984 88.4273 0.102035ZM91.902 4.50801C91.9097 5.64971 92.2258 6.70372 92.814 7.51673C93.4022 8.32974 94.3246 8.92102 95.3768 8.91398C96.43 8.90693 97.3434 8.30237 97.9207 7.48156C98.4979 6.66075 98.7999 5.60358 98.7923 4.46188C98.7846 3.32017 98.4685 2.26616 97.8803 1.45315C97.2921 0.64014 96.3707 0.0488538 95.3175 0.0559051C94.2643 0.0629565 93.3509 0.667511 92.7737 1.48832C92.1964 2.30914 91.8944 3.3663 91.902 4.50801ZM88.4404 2.0705C88.7476 2.06844 89.0872 2.21971 89.3991 2.64874C89.7072 3.0768 89.9283 3.76038 89.9334 4.52119C89.9385 5.282 89.7265 5.96946 89.4243 6.40062C89.1181 6.83378 88.7805 6.98959 88.4734 6.99165C88.1663 6.9937 87.8266 6.84243 87.5147 6.41341C87.2067 5.98534 86.9855 5.30177 86.9804 4.54096C86.9753 3.78015 87.1873 3.09269 87.4896 2.66152C87.7958 2.22836 88.1333 2.07255 88.4404 2.0705ZM95.3307 2.02437C95.6378 2.02231 95.9774 2.17358 96.2894 2.60261C96.5974 3.03067 96.8185 3.71425 96.8236 4.47506C96.8287 5.23587 96.6168 5.92332 96.3145 6.35449C96.0083 6.78765 95.6707 6.94346 95.3636 6.94552C95.0565 6.94757 94.7169 6.7963 94.4049 6.36728C94.0969 5.93921 93.8758 5.25564 93.8707 4.49483C93.8656 3.73402 94.0775 3.04656 94.3798 2.61539C94.686 2.18223 95.0236 2.02642 95.3307 2.02437ZM83.5518 7.0246C82.4986 7.03165 81.5852 7.6362 81.0079 8.45701C80.4307 9.27783 80.1287 10.335 80.1363 11.4767C80.144 12.6184 80.4601 13.6724 81.0483 14.4854C81.6365 15.2984 82.5579 15.8897 83.6111 15.8827C84.6643 15.8756 85.5777 15.2711 86.1549 14.4503C86.7322 13.6294 87.0342 12.5723 87.0266 11.4306C87.0189 10.2889 86.7028 9.23485 86.1146 8.42184C85.5264 7.60883 84.605 7.01755 83.5518 7.0246ZM100.285 6.91257C99.232 6.91962 98.3186 7.52417 97.7414 8.34498C97.1641 9.1658 96.8621 10.223 96.8698 11.3647C96.8774 12.5064 97.1936 13.5604 97.7817 14.3734C98.3699 15.1864 99.2913 15.7777 100.345 15.7706C101.398 15.7636 102.311 15.159 102.888 14.3382C103.466 13.5174 103.768 12.4602 103.76 11.3185C103.752 10.1768 103.436 9.12282 102.848 8.30981C102.26 7.4968 101.338 6.90552 100.285 6.91257ZM83.565 8.99306C83.8721 8.991 84.2117 9.14227 84.5237 9.5713C84.8317 9.99936 85.0528 10.6829 85.0579 11.4437C85.063 12.2046 84.8511 12.892 84.5488 13.3232C84.2426 13.7563 83.905 13.9122 83.5979 13.9142C83.2908 13.9163 82.9512 13.765 82.6392 13.336C82.3312 12.9089 82.1101 12.2243 82.105 11.4635C82.0999 10.7027 82.3118 10.0153 82.6141 9.58408C82.9203 9.15092 83.2579 8.99511 83.565 8.99306ZM100.298 8.88103C100.606 8.87897 100.945 9.03024 101.257 9.45927C101.565 9.88733 101.786 10.5709 101.791 11.3317C101.796 12.0925 101.584 12.78 101.282 13.2112C100.976 13.6443 100.638 13.8001 100.331 13.8022C100.024 13.8042 99.6846 13.653 99.3727 13.2239C99.0646 12.7959 98.8435 12.1123 98.8384 11.3515C98.8333 10.5907 99.0453 9.90322 99.3475 9.47205C99.6537 9.03889 99.9913 8.88308 100.298 8.88103ZM91.9449 10.9055C90.6328 10.9143 89.7231 11.7718 89.2782 12.5228C88.8364 13.2738 88.5649 13.8977 88.3048 14.1593C88.1553 14.3148 87.2078 14.6784 86.2209 15.19C85.7275 15.4462 85.2307 15.7872 84.8139 16.3067C84.3941 16.8263 84.1134 17.5417 84.1188 18.3419C84.1314 20.2316 85.697 21.7763 87.5869 21.7637C88.4394 21.758 89.3273 21.4764 90.1968 21.2245C91.0702 20.9667 92.0108 20.7478 92.0108 20.7478C92.0108 20.7478 92.9542 20.9541 93.8289 21.1982C94.7027 21.4385 95.5944 21.7081 96.4468 21.7024C98.3367 21.6897 99.8815 20.1242 99.8688 18.2345C99.8636 17.453 99.5704 16.7404 99.1468 16.2413C98.725 15.7392 98.219 15.4305 97.7261 15.173C96.7382 14.6579 95.7679 14.251 95.6272 14.1103C95.3894 13.8786 95.1193 13.2377 94.6615 12.4887C94.2046 11.7369 93.2639 10.8967 91.9449 10.9055ZM91.958 12.874C92.6077 12.8696 92.6806 13.0266 92.9762 13.5128C93.2748 13.998 93.5008 14.8243 94.2202 15.5351C95.0377 16.3367 96.0645 16.507 96.8143 16.8996C97.1897 17.0959 97.4765 17.3056 97.6492 17.5092C97.8208 17.7118 97.8979 17.8973 97.9002 18.2457C97.9057 19.0725 97.2604 19.7264 96.4336 19.732C96.1481 19.7339 95.2273 19.5235 94.3693 19.2832C93.5114 19.0458 92.8008 18.772 91.9976 18.7774C91.1944 18.7828 90.4875 19.066 89.6328 19.3149C88.7781 19.5667 87.8602 19.7894 87.5747 19.7913C86.7479 19.7968 86.0939 19.1516 86.0884 18.3248C86.0857 17.9282 86.167 17.7239 86.3291 17.522C86.4911 17.3211 86.791 17.1213 87.1559 16.9328C87.8858 16.5539 88.9045 16.3994 89.7307 15.5622C90.4474 14.832 90.6582 13.9762 90.9473 13.492C91.2315 13.0078 91.2995 12.8744 91.957 12.87L91.958 12.874Z" fill="white"/>
<path opacity="0.8" d="M128.457 0.102035C127.403 0.109087 126.49 0.713641 125.913 1.53445C125.335 2.35527 125.033 3.41243 125.041 4.55414C125.049 5.69584 125.365 6.74985 125.953 7.56286C126.541 8.37587 127.463 8.96716 128.516 8.96011C129.569 8.95306 130.482 8.3485 131.06 7.52769C131.637 6.70688 131.939 5.64971 131.931 4.50801C131.924 3.3663 131.608 2.31229 131.019 1.49928C130.431 0.68627 129.51 0.094984 128.457 0.102035ZM131.931 4.50801C131.939 5.64971 132.255 6.70372 132.843 7.51673C133.431 8.32974 134.354 8.92102 135.406 8.91398C136.459 8.90693 137.373 8.30237 137.95 7.48156C138.527 6.66075 138.829 5.60358 138.822 4.46188C138.814 3.32017 138.498 2.26616 137.91 1.45315C137.321 0.64014 136.4 0.0488538 135.347 0.0559051C134.294 0.0629565 133.38 0.667511 132.803 1.48832C132.226 2.30914 131.924 3.3663 131.931 4.50801ZM128.47 2.0705C128.777 2.06844 129.116 2.21971 129.428 2.64874C129.736 3.0768 129.958 3.76038 129.963 4.52119C129.968 5.282 129.756 5.96946 129.454 6.40062C129.147 6.83378 128.81 6.98959 128.503 6.99165C128.196 6.9937 127.856 6.84243 127.544 6.41341C127.236 5.98534 127.015 5.30177 127.01 4.54096C127.005 3.78015 127.217 3.09269 127.519 2.66152C127.825 2.22836 128.163 2.07255 128.47 2.0705ZM135.36 2.02437C135.667 2.02231 136.007 2.17358 136.319 2.60261C136.627 3.03067 136.848 3.71425 136.853 4.47506C136.858 5.23587 136.646 5.92332 136.344 6.35449C136.038 6.78765 135.7 6.94346 135.393 6.94552C135.086 6.94757 134.746 6.7963 134.434 6.36728C134.126 5.93921 133.905 5.25564 133.9 4.49483C133.895 3.73402 134.107 3.04656 134.409 2.61539C134.715 2.18223 135.053 2.02642 135.36 2.02437ZM123.581 7.0246C122.528 7.03165 121.614 7.6362 121.037 8.45701C120.46 9.27783 120.158 10.335 120.166 11.4767C120.173 12.6184 120.489 13.6724 121.078 14.4854C121.666 15.2984 122.587 15.8897 123.64 15.8827C124.694 15.8756 125.607 15.2711 126.184 14.4503C126.761 13.6294 127.064 12.5723 127.056 11.4306C127.048 10.2889 126.732 9.23485 126.144 8.42184C125.556 7.60883 124.634 7.01755 123.581 7.0246ZM140.315 6.91257C139.261 6.91962 138.348 7.52417 137.771 8.34498C137.193 9.1658 136.891 10.223 136.899 11.3647C136.907 12.5064 137.223 13.5604 137.811 14.3734C138.399 15.1864 139.321 15.7777 140.374 15.7706C141.427 15.7636 142.34 15.159 142.918 14.3382C143.495 13.5174 143.797 12.4602 143.789 11.3185C143.782 10.1768 143.466 9.12282 142.877 8.30981C142.289 7.4968 141.368 6.90552 140.315 6.91257ZM123.594 8.99306C123.901 8.991 124.241 9.14227 124.553 9.5713C124.861 9.99936 125.082 10.6829 125.087 11.4437C125.092 12.2046 124.88 12.892 124.578 13.3232C124.272 13.7563 123.934 13.9122 123.627 13.9142C123.32 13.9163 122.98 13.765 122.669 13.336C122.36 12.9089 122.139 12.2243 122.134 11.4635C122.129 10.7027 122.341 10.0153 122.643 9.58408C122.95 9.15092 123.287 8.99511 123.594 8.99306ZM140.328 8.88103C140.635 8.87897 140.974 9.03024 141.286 9.45927C141.594 9.88733 141.816 10.5709 141.821 11.3317C141.826 12.0925 141.614 12.78 141.312 13.2112C141.005 13.6443 140.668 13.8001 140.361 13.8022C140.054 13.8042 139.714 13.653 139.402 13.2239C139.094 12.7959 138.873 12.1123 138.868 11.3515C138.863 10.5907 139.075 9.90322 139.377 9.47205C139.683 9.03889 140.021 8.88308 140.328 8.88103ZM131.974 10.9055C130.662 10.9143 129.752 11.7718 129.308 12.5228C128.866 13.2738 128.594 13.8977 128.334 14.1593C128.185 14.3148 127.237 14.6784 126.25 15.19C125.757 15.4462 125.26 15.7872 124.843 16.3067C124.423 16.8263 124.143 17.5417 124.148 18.3419C124.161 20.2316 125.726 21.7763 127.616 21.7637C128.469 21.758 129.357 21.4764 130.226 21.2245C131.099 20.9667 132.04 20.7478 132.04 20.7478C132.04 20.7478 132.983 20.9541 133.858 21.1982C134.732 21.4385 135.624 21.7081 136.476 21.7024C138.366 21.6897 139.911 20.1242 139.898 18.2345C139.893 17.453 139.6 16.7404 139.176 16.2413C138.754 15.7392 138.248 15.4305 137.755 15.173C136.768 14.6579 135.797 14.251 135.656 14.1103C135.419 13.8786 135.149 13.2377 134.691 12.4887C134.234 11.7369 133.293 10.8967 131.974 10.9055ZM131.987 12.874C132.637 12.8696 132.71 13.0266 133.006 13.5128C133.304 13.998 133.53 14.8243 134.25 15.5351C135.067 16.3367 136.094 16.507 136.844 16.8996C137.219 17.0959 137.506 17.3056 137.678 17.5092C137.85 17.7118 137.927 17.8973 137.929 18.2457C137.935 19.0725 137.29 19.7264 136.463 19.732C136.177 19.7339 135.257 19.5235 134.399 19.2832C133.541 19.0458 132.83 18.772 132.027 18.7774C131.224 18.7828 130.517 19.066 129.662 19.3149C128.807 19.5667 127.889 19.7894 127.604 19.7913C126.777 19.7968 126.123 19.1516 126.118 18.3248C126.115 17.9282 126.196 17.7239 126.358 17.522C126.52 17.3211 126.82 17.1213 127.185 16.9328C127.915 16.5539 128.934 16.3994 129.76 15.5622C130.477 14.832 130.687 13.9762 130.977 13.492C131.261 13.0078 131.329 12.8744 131.986 12.87L131.987 12.874Z" fill="white"/>
</g>
</svg>
