<svg width="23" height="19" viewBox="0 0 23 19" fill="none" xmlns="http://www.w3.org/2000/svg">
<path d="M22.201 8.844L14.3169 0.959735C14.0918 0.734678 13.7919 0.611145 13.472 0.611145C13.1518 0.611145 12.8521 0.734855 12.627 0.959735L11.9112 1.67573C11.6863 1.90043 11.5624 2.20056 11.5624 2.52058C11.5624 2.84042 11.6863 3.15067 11.9112 3.37537L16.5106 7.98495H1.89792C1.23908 7.98495 0.718506 8.50074 0.718506 9.15976V10.172C0.718506 10.831 1.23908 11.3988 1.89792 11.3988H16.5628L11.9114 16.0341C11.6865 16.2592 11.5626 16.5511 11.5626 16.8712C11.5626 17.1908 11.6865 17.487 11.9114 17.7119L12.6272 18.4256C12.8522 18.6507 13.152 18.7733 13.4722 18.7733C13.792 18.7733 14.092 18.6491 14.3171 18.424L22.2011 10.5399C22.4267 10.3141 22.5508 10.0128 22.5499 9.6924C22.5506 9.37097 22.4267 9.06942 22.201 8.844Z" fill="white"/>
</svg>
