<svg width="14" height="71" viewBox="0 0 14 71" fill="none" xmlns="http://www.w3.org/2000/svg">
<path d="M9.62072 63.1886C10.2085 58.2461 10.7301 53.6423 11.3194 49.0382C11.3856 48.6996 11.7907 48.4271 12.3968 47.6801C12.6771 49.8443 13.0231 51.5345 13.0982 53.2259C13.2531 57.6915 13.2724 62.0899 13.2919 66.556C13.2943 67.0974 13.3643 67.6384 13.2313 68.1804C12.9004 69.9412 11.752 70.5553 10.1905 69.6147C9.44361 69.1443 8.76413 68.6059 8.15207 67.9996C5.83984 65.7089 3.59503 63.3503 1.35022 60.9916C0.942175 60.5874 0.736376 59.9793 0.25885 59.1693C3.71152 59.0189 4.67455 62.4658 7.38625 63.1984C7.24816 62.5899 7.17808 62.0489 7.04059 61.5758C1.95012 43.3272 2.41225 25.1221 7.20816 6.96564C7.67386 5.06886 8.41068 3.23856 9.07981 1.40855C9.41422 0.459715 10.1555 -0.355568 11.309 0.180747C12.4621 0.649397 12.4663 1.59675 11.997 2.68152C6.63308 14.8178 6.07988 27.6775 6.3398 40.6689C6.43709 47.4355 7.2109 54.0637 8.79694 60.6207C9.00362 61.4319 9.27802 62.2427 9.62072 63.1886Z" fill="#FFC24F"/>
</svg>
