<svg width="59" height="66" viewBox="0 0 59 66" fill="none" xmlns="http://www.w3.org/2000/svg">
<rect opacity="0.4" x="3.05176e-05" width="59" height="66" rx="8" fill="#CAE7FF"/>
<path fill-rule="evenodd" clip-rule="evenodd" d="M29.6149 17.4538C29.3243 17.1632 28.9301 17 28.5191 17C28.1081 17 27.7139 17.1632 27.4232 17.4538L16.5732 28.3039L13.4732 31.404C13.3252 31.547 13.2071 31.718 13.1259 31.9071C13.0446 32.0962 13.0019 32.2996 13.0001 32.5054C12.9983 32.7112 13.0375 32.9153 13.1155 33.1058C13.1934 33.2963 13.3085 33.4694 13.454 33.6149C13.5995 33.7604 13.7726 33.8755 13.9631 33.9535C14.1536 34.0314 14.3577 34.0706 14.5635 34.0688C14.7693 34.0671 14.9727 34.0243 15.1618 33.9431C15.3509 33.8618 15.5219 33.7437 15.6649 33.5957L16.1191 33.1415V43.3499C16.1191 44.5832 16.609 45.766 17.481 46.638C18.3531 47.5101 19.5358 48 20.7691 48H36.2691C37.5023 48 38.6851 47.5101 39.5571 46.638C40.4292 45.766 40.9191 44.5832 40.9191 43.3499V33.1415L41.3732 33.5957C41.6656 33.878 42.0571 34.0343 42.4635 34.0307C42.8699 34.0272 43.2587 33.8642 43.546 33.5768C43.8334 33.2894 43.9964 32.9007 44 32.4943C44.0035 32.0878 43.8473 31.6963 43.5649 31.404L29.6149 17.4538Z" fill="#1D87AC"/>
<path d="M35.8256 33.211C35.6521 32.7988 35.364 32.5017 34.992 32.352L34.987 32.3501C34.8177 32.2839 34.6375 32.25 34.4557 32.2502H34.4357C33.5843 32.263 32.7152 32.9863 32.2732 34.0502C31.9491 34.8282 31.9119 35.665 32.1738 36.2886C32.347 36.7011 32.6358 36.9982 33.0093 37.1479L33.0133 37.1494C33.1826 37.2157 33.3629 37.2496 33.5447 37.2494C34.4041 37.2494 35.2824 36.5261 35.7325 35.4481C36.0525 34.6711 36.0878 33.8349 35.8256 33.211ZM32.4239 37.7997C31.9329 37.5047 31.4687 37.2257 31.1656 36.7245C30.3292 35.3372 29.8241 34.4998 28.4999 34.4998C27.1757 34.4998 26.6693 35.3372 25.8311 36.7245C25.5273 37.2263 25.0622 37.5056 24.5697 37.8019C24.0049 38.1412 23.4214 38.4918 23.1695 39.1817C23.0715 39.4304 23.0222 39.6955 23.0241 39.9628C23.0241 41.0861 23.8993 42 24.9744 42C25.5292 42 26.1196 41.8078 26.7443 41.6044C27.345 41.4088 27.9661 41.2067 28.503 41.2067C29.04 41.2067 29.6594 41.4088 30.258 41.6044C30.8815 41.8066 31.4691 41.9987 32.0254 41.9987C33.099 41.9987 33.9725 41.0848 33.9725 39.9615C33.9734 39.6941 33.923 39.4289 33.8241 39.1804C33.5722 38.4899 32.9883 38.139 32.4239 37.7997ZM25.1869 33.4016C25.5589 33.868 26.0308 34.1249 26.5159 34.1249C26.5821 34.1249 26.6482 34.12 26.7137 34.1102C27.7254 33.9615 28.3558 32.7273 28.1489 31.2981C28.0623 30.6973 27.8311 30.1376 27.4998 29.7227C27.1285 29.2572 26.6559 29.0006 26.1711 29.0006C26.1049 29.0006 26.0388 29.0055 25.9733 29.0153C24.9616 29.164 24.3312 30.3982 24.5381 31.8274C24.6244 32.4273 24.8556 32.9863 25.1869 33.4016ZM30.2864 34.1102C30.3519 34.12 30.418 34.1249 30.4842 34.1249C30.9696 34.1249 31.4412 33.868 31.8132 33.4016C32.1441 32.9863 32.3742 32.4273 32.4617 31.8268C32.6686 30.3982 32.0382 29.164 31.0265 29.0147C30.961 29.0049 30.8949 29 30.8287 29C30.3439 29.0006 29.8713 29.2572 29.5 29.7227C29.1687 30.1376 28.9375 30.6973 28.8512 31.2987C28.6443 32.7273 29.2747 33.9615 30.2864 34.1102ZM23.9865 37.1494L23.9908 37.1479C24.3637 36.9982 24.6522 36.7014 24.825 36.2893C25.0869 35.6644 25.05 34.8285 24.7266 34.0505C24.2787 32.9738 23.4008 32.2502 22.5422 32.2502C22.3604 32.2499 22.1801 32.2838 22.0109 32.3501L22.0065 32.3517C21.6346 32.5001 21.3461 32.7982 21.1733 33.2103C20.9113 33.8352 20.9482 34.6711 21.2717 35.4491C21.7196 36.5258 22.5975 37.2494 23.4561 37.2494C23.6376 37.2496 23.8175 37.2157 23.9865 37.1494Z" fill="#EAF5FF"/>
</svg>
