<svg width="19" height="11" viewBox="0 0 19 11" fill="none" xmlns="http://www.w3.org/2000/svg">
<path d="M10.7408 0.394702C10.9605 0.168213 11.253 0.0430004 11.5564 0.0454857C11.8598 0.047971 12.1505 0.17796 12.3671 0.408024C12.5836 0.638087 12.7092 0.95023 12.7172 1.27859C12.7252 1.60695 12.6151 1.92583 12.4101 2.16796L6.1853 10.5952C6.07827 10.72 5.94908 10.8201 5.80547 10.8897C5.66186 10.9592 5.50677 10.9966 5.34949 10.9998C5.1922 11.0029 5.03594 10.9717 4.89005 10.908C4.74416 10.8443 4.61164 10.7494 4.5004 10.629L0.372406 6.16034C0.257448 6.04438 0.165243 5.90454 0.101292 5.74917C0.0373412 5.5938 0.00295404 5.42608 0.000182095 5.25601C-0.00258985 5.08594 0.0263103 4.91701 0.0851584 4.7593C0.144007 4.60158 0.231597 4.45831 0.342705 4.33804C0.453813 4.21776 0.586161 4.12294 0.731855 4.05924C0.877549 3.99553 1.0336 3.96425 1.19071 3.96725C1.34781 3.97025 1.50275 4.00747 1.64628 4.0767C1.78981 4.14593 1.91898 4.24574 2.0261 4.37019L5.29293 7.90489L10.7096 0.431857L10.7408 0.394702ZM9.30548 9.07524L10.7408 10.629C10.852 10.7491 10.9844 10.8438 11.1301 10.9074C11.2759 10.9709 11.432 11.0021 11.5891 10.9989C11.7462 10.9958 11.9011 10.9584 12.0445 10.889C12.188 10.8197 12.3171 10.7197 12.4241 10.5952L18.652 2.16796C18.7639 2.0484 18.8523 1.90565 18.9121 1.74825C18.9719 1.59085 19.0018 1.42202 18.9999 1.25185C18.9981 1.08167 18.9646 0.913646 18.9014 0.757796C18.8383 0.601946 18.7468 0.461473 18.6323 0.344763C18.5179 0.228053 18.3829 0.137501 18.2355 0.0785148C18.088 0.0195283 17.9311 -0.0066833 17.774 0.00144586C17.617 0.00957502 17.4631 0.0518786 17.3215 0.125829C17.1799 0.199779 17.0535 0.30386 16.9499 0.431857L11.5317 7.90489L10.7751 7.08412L9.30548 9.07524Z" fill="#FFC24F"/>
</svg>
