<svg width="1360" height="326" viewBox="0 0 1360 326" fill="none" xmlns="http://www.w3.org/2000/svg">
<g opacity="0.1">
<path d="M102.256 104.027C62.3631 104.027 68.5511 147.356 68.5511 147.356C68.5511 147.356 54.4436 129.812 37.5978 138.417C20.7519 147.021 29.2755 166.511 29.2755 166.511C29.2755 166.511 0 160.081 0 179.679C0 199.276 65.5981 196.806 110.914 196.806C156.23 196.806 210.029 194.122 210.298 181.048C210.58 167.974 186.163 166.497 186.163 166.497C186.163 166.497 191.962 145.276 171.693 131.517C151.425 117.759 131.116 136.336 131.116 136.336C131.116 136.336 132.847 104 102.243 104L102.256 104.027Z" fill="#E5DCB7"/>
<path d="M1270.09 121.022C1236.9 121.022 1242.04 156.933 1242.04 156.933C1242.04 156.933 1230.3 142.393 1216.29 149.524C1202.27 156.655 1209.36 172.808 1209.36 172.808C1209.36 172.808 1185 167.48 1185 183.722C1185 199.964 1239.59 197.917 1277.3 197.917C1315.01 197.917 1359.77 195.692 1360 184.856C1360.23 174.021 1339.91 172.797 1339.91 172.797C1339.91 172.797 1344.74 155.209 1327.87 143.806C1311.01 132.403 1294.11 147.8 1294.11 147.8C1294.11 147.8 1295.55 121 1270.08 121L1270.09 121.022Z" fill="#E5DCB7"/>
<path d="M481.344 0C460.767 0 459.357 22.5909 459.357 22.5909C459.357 22.5909 455.438 13.2216 447.814 16.9801C440.19 20.7385 444.458 31.5306 444.458 31.5306C444.458 31.5306 436.713 31.8259 437.008 35.6648C437.29 39.5038 455.438 39.1951 489.881 39.1951C524.325 39.1951 537.224 39.1683 537.184 33.1682C537.13 27.1547 521.278 26.0674 521.278 26.0674C521.278 26.0674 521.882 8.7652 509.385 6.37591C496.888 3.98662 494.66 13.5975 494.66 13.5975C494.66 13.5975 493.68 0.0268517 481.331 0.0268517L481.344 0Z" fill="#E5DCB7"/>
<path d="M972.344 286C951.767 286 950.357 308.591 950.357 308.591C950.357 308.591 946.438 299.222 938.814 302.98C931.19 306.738 935.458 317.531 935.458 317.531C935.458 317.531 927.713 317.826 928.008 321.665C928.29 325.504 946.438 325.195 980.881 325.195C1015.32 325.195 1028.22 325.168 1028.18 319.168C1028.13 313.155 1012.28 312.067 1012.28 312.067C1012.28 312.067 1012.88 294.765 1000.38 292.376C987.888 289.987 985.66 299.597 985.66 299.597C985.66 299.597 984.68 286.027 972.331 286.027L972.344 286Z" fill="#E5DCB7"/>
</g>
<path d="M1036.67 64.8221C1035.33 64.8311 1034.16 65.6021 1033.43 66.6488C1032.69 67.6955 1032.3 69.0437 1032.31 70.4996C1032.32 71.9556 1032.73 73.2997 1033.48 74.3365C1034.23 75.3733 1035.4 76.1273 1036.75 76.1183C1038.09 76.1093 1039.25 75.3384 1039.99 74.2916C1040.73 73.2449 1041.11 71.8968 1041.1 70.4408C1041.09 68.9848 1040.69 67.6407 1039.94 66.6039C1039.19 65.5672 1038.01 64.8131 1036.67 64.8221ZM1041.1 70.4408C1041.11 71.8968 1041.51 73.2409 1042.26 74.2777C1043.01 75.3144 1044.19 76.0685 1045.53 76.0595C1046.88 76.0505 1048.04 75.2795 1048.78 74.2328C1049.51 73.1861 1049.9 71.8379 1049.89 70.382C1049.88 68.926 1049.47 67.5819 1048.72 66.5451C1047.97 65.5083 1046.8 64.7543 1045.46 64.7633C1044.11 64.7723 1042.95 65.5432 1042.21 66.59C1041.48 67.6367 1041.09 68.9848 1041.1 70.4408ZM1036.69 67.3324C1037.08 67.3298 1037.51 67.5227 1037.91 68.0698C1038.3 68.6157 1038.58 69.4874 1038.59 70.4576C1038.6 71.4278 1038.33 72.3045 1037.94 72.8543C1037.55 73.4067 1037.12 73.6054 1036.73 73.608C1036.34 73.6107 1035.9 73.4178 1035.51 72.8706C1035.11 72.3248 1034.83 71.453 1034.82 70.4828C1034.82 69.5126 1035.09 68.6359 1035.47 68.0861C1035.86 67.5337 1036.29 67.335 1036.69 67.3324ZM1045.47 67.2736C1045.86 67.2709 1046.3 67.4638 1046.7 68.011C1047.09 68.5568 1047.37 69.4286 1047.38 70.3988C1047.38 71.369 1047.11 72.2457 1046.73 72.7955C1046.34 73.3479 1045.91 73.5466 1045.52 73.5492C1045.12 73.5518 1044.69 73.3589 1044.29 72.8118C1043.9 72.2659 1043.62 71.3942 1043.61 70.424C1043.6 69.4538 1043.88 68.5771 1044.26 68.0273C1044.65 67.4749 1045.08 67.2762 1045.47 67.2736ZM1030.45 73.6501C1029.11 73.6591 1027.94 74.43 1027.21 75.4767C1026.47 76.5235 1026.09 77.8716 1026.1 79.3276C1026.11 80.7835 1026.51 82.1276 1027.26 83.1644C1028.01 84.2012 1029.18 84.9552 1030.53 84.9462C1031.87 84.9373 1033.04 84.1663 1033.77 83.1196C1034.51 82.0728 1034.89 80.7247 1034.88 79.2687C1034.87 77.8128 1034.47 76.4687 1033.72 75.4319C1032.97 74.3951 1031.8 73.6411 1030.45 73.6501ZM1051.79 73.5072C1050.45 73.5162 1049.28 74.2871 1048.55 75.3339C1047.81 76.3806 1047.43 77.7288 1047.44 79.1847C1047.45 80.6407 1047.85 81.9848 1048.6 83.0216C1049.35 84.0583 1050.52 84.8124 1051.87 84.8034C1053.21 84.7944 1054.37 84.0234 1055.11 82.9767C1055.85 81.93 1056.23 80.5818 1056.22 79.1259C1056.21 77.6699 1055.81 76.3258 1055.06 75.289C1054.31 74.2522 1053.13 73.4982 1051.79 73.5072ZM1030.47 76.1603C1030.86 76.1577 1031.29 76.3506 1031.69 76.8977C1032.08 77.4436 1032.37 78.3153 1032.37 79.2856C1032.38 80.2558 1032.11 81.1324 1031.72 81.6823C1031.33 82.2347 1030.9 82.4334 1030.51 82.436C1030.12 82.4386 1029.69 82.2457 1029.29 81.6986C1028.9 81.154 1028.61 80.281 1028.61 79.3108C1028.6 78.3405 1028.87 77.4639 1029.26 76.914C1029.65 76.3616 1030.08 76.1629 1030.47 76.1603ZM1051.81 76.0175C1052.2 76.0148 1052.63 76.2077 1053.03 76.7549C1053.42 77.3007 1053.71 78.1725 1053.71 79.1427C1053.72 80.1129 1053.45 80.9896 1053.06 81.5394C1052.67 82.0918 1052.24 82.2905 1051.85 82.2931C1051.46 82.2957 1051.03 82.1028 1050.63 81.5557C1050.23 81.0098 1049.95 80.1381 1049.95 79.1679C1049.94 78.1977 1050.21 77.321 1050.6 76.7712C1050.99 76.2188 1051.42 76.0201 1051.81 76.0175ZM1041.16 78.5992C1039.48 78.6104 1038.32 79.7039 1037.75 80.6616C1037.19 81.6193 1036.85 82.4149 1036.51 82.7485C1036.32 82.9468 1035.11 83.4106 1033.86 84.0629C1033.23 84.3897 1032.59 84.8245 1032.06 85.487C1031.53 86.1496 1031.17 87.062 1031.18 88.0824C1031.19 90.4922 1033.19 92.4621 1035.6 92.4459C1036.69 92.4387 1037.82 92.0796 1038.93 91.7584C1040.04 91.4296 1041.24 91.1505 1041.24 91.1505C1041.24 91.1505 1042.44 91.4135 1043.56 91.7249C1044.67 92.0312 1045.81 92.3751 1046.9 92.3678C1049.31 92.3517 1051.28 90.3553 1051.26 87.9454C1051.25 86.9488 1050.88 86.0401 1050.34 85.4035C1049.8 84.7632 1049.16 84.3697 1048.53 84.0412C1047.27 83.3844 1046.03 82.8655 1045.85 82.686C1045.55 82.3905 1045.2 81.5732 1044.62 80.6182C1044.04 79.6593 1042.84 78.5879 1041.16 78.5992ZM1041.17 81.1094C1042 81.1039 1042.09 81.3041 1042.47 81.9241C1042.85 82.5429 1043.14 83.5966 1044.06 84.503C1045.1 85.5252 1046.41 85.7424 1047.37 86.2431C1047.84 86.4934 1048.21 86.7609 1048.43 87.0205C1048.65 87.2788 1048.75 87.5154 1048.75 87.9597C1048.76 89.014 1047.93 89.848 1046.88 89.855C1046.52 89.8575 1045.34 89.5892 1044.25 89.2827C1043.15 88.98 1042.25 88.6308 1041.22 88.6377C1040.2 88.6446 1039.3 89.0058 1038.21 89.3231C1037.12 89.6442 1035.95 89.9282 1035.58 89.9307C1034.53 89.9377 1033.69 89.1149 1033.69 88.0606C1033.68 87.5547 1033.79 87.2942 1033.99 87.0368C1034.2 86.7806 1034.58 86.5257 1035.05 86.2854C1035.98 85.8022 1037.28 85.6052 1038.33 84.5375C1039.25 83.6063 1039.51 82.515 1039.88 81.8975C1040.25 81.2801 1040.33 81.11 1041.17 81.1044L1041.17 81.1094Z" fill="#BED6F4"/>
<path opacity="0.6" d="M1087.72 64.8221C1086.37 64.8311 1085.21 65.6021 1084.47 66.6488C1083.74 67.6955 1083.35 69.0437 1083.36 70.4996C1083.37 71.9556 1083.77 73.2997 1084.52 74.3365C1085.27 75.3733 1086.45 76.1273 1087.79 76.1183C1089.14 76.1093 1090.3 75.3384 1091.04 74.2916C1091.77 73.2449 1092.16 71.8968 1092.15 70.4408C1092.14 68.9848 1091.73 67.6407 1090.98 66.6039C1090.23 65.5672 1089.06 64.8131 1087.72 64.8221ZM1092.15 70.4408C1092.16 71.8968 1092.56 73.2409 1093.31 74.2777C1094.06 75.3144 1095.24 76.0685 1096.58 76.0595C1097.92 76.0505 1099.09 75.2795 1099.82 74.2328C1100.56 73.1861 1100.94 71.8379 1100.93 70.382C1100.92 68.926 1100.52 67.5819 1099.77 66.5451C1099.02 65.5083 1097.85 64.7543 1096.5 64.7633C1095.16 64.7723 1094 65.5432 1093.26 66.59C1092.52 67.6367 1092.14 68.9848 1092.15 70.4408ZM1087.73 67.3324C1088.12 67.3298 1088.56 67.5227 1088.96 68.0698C1089.35 68.6157 1089.63 69.4874 1089.64 70.4576C1089.64 71.4278 1089.37 72.3045 1088.99 72.8543C1088.6 73.4067 1088.17 73.6054 1087.78 73.608C1087.38 73.6107 1086.95 73.4178 1086.55 72.8706C1086.16 72.3248 1085.88 71.453 1085.87 70.4828C1085.86 69.5126 1086.14 68.6359 1086.52 68.0861C1086.91 67.5337 1087.34 67.335 1087.73 67.3324ZM1096.52 67.2736C1096.91 67.2709 1097.34 67.4638 1097.74 68.011C1098.14 68.5568 1098.42 69.4286 1098.42 70.3988C1098.43 71.369 1098.16 72.2457 1097.77 72.7955C1097.38 73.3479 1096.95 73.5466 1096.56 73.5492C1096.17 73.5518 1095.74 73.3589 1095.34 72.8118C1094.95 72.2659 1094.66 71.3942 1094.66 70.424C1094.65 69.4538 1094.92 68.5771 1095.31 68.0273C1095.7 67.4749 1096.13 67.2762 1096.52 67.2736ZM1081.5 73.6501C1080.16 73.6591 1078.99 74.43 1078.26 75.4767C1077.52 76.5235 1077.13 77.8716 1077.14 79.3276C1077.15 80.7835 1077.56 82.1276 1078.31 83.1644C1079.06 84.2012 1080.23 84.9552 1081.57 84.9462C1082.92 84.9373 1084.08 84.1663 1084.82 83.1196C1085.55 82.0728 1085.94 80.7247 1085.93 79.2687C1085.92 77.8128 1085.52 76.4687 1084.77 75.4319C1084.02 74.3951 1082.84 73.6411 1081.5 73.6501ZM1102.84 73.5072C1101.5 73.5162 1100.33 74.2871 1099.59 75.3339C1098.86 76.3806 1098.47 77.7288 1098.48 79.1847C1098.49 80.6407 1098.9 81.9848 1099.65 83.0216C1100.4 84.0583 1101.57 84.8124 1102.91 84.8034C1104.26 84.7944 1105.42 84.0234 1106.16 82.9767C1106.89 81.93 1107.28 80.5818 1107.27 79.1259C1107.26 77.6699 1106.86 76.3258 1106.11 75.289C1105.36 74.2522 1104.18 73.4982 1102.84 73.5072ZM1081.52 76.1603C1081.91 76.1577 1082.34 76.3506 1082.74 76.8977C1083.13 77.4436 1083.41 78.3153 1083.42 79.2856C1083.43 80.2558 1083.16 81.1324 1082.77 81.6823C1082.38 82.2347 1081.95 82.4334 1081.56 82.436C1081.17 82.4386 1080.73 82.2457 1080.34 81.6986C1079.94 81.154 1079.66 80.281 1079.65 79.3108C1079.65 78.3405 1079.92 77.4639 1080.3 76.914C1080.69 76.3616 1081.12 76.1629 1081.52 76.1603ZM1102.86 76.0175C1103.25 76.0148 1103.68 76.2077 1104.08 76.7549C1104.47 77.3007 1104.75 78.1725 1104.76 79.1427C1104.77 80.1129 1104.5 80.9896 1104.11 81.5394C1103.72 82.0918 1103.29 82.2905 1102.9 82.2931C1102.51 82.2957 1102.07 82.1028 1101.67 81.5557C1101.28 81.0098 1101 80.1381 1100.99 79.1679C1100.99 78.1977 1101.26 77.321 1101.64 76.7712C1102.03 76.2188 1102.46 76.0201 1102.86 76.0175ZM1092.2 78.5992C1090.53 78.6104 1089.37 79.7039 1088.8 80.6616C1088.24 81.6193 1087.89 82.4149 1087.56 82.7485C1087.37 82.9468 1086.16 83.4106 1084.9 84.0629C1084.27 84.3897 1083.64 84.8245 1083.11 85.487C1082.57 86.1496 1082.22 87.062 1082.22 88.0824C1082.24 90.4922 1084.23 92.4621 1086.64 92.4459C1087.73 92.4387 1088.86 92.0796 1089.97 91.7584C1091.09 91.4296 1092.29 91.1505 1092.29 91.1505C1092.29 91.1505 1093.49 91.4135 1094.6 91.7249C1095.72 92.0312 1096.86 92.3751 1097.94 92.3678C1100.35 92.3517 1102.32 90.3553 1102.31 87.9454C1102.3 86.9488 1101.93 86.0401 1101.39 85.4035C1100.85 84.7632 1100.2 84.3697 1099.57 84.0412C1098.31 83.3844 1097.08 82.8655 1096.9 82.686C1096.59 82.3905 1096.25 81.5732 1095.67 80.6182C1095.08 79.6593 1093.88 78.5879 1092.2 78.5992ZM1092.22 81.1094C1093.05 81.1039 1093.14 81.3041 1093.52 81.9241C1093.9 82.5429 1094.19 83.5966 1095.1 84.503C1096.15 85.5252 1097.46 85.7424 1098.41 86.2431C1098.89 86.4934 1099.26 86.7609 1099.48 87.0205C1099.7 87.2788 1099.79 87.5154 1099.8 87.9597C1099.8 89.014 1098.98 89.848 1097.93 89.855C1097.56 89.8575 1096.39 89.5892 1095.29 89.2827C1094.2 88.98 1093.29 88.6308 1092.27 88.6377C1091.25 88.6446 1090.34 89.0058 1089.25 89.3231C1088.16 89.6442 1086.99 89.9282 1086.63 89.9307C1085.57 89.9377 1084.74 89.1149 1084.73 88.0606C1084.73 87.5547 1084.83 87.2942 1085.04 87.0368C1085.25 86.7806 1085.63 86.5257 1086.1 86.2854C1087.03 85.8022 1088.33 85.6052 1089.38 84.5375C1090.29 83.6063 1090.56 82.515 1090.93 81.8975C1091.29 81.2801 1091.38 81.11 1092.22 81.1044L1092.22 81.1094Z" fill="#BED6F4"/>
<path opacity="0.4" d="M1138.77 64.8221C1137.42 64.8311 1136.26 65.6021 1135.52 66.6488C1134.79 67.6955 1134.4 69.0437 1134.41 70.4996C1134.42 71.9556 1134.82 73.2997 1135.57 74.3365C1136.32 75.3733 1137.5 76.1273 1138.84 76.1183C1140.18 76.1093 1141.35 75.3384 1142.08 74.2916C1142.82 73.2449 1143.21 71.8968 1143.2 70.4408C1143.19 68.9848 1142.78 67.6407 1142.03 66.6039C1141.28 65.5672 1140.11 64.8131 1138.77 64.8221ZM1143.2 70.4408C1143.21 71.8968 1143.61 73.2409 1144.36 74.2777C1145.11 75.3144 1146.29 76.0685 1147.63 76.0595C1148.97 76.0505 1150.14 75.2795 1150.87 74.2328C1151.61 73.1861 1151.99 71.8379 1151.98 70.382C1151.97 68.926 1151.57 67.5819 1150.82 66.5451C1150.07 65.5083 1148.9 64.7543 1147.55 64.7633C1146.21 64.7723 1145.04 65.5432 1144.31 66.59C1143.57 67.6367 1143.19 68.9848 1143.2 70.4408ZM1138.78 67.3324C1139.17 67.3298 1139.61 67.5227 1140 68.0698C1140.4 68.6157 1140.68 69.4874 1140.69 70.4576C1140.69 71.4278 1140.42 72.3045 1140.04 72.8543C1139.65 73.4067 1139.22 73.6054 1138.82 73.608C1138.43 73.6107 1138 73.4178 1137.6 72.8706C1137.21 72.3248 1136.93 71.453 1136.92 70.4828C1136.91 69.5126 1137.18 68.6359 1137.57 68.0861C1137.96 67.5337 1138.39 67.335 1138.78 67.3324ZM1147.57 67.2736C1147.96 67.2709 1148.39 67.4638 1148.79 68.011C1149.18 68.5568 1149.47 69.4286 1149.47 70.3988C1149.48 71.369 1149.21 72.2457 1148.82 72.7955C1148.43 73.3479 1148 73.5466 1147.61 73.5492C1147.22 73.5518 1146.79 73.3589 1146.39 72.8118C1146 72.2659 1145.71 71.3942 1145.71 70.424C1145.7 69.4538 1145.97 68.5771 1146.36 68.0273C1146.75 67.4749 1147.18 67.2762 1147.57 67.2736ZM1132.55 73.6501C1131.2 73.6591 1130.04 74.43 1129.3 75.4767C1128.57 76.5235 1128.18 77.8716 1128.19 79.3276C1128.2 80.7835 1128.61 82.1276 1129.36 83.1644C1130.11 84.2012 1131.28 84.9552 1132.62 84.9462C1133.97 84.9373 1135.13 84.1663 1135.87 83.1196C1136.6 82.0728 1136.99 80.7247 1136.98 79.2687C1136.97 77.8128 1136.57 76.4687 1135.82 75.4319C1135.07 74.3951 1133.89 73.6411 1132.55 73.6501ZM1153.89 73.5072C1152.54 73.5162 1151.38 74.2871 1150.64 75.3339C1149.91 76.3806 1149.52 77.7288 1149.53 79.1847C1149.54 80.6407 1149.94 81.9848 1150.69 83.0216C1151.44 84.0583 1152.62 84.8124 1153.96 84.8034C1155.31 84.7944 1156.47 84.0234 1157.21 82.9767C1157.94 81.93 1158.33 80.5818 1158.32 79.1259C1158.31 77.6699 1157.91 76.3258 1157.16 75.289C1156.41 74.2522 1155.23 73.4982 1153.89 73.5072ZM1132.56 76.1603C1132.96 76.1577 1133.39 76.3506 1133.79 76.8977C1134.18 77.4436 1134.46 78.3153 1134.47 79.2856C1134.48 80.2558 1134.2 81.1324 1133.82 81.6823C1133.43 82.2347 1133 82.4334 1132.61 82.436C1132.22 82.4386 1131.78 82.2457 1131.38 81.6986C1130.99 81.154 1130.71 80.281 1130.7 79.3108C1130.7 78.3405 1130.97 77.4639 1131.35 76.914C1131.74 76.3616 1132.17 76.1629 1132.56 76.1603ZM1153.9 76.0175C1154.3 76.0148 1154.73 76.2077 1155.13 76.7549C1155.52 77.3007 1155.8 78.1725 1155.81 79.1427C1155.81 80.1129 1155.54 80.9896 1155.16 81.5394C1154.77 82.0918 1154.34 82.2905 1153.95 82.2931C1153.55 82.2957 1153.12 82.1028 1152.72 81.5557C1152.33 81.0098 1152.05 80.1381 1152.04 79.1679C1152.04 78.1977 1152.31 77.321 1152.69 76.7712C1153.08 76.2188 1153.51 76.0201 1153.9 76.0175ZM1143.25 78.5992C1141.58 78.6104 1140.42 79.7039 1139.85 80.6616C1139.29 81.6193 1138.94 82.4149 1138.61 82.7485C1138.42 82.9468 1137.21 83.4106 1135.95 84.0629C1135.32 84.3897 1134.69 84.8245 1134.16 85.487C1133.62 86.1496 1133.26 87.062 1133.27 88.0824C1133.29 90.4922 1135.28 92.4621 1137.69 92.4459C1138.78 92.4387 1139.91 92.0796 1141.02 91.7584C1142.14 91.4296 1143.34 91.1505 1143.34 91.1505C1143.34 91.1505 1144.54 91.4135 1145.65 91.7249C1146.77 92.0312 1147.91 92.3751 1148.99 92.3678C1151.4 92.3517 1153.37 90.3553 1153.36 87.9454C1153.35 86.9488 1152.98 86.0401 1152.44 85.4035C1151.9 84.7632 1151.25 84.3697 1150.62 84.0412C1149.36 83.3844 1148.13 82.8655 1147.95 82.686C1147.64 82.3905 1147.3 81.5732 1146.72 80.6182C1146.13 79.6593 1144.93 78.5879 1143.25 78.5992ZM1143.27 81.1094C1144.1 81.1039 1144.19 81.3041 1144.57 81.9241C1144.95 82.5429 1145.24 83.5966 1146.15 84.503C1147.2 85.5252 1148.5 85.7424 1149.46 86.2431C1149.94 86.4934 1150.31 86.7609 1150.53 87.0205C1150.74 87.2788 1150.84 87.5154 1150.85 87.9597C1150.85 89.014 1150.03 89.848 1148.98 89.855C1148.61 89.8575 1147.44 89.5892 1146.34 89.2827C1145.25 88.98 1144.34 88.6308 1143.32 88.6377C1142.29 88.6446 1141.39 89.0058 1140.3 89.3231C1139.21 89.6442 1138.04 89.9282 1137.68 89.9307C1136.62 89.9377 1135.79 89.1149 1135.78 88.0606C1135.78 87.5547 1135.88 87.2942 1136.09 87.0368C1136.3 86.7806 1136.68 86.5257 1137.14 86.2854C1138.07 85.8022 1139.37 85.6052 1140.43 84.5375C1141.34 83.6063 1141.61 82.515 1141.98 81.8975C1142.34 81.2801 1142.43 81.11 1143.27 81.1044L1143.27 81.1094Z" fill="#BED6F4"/>
<path opacity="0.2" d="M1189.81 64.8221C1188.47 64.8311 1187.31 65.6021 1186.57 66.6488C1185.83 67.6955 1185.45 69.0437 1185.46 70.4996C1185.47 71.9556 1185.87 73.2997 1186.62 74.3365C1187.37 75.3733 1188.55 76.1273 1189.89 76.1183C1191.23 76.1093 1192.4 75.3384 1193.13 74.2916C1193.87 73.2449 1194.26 71.8968 1194.25 70.4408C1194.24 68.9848 1193.83 67.6407 1193.08 66.6039C1192.33 65.5672 1191.16 64.8131 1189.81 64.8221ZM1194.25 70.4408C1194.26 71.8968 1194.66 73.2409 1195.41 74.2777C1196.16 75.3144 1197.33 76.0685 1198.68 76.0595C1200.02 76.0505 1201.18 75.2795 1201.92 74.2328C1202.66 73.1861 1203.04 71.8379 1203.03 70.382C1203.02 68.926 1202.62 67.5819 1201.87 66.5451C1201.12 65.5083 1199.94 64.7543 1198.6 64.7633C1197.26 64.7723 1196.09 65.5432 1195.36 66.59C1194.62 67.6367 1194.24 68.9848 1194.25 70.4408ZM1189.83 67.3324C1190.22 67.3298 1190.66 67.5227 1191.05 68.0698C1191.45 68.6157 1191.73 69.4874 1191.73 70.4576C1191.74 71.4278 1191.47 72.3045 1191.09 72.8543C1190.7 73.4067 1190.26 73.6054 1189.87 73.608C1189.48 73.6107 1189.05 73.4178 1188.65 72.8706C1188.26 72.3248 1187.98 71.453 1187.97 70.4828C1187.96 69.5126 1188.23 68.6359 1188.62 68.0861C1189.01 67.5337 1189.44 67.335 1189.83 67.3324ZM1198.62 67.2736C1199.01 67.2709 1199.44 67.4638 1199.84 68.011C1200.23 68.5568 1200.52 69.4286 1200.52 70.3988C1200.53 71.369 1200.26 72.2457 1199.87 72.7955C1199.48 73.3479 1199.05 73.5466 1198.66 73.5492C1198.27 73.5518 1197.83 73.3589 1197.44 72.8118C1197.04 72.2659 1196.76 71.3942 1196.76 70.424C1196.75 69.4538 1197.02 68.5771 1197.41 68.0273C1197.8 67.4749 1198.23 67.2762 1198.62 67.2736ZM1183.6 73.6501C1182.25 73.6591 1181.09 74.43 1180.35 75.4767C1179.62 76.5235 1179.23 77.8716 1179.24 79.3276C1179.25 80.7835 1179.65 82.1276 1180.4 83.1644C1181.15 84.2012 1182.33 84.9552 1183.67 84.9462C1185.02 84.9373 1186.18 84.1663 1186.92 83.1196C1187.65 82.0728 1188.04 80.7247 1188.03 79.2687C1188.02 77.8128 1187.61 76.4687 1186.86 75.4319C1186.11 74.3951 1184.94 73.6411 1183.6 73.6501ZM1204.94 73.5072C1203.59 73.5162 1202.43 74.2871 1201.69 75.3339C1200.96 76.3806 1200.57 77.7288 1200.58 79.1847C1200.59 80.6407 1200.99 81.9848 1201.74 83.0216C1202.49 84.0583 1203.67 84.8124 1205.01 84.8034C1206.35 84.7944 1207.52 84.0234 1208.26 82.9767C1208.99 81.93 1209.38 80.5818 1209.37 79.1259C1209.36 77.6699 1208.95 76.3258 1208.2 75.289C1207.45 74.2522 1206.28 73.4982 1204.94 73.5072ZM1183.61 76.1603C1184.01 76.1577 1184.44 76.3506 1184.84 76.8977C1185.23 77.4436 1185.51 78.3153 1185.52 79.2856C1185.52 80.2558 1185.25 81.1324 1184.87 81.6823C1184.48 82.2347 1184.05 82.4334 1183.66 82.436C1183.26 82.4386 1182.83 82.2457 1182.43 81.6986C1182.04 81.154 1181.76 80.281 1181.75 79.3108C1181.75 78.3405 1182.02 77.4639 1182.4 76.914C1182.79 76.3616 1183.22 76.1629 1183.61 76.1603ZM1204.95 76.0175C1205.34 76.0148 1205.78 76.2077 1206.18 76.7549C1206.57 77.3007 1206.85 78.1725 1206.86 79.1427C1206.86 80.1129 1206.59 80.9896 1206.21 81.5394C1205.82 82.0918 1205.39 82.2905 1204.99 82.2931C1204.6 82.2957 1204.17 82.1028 1203.77 81.5557C1203.38 81.0098 1203.1 80.1381 1203.09 79.1679C1203.08 78.1977 1203.35 77.321 1203.74 76.7712C1204.13 76.2188 1204.56 76.0201 1204.95 76.0175ZM1194.3 78.5992C1192.63 78.6104 1191.47 79.7039 1190.9 80.6616C1190.34 81.6193 1189.99 82.4149 1189.66 82.7485C1189.47 82.9468 1188.26 83.4106 1187 84.0629C1186.37 84.3897 1185.74 84.8245 1185.21 85.487C1184.67 86.1496 1184.31 87.062 1184.32 88.0824C1184.34 90.4922 1186.33 92.4621 1188.74 92.4459C1189.83 92.4387 1190.96 92.0796 1192.07 91.7584C1193.18 91.4296 1194.38 91.1505 1194.38 91.1505C1194.38 91.1505 1195.59 91.4135 1196.7 91.7249C1197.82 92.0312 1198.95 92.3751 1200.04 92.3678C1202.45 92.3517 1204.42 90.3553 1204.4 87.9454C1204.4 86.9488 1204.02 86.0401 1203.48 85.4035C1202.95 84.7632 1202.3 84.3697 1201.67 84.0412C1200.41 83.3844 1199.18 82.8655 1199 82.686C1198.69 82.3905 1198.35 81.5732 1197.76 80.6182C1197.18 79.6593 1195.98 78.5879 1194.3 78.5992ZM1194.32 81.1094C1195.15 81.1039 1195.24 81.3041 1195.62 81.9241C1196 82.5429 1196.28 83.5966 1197.2 84.503C1198.24 85.5252 1199.55 85.7424 1200.51 86.2431C1200.99 86.4934 1201.35 86.7609 1201.57 87.0205C1201.79 87.2788 1201.89 87.5154 1201.89 87.9597C1201.9 89.014 1201.08 89.848 1200.02 89.855C1199.66 89.8575 1198.49 89.5892 1197.39 89.2827C1196.3 88.98 1195.39 88.6308 1194.37 88.6377C1193.34 88.6446 1192.44 89.0058 1191.35 89.3231C1190.26 89.6442 1189.09 89.9282 1188.73 89.9307C1187.67 89.9377 1186.84 89.1149 1186.83 88.0606C1186.83 87.5547 1186.93 87.2942 1187.14 87.0368C1187.35 86.7806 1187.73 86.5257 1188.19 86.2854C1189.12 85.8022 1190.42 85.6052 1191.48 84.5375C1192.39 83.6063 1192.66 82.515 1193.03 81.8975C1193.39 81.2801 1193.48 81.11 1194.32 81.1044L1194.32 81.1094Z" fill="#BED6F4"/>
<path opacity="0.2" d="M190.67 63.8211C189.326 63.8301 188.162 64.6011 187.426 65.6478C186.689 66.6946 186.304 68.0427 186.314 69.4987C186.324 70.9546 186.727 72.2987 187.477 73.3355C188.227 74.3723 189.402 75.1263 190.745 75.1173C192.088 75.1083 193.253 74.3374 193.989 73.2907C194.725 72.2439 195.111 70.8958 195.101 69.4398C195.091 67.9839 194.688 66.6398 193.938 65.603C193.188 64.5662 192.013 63.8122 190.67 63.8211ZM195.101 69.4398C195.111 70.8958 195.514 72.2399 196.264 73.2767C197.014 74.3135 198.19 75.0675 199.532 75.0585C200.875 75.0495 202.04 74.2786 202.776 73.2318C203.512 72.1851 203.897 70.837 203.887 69.381C203.878 67.925 203.475 66.5809 202.724 65.5441C201.974 64.5074 200.799 63.7533 199.456 63.7623C198.113 63.7713 196.948 64.5423 196.212 65.589C195.476 66.6357 195.091 67.9839 195.101 69.4398ZM190.686 66.3314C191.078 66.3288 191.511 66.5217 191.909 67.0688C192.302 67.6147 192.584 68.4864 192.59 69.4566C192.597 70.4268 192.326 71.3035 191.941 71.8534C191.551 72.4058 191.12 72.6044 190.728 72.6071C190.337 72.6097 189.904 72.4168 189.506 71.8697C189.113 71.3238 188.831 70.4521 188.825 69.4818C188.818 68.5116 189.088 67.635 189.474 67.0851C189.864 66.5327 190.295 66.334 190.686 66.3314ZM199.473 66.2726C199.865 66.27 200.298 66.4629 200.696 67.01C201.088 67.5559 201.37 68.4276 201.377 69.3978C201.383 70.368 201.113 71.2447 200.728 71.7945C200.337 72.3469 199.907 72.5456 199.515 72.5482C199.123 72.5509 198.69 72.358 198.293 71.8108C197.9 71.265 197.618 70.3932 197.611 69.423C197.605 68.4528 197.875 67.5761 198.261 67.0263C198.651 66.4739 199.081 66.2752 199.473 66.2726ZM184.452 72.6491C183.109 72.6581 181.944 73.429 181.208 74.4758C180.472 75.5225 180.087 76.8706 180.097 78.3266C180.106 79.7825 180.51 81.1267 181.26 82.1634C182.01 83.2002 183.185 83.9543 184.528 83.9453C185.871 83.9363 187.036 83.1653 187.772 82.1186C188.508 81.0719 188.893 79.7237 188.883 78.2678C188.874 76.8118 188.47 75.4677 187.72 74.4309C186.97 73.3941 185.795 72.6401 184.452 72.6491ZM205.791 72.5062C204.448 72.5152 203.283 73.2862 202.547 74.3329C201.811 75.3796 201.426 76.7278 201.436 78.1837C201.446 79.6397 201.849 80.9838 202.599 82.0206C203.349 83.0574 204.524 83.8114 205.867 83.8024C207.21 83.7934 208.375 83.0225 209.111 81.9757C209.847 80.929 210.232 79.5809 210.223 78.1249C210.213 76.6689 209.81 75.3248 209.06 74.288C208.309 73.2513 207.134 72.4972 205.791 72.5062ZM184.469 75.1594C184.861 75.1567 185.294 75.3496 185.692 75.8967C186.084 76.4426 186.366 77.3144 186.373 78.2846C186.379 79.2548 186.109 80.1315 185.724 80.6813C185.333 81.2337 184.903 81.4324 184.511 81.435C184.119 81.4376 183.686 81.2447 183.288 80.6976C182.896 80.153 182.614 79.28 182.607 78.3098C182.601 77.3396 182.871 76.4629 183.256 75.9131C183.647 75.3607 184.077 75.162 184.469 75.1594ZM205.808 75.0165C206.2 75.0139 206.633 75.2068 207.031 75.7539C207.424 76.2998 207.706 77.1715 207.712 78.1417C207.719 79.1119 207.448 79.9886 207.063 80.5384C206.672 81.0908 206.242 81.2895 205.85 81.2921C205.459 81.2948 205.025 81.1019 204.628 80.5547C204.235 80.0089 203.953 79.1371 203.946 78.1669C203.94 77.1967 204.21 76.32 204.596 75.7702C204.986 75.2178 205.417 75.0191 205.808 75.0165ZM195.155 77.5982C193.482 77.6094 192.322 78.7029 191.755 79.6606C191.191 80.6183 190.845 81.4139 190.513 81.7475C190.323 81.9459 189.114 82.4096 187.856 83.0619C187.227 83.3887 186.593 83.8235 186.062 84.486C185.526 85.1486 185.168 86.061 185.175 87.0814C185.191 89.4913 187.188 91.4611 189.598 91.445C190.685 91.4377 191.817 91.0787 192.926 90.7574C194.04 90.4287 195.239 90.1495 195.239 90.1495C195.239 90.1495 196.443 90.4126 197.558 90.7239C198.672 91.0302 199.809 91.3741 200.896 91.3668C203.306 91.3507 205.277 89.3543 205.26 86.9444C205.254 85.9479 204.88 85.0391 204.34 84.4026C203.802 83.7623 203.156 83.3687 202.528 83.0403C201.268 82.3835 200.031 81.8646 199.851 81.685C199.548 81.3896 199.204 80.5722 198.62 79.6172C198.037 78.6584 196.837 77.5869 195.155 77.5982ZM195.172 80.1084C196.001 80.1029 196.094 80.3031 196.471 80.9232C196.851 81.5419 197.14 82.5956 198.057 83.502C199.099 84.5243 200.409 84.7414 201.365 85.2421C201.844 85.4925 202.21 85.7599 202.43 86.0195C202.649 86.2778 202.747 86.5144 202.75 86.9587C202.757 88.013 201.934 88.847 200.88 88.854C200.516 88.8565 199.341 88.5882 198.247 88.2817C197.153 87.979 196.247 87.6299 195.223 87.6367C194.198 87.6436 193.297 88.0048 192.207 88.3222C191.117 88.6433 189.946 88.9272 189.582 88.9297C188.528 88.9367 187.694 88.1139 187.687 87.0596C187.684 86.5538 187.787 86.2932 187.994 86.0358C188.201 85.7796 188.583 85.5248 189.048 85.2844C189.979 84.8012 191.278 84.6042 192.332 83.5366C193.246 82.6054 193.515 81.5141 193.883 80.8965C194.246 80.2791 194.332 80.109 195.171 80.1034L195.172 80.1084Z" fill="#BED6F4"/>
<path opacity="0.4" d="M241.716 63.8211C240.373 63.8301 239.209 64.6011 238.472 65.6478C237.736 66.6946 237.351 68.0427 237.361 69.4987C237.371 70.9546 237.774 72.2987 238.524 73.3355C239.274 74.3723 240.449 75.1263 241.792 75.1173C243.135 75.1083 244.3 74.3374 245.036 73.2907C245.772 72.2439 246.157 70.8958 246.148 69.4398C246.138 67.9839 245.735 66.6398 244.985 65.603C244.235 64.5662 243.06 63.8122 241.716 63.8211ZM246.148 69.4398C246.157 70.8958 246.561 72.2399 247.311 73.2767C248.061 74.3135 249.237 75.0675 250.579 75.0585C251.922 75.0495 253.087 74.2786 253.823 73.2318C254.559 72.1851 254.944 70.837 254.934 69.381C254.925 67.925 254.521 66.5809 253.771 65.5441C253.021 64.5074 251.846 63.7533 250.503 63.7623C249.16 63.7713 247.995 64.5423 247.259 65.589C246.523 66.6357 246.138 67.9839 246.148 69.4398ZM241.733 66.3314C242.125 66.3288 242.558 66.5217 242.956 67.0688C243.349 67.6147 243.631 68.4864 243.637 69.4566C243.644 70.4268 243.373 71.3035 242.988 71.8534C242.597 72.4058 242.167 72.6044 241.775 72.6071C241.384 72.6097 240.951 72.4168 240.553 71.8697C240.16 71.3238 239.878 70.4521 239.871 69.4818C239.865 68.5116 240.135 67.635 240.521 67.0851C240.911 66.5327 241.342 66.334 241.733 66.3314ZM250.52 66.2726C250.912 66.27 251.345 66.4629 251.743 67.01C252.135 67.5559 252.417 68.4276 252.424 69.3978C252.43 70.368 252.16 71.2447 251.775 71.7945C251.384 72.3469 250.954 72.5456 250.562 72.5482C250.17 72.5509 249.737 72.358 249.339 71.8108C248.947 71.265 248.665 70.3932 248.658 69.423C248.652 68.4528 248.922 67.5761 249.307 67.0263C249.698 66.4739 250.128 66.2752 250.52 66.2726ZM235.499 72.6491C234.156 72.6581 232.991 73.429 232.255 74.4758C231.519 75.5225 231.134 76.8706 231.144 78.3266C231.153 79.7825 231.556 81.1267 232.307 82.1634C233.057 83.2002 234.232 83.9543 235.575 83.9453C236.918 83.9363 238.083 83.1653 238.819 82.1186C239.555 81.0719 239.94 79.7237 239.93 78.2678C239.92 76.8118 239.517 75.4677 238.767 74.4309C238.017 73.3941 236.842 72.6401 235.499 72.6491ZM256.838 72.5062C255.495 72.5152 254.33 73.2862 253.594 74.3329C252.858 75.3796 252.473 76.7278 252.483 78.1837C252.492 79.6397 252.896 80.9838 253.646 82.0206C254.396 83.0574 255.571 83.8114 256.914 83.8024C258.257 83.7934 259.422 83.0225 260.158 81.9757C260.894 80.929 261.279 79.5809 261.269 78.1249C261.26 76.6689 260.857 75.3248 260.106 74.288C259.356 73.2513 258.181 72.4972 256.838 72.5062ZM235.516 75.1594C235.908 75.1567 236.341 75.3496 236.738 75.8967C237.131 76.4426 237.413 77.3144 237.42 78.2846C237.426 79.2548 237.156 80.1315 236.77 80.6813C236.38 81.2337 235.95 81.4324 235.558 81.435C235.166 81.4376 234.733 81.2447 234.335 80.6976C233.943 80.153 233.66 79.28 233.654 78.3098C233.648 77.3396 233.918 76.4629 234.303 75.9131C234.694 75.3607 235.124 75.162 235.516 75.1594ZM256.855 75.0165C257.247 75.0139 257.68 75.2068 258.078 75.7539C258.47 76.2998 258.752 77.1715 258.759 78.1417C258.765 79.1119 258.495 79.9886 258.11 80.5384C257.719 81.0908 257.289 81.2895 256.897 81.2921C256.505 81.2948 256.072 81.1019 255.674 80.5547C255.282 80.0089 255 79.1371 254.993 78.1669C254.987 77.1967 255.257 76.32 255.642 75.7702C256.033 75.2178 256.463 75.0191 256.855 75.0165ZM246.202 77.5982C244.529 77.6094 243.369 78.7029 242.802 79.6606C242.238 80.6183 241.892 81.4139 241.56 81.7475C241.37 81.9459 240.161 82.4096 238.903 83.0619C238.274 83.3887 237.64 83.8235 237.109 84.486C236.573 85.1486 236.215 86.061 236.222 87.0814C236.238 89.4913 238.235 91.4611 240.645 91.445C241.732 91.4377 242.864 91.0787 243.973 90.7574C245.087 90.4287 246.286 90.1495 246.286 90.1495C246.286 90.1495 247.489 90.4126 248.605 90.7239C249.719 91.0302 250.856 91.3741 251.943 91.3668C254.353 91.3507 256.323 89.3543 256.307 86.9444C256.301 85.9479 255.927 85.0391 255.386 84.4026C254.849 83.7623 254.203 83.3687 253.575 83.0403C252.315 82.3835 251.078 81.8646 250.898 81.685C250.595 81.3896 250.25 80.5722 249.667 79.6172C249.084 78.6584 247.884 77.5869 246.202 77.5982ZM246.219 80.1084C247.048 80.1029 247.141 80.3031 247.517 80.9232C247.898 81.5419 248.186 82.5956 249.104 83.502C250.146 84.5243 251.456 84.7414 252.412 85.2421C252.891 85.4925 253.256 85.7599 253.477 86.0195C253.696 86.2778 253.794 86.5144 253.797 86.9587C253.804 88.013 252.981 88.847 251.926 88.854C251.562 88.8565 250.388 88.5882 249.294 88.2817C248.2 87.979 247.294 87.6299 246.269 87.6367C245.245 87.6436 244.344 88.0048 243.254 88.3222C242.164 88.6433 240.993 88.9272 240.629 88.9297C239.575 88.9367 238.741 88.1139 238.734 87.0596C238.73 86.5538 238.834 86.2932 239.041 86.0358C239.247 85.7796 239.63 85.5248 240.095 85.2844C241.026 84.8012 242.325 84.6042 243.379 83.5366C244.293 82.6054 244.561 81.5141 244.93 80.8965C245.293 80.2791 245.379 80.109 246.218 80.1034L246.219 80.1084Z" fill="#BED6F4"/>
<path opacity="0.6" d="M292.765 63.8211C291.422 63.8301 290.257 64.6011 289.521 65.6478C288.785 66.6946 288.4 68.0427 288.41 69.4987C288.419 70.9546 288.823 72.2987 289.573 73.3355C290.323 74.3723 291.498 75.1263 292.841 75.1173C294.184 75.1083 295.349 74.3374 296.085 73.2907C296.821 72.2439 297.206 70.8958 297.196 69.4398C297.187 67.9839 296.784 66.6398 296.033 65.603C295.283 64.5662 294.108 63.8122 292.765 63.8211ZM297.196 69.4398C297.206 70.8958 297.609 72.2399 298.359 73.2767C299.11 74.3135 300.286 75.0675 301.628 75.0585C302.971 75.0495 304.136 74.2786 304.872 73.2318C305.608 72.1851 305.993 70.837 305.983 69.381C305.973 67.925 305.57 66.5809 304.82 65.5441C304.07 64.5074 302.895 63.7533 301.552 63.7623C300.209 63.7713 299.044 64.5423 298.308 65.589C297.572 66.6357 297.187 67.9839 297.196 69.4398ZM292.782 66.3314C293.174 66.3288 293.607 66.5217 294.005 67.0688C294.397 67.6147 294.679 68.4864 294.686 69.4566C294.692 70.4268 294.422 71.3035 294.037 71.8534C293.646 72.4058 293.216 72.6044 292.824 72.6071C292.432 72.6097 291.999 72.4168 291.602 71.8697C291.209 71.3238 290.927 70.4521 290.92 69.4818C290.914 68.5116 291.184 67.635 291.57 67.0851C291.96 66.5327 292.39 66.334 292.782 66.3314ZM301.569 66.2726C301.96 66.27 302.394 66.4629 302.791 67.01C303.184 67.5559 303.466 68.4276 303.473 69.3978C303.479 70.368 303.209 71.2447 302.823 71.7945C302.433 72.3469 302.002 72.5456 301.611 72.5482C301.219 72.5509 300.786 72.358 300.388 71.8108C299.995 71.265 299.713 70.3932 299.707 69.423C299.7 68.4528 299.971 67.5761 300.356 67.0263C300.747 66.4739 301.177 66.2752 301.569 66.2726ZM286.548 72.6491C285.205 72.6581 284.04 73.429 283.304 74.4758C282.568 75.5225 282.183 76.8706 282.192 78.3266C282.202 79.7825 282.605 81.1267 283.355 82.1634C284.105 83.2002 285.28 83.9543 286.624 83.9453C287.967 83.9363 289.131 83.1653 289.868 82.1186C290.604 81.0719 290.989 79.7237 290.979 78.2678C290.969 76.8118 290.566 75.4677 289.816 74.4309C289.066 73.3941 287.891 72.6401 286.548 72.6491ZM307.887 72.5062C306.544 72.5152 305.379 73.2862 304.643 74.3329C303.907 75.3796 303.522 76.7278 303.532 78.1837C303.541 79.6397 303.944 80.9838 304.695 82.0206C305.445 83.0574 306.62 83.8114 307.963 83.8024C309.306 83.7934 310.471 83.0225 311.207 81.9757C311.943 80.929 312.328 79.5809 312.318 78.1249C312.308 76.6689 311.905 75.3248 311.155 74.288C310.405 73.2513 309.23 72.4972 307.887 72.5062ZM286.565 75.1594C286.956 75.1567 287.389 75.3496 287.787 75.8967C288.18 76.4426 288.462 77.3144 288.469 78.2846C288.475 79.2548 288.205 80.1315 287.819 80.6813C287.429 81.2337 286.998 81.4324 286.607 81.435C286.215 81.4376 285.782 81.2447 285.384 80.6976C284.991 80.153 284.709 79.28 284.703 78.3098C284.696 77.3396 284.967 76.4629 285.352 75.9131C285.743 75.3607 286.173 75.162 286.565 75.1594ZM307.904 75.0165C308.296 75.0139 308.729 75.2068 309.126 75.7539C309.519 76.2998 309.801 77.1715 309.808 78.1417C309.814 79.1119 309.544 79.9886 309.158 80.5384C308.768 81.0908 308.338 81.2895 307.946 81.2921C307.554 81.2948 307.121 81.1019 306.723 80.5547C306.331 80.0089 306.049 79.1371 306.042 78.1669C306.036 77.1967 306.306 76.32 306.691 75.7702C307.082 75.2178 307.512 75.0191 307.904 75.0165ZM297.251 77.5982C295.578 77.6094 294.418 78.7029 293.85 79.6606C293.287 80.6183 292.941 81.4139 292.609 81.7475C292.418 81.9459 291.21 82.4096 289.952 83.0619C289.322 83.3887 288.689 83.8235 288.157 84.486C287.622 85.1486 287.264 86.061 287.271 87.0814C287.287 89.4913 289.284 91.4611 291.694 91.445C292.781 91.4377 293.913 91.0787 295.022 90.7574C296.136 90.4287 297.335 90.1495 297.335 90.1495C297.335 90.1495 298.538 90.4126 299.654 90.7239C300.768 91.0302 301.905 91.3741 302.992 91.3668C305.402 91.3507 307.372 89.3543 307.356 86.9444C307.349 85.9479 306.976 85.0391 306.435 84.4026C305.897 83.7623 305.252 83.3687 304.624 83.0403C303.364 82.3835 302.126 81.8646 301.947 81.685C301.644 81.3896 301.299 80.5722 300.715 79.6172C300.133 78.6584 298.933 77.5869 297.251 77.5982ZM297.268 80.1084C298.096 80.1029 298.189 80.3031 298.566 80.9232C298.947 81.5419 299.235 82.5956 300.153 83.502C301.195 84.5243 302.505 84.7414 303.461 85.2421C303.939 85.4925 304.305 85.7599 304.525 86.0195C304.744 86.2778 304.843 86.5144 304.846 86.9587C304.853 88.013 304.03 88.847 302.975 88.854C302.611 88.8565 301.437 88.5882 300.343 88.2817C299.249 87.979 298.343 87.6299 297.318 87.6367C296.294 87.6436 295.393 88.0048 294.303 88.3222C293.213 88.6433 292.042 88.9272 291.678 88.9297C290.624 88.9367 289.79 88.1139 289.783 87.0596C289.779 86.5538 289.883 86.2932 290.09 86.0358C290.296 85.7796 290.679 85.5248 291.144 85.2844C292.075 84.8012 293.374 84.6042 294.428 83.5366C295.341 82.6054 295.61 81.5141 295.979 80.8965C296.341 80.2791 296.428 80.109 297.267 80.1034L297.268 80.1084Z" fill="#BED6F4"/>
<path opacity="0.8" d="M343.814 63.8211C342.471 63.8301 341.306 64.6011 340.57 65.6478C339.834 66.6946 339.449 68.0427 339.459 69.4987C339.468 70.9546 339.871 72.2987 340.622 73.3355C341.372 74.3723 342.547 75.1263 343.89 75.1173C345.233 75.1083 346.398 74.3374 347.134 73.2907C347.87 72.2439 348.255 70.8958 348.245 69.4398C348.236 67.9839 347.832 66.6398 347.082 65.603C346.332 64.5662 345.157 63.8122 343.814 63.8211ZM348.245 69.4398C348.255 70.8958 348.658 72.2399 349.408 73.2767C350.158 74.3135 351.335 75.0675 352.676 75.0585C354.02 75.0495 355.184 74.2786 355.92 73.2318C356.657 72.1851 357.042 70.837 357.032 69.381C357.022 67.925 356.619 66.5809 355.869 65.5441C355.119 64.5074 353.944 63.7533 352.601 63.7623C351.258 63.7713 350.093 64.5423 349.357 65.589C348.621 66.6357 348.236 67.9839 348.245 69.4398ZM343.831 66.3314C344.223 66.3288 344.656 66.5217 345.054 67.0688C345.446 67.6147 345.728 68.4864 345.735 69.4566C345.741 70.4268 345.471 71.3035 345.086 71.8534C344.695 72.4058 344.265 72.6044 343.873 72.6071C343.481 72.6097 343.048 72.4168 342.65 71.8697C342.258 71.3238 341.976 70.4521 341.969 69.4818C341.963 68.5116 342.233 67.635 342.618 67.0851C343.009 66.5327 343.439 66.334 343.831 66.3314ZM352.618 66.2726C353.009 66.27 353.442 66.4629 353.84 67.01C354.233 67.5559 354.515 68.4276 354.522 69.3978C354.528 70.368 354.258 71.2447 353.872 71.7945C353.482 72.3469 353.051 72.5456 352.66 72.5482C352.268 72.5509 351.835 72.358 351.437 71.8108C351.044 71.265 350.762 70.3932 350.756 69.423C350.749 68.4528 351.02 67.5761 351.405 67.0263C351.796 66.4739 352.226 66.2752 352.618 66.2726ZM337.597 72.6491C336.254 72.6581 335.089 73.429 334.353 74.4758C333.617 75.5225 333.231 76.8706 333.241 78.3266C333.251 79.7825 333.654 81.1267 334.404 82.1634C335.154 83.2002 336.329 83.9543 337.672 83.9453C339.015 83.9363 340.18 83.1653 340.916 82.1186C341.652 81.0719 342.038 79.7237 342.028 78.2678C342.018 76.8118 341.615 75.4677 340.865 74.4309C340.115 73.3941 338.94 72.6401 337.597 72.6491ZM358.936 72.5062C357.593 72.5152 356.428 73.2862 355.692 74.3329C354.956 75.3796 354.571 76.7278 354.58 78.1837C354.59 79.6397 354.993 80.9838 355.743 82.0206C356.493 83.0574 357.668 83.8114 359.012 83.8024C360.355 83.7934 361.519 83.0225 362.256 81.9757C362.992 80.929 363.377 79.5809 363.367 78.1249C363.357 76.6689 362.954 75.3248 362.204 74.288C361.454 73.2513 360.279 72.4972 358.936 72.5062ZM337.614 75.1594C338.005 75.1567 338.438 75.3496 338.836 75.8967C339.229 76.4426 339.511 77.3144 339.517 78.2846C339.524 79.2548 339.254 80.1315 338.868 80.6813C338.478 81.2337 338.047 81.4324 337.656 81.435C337.264 81.4376 336.831 81.2447 336.433 80.6976C336.04 80.153 335.758 79.28 335.752 78.3098C335.745 77.3396 336.015 76.4629 336.401 75.9131C336.791 75.3607 337.222 75.162 337.614 75.1594ZM358.953 75.0165C359.344 75.0139 359.777 75.2068 360.175 75.7539C360.568 76.2998 360.85 77.1715 360.857 78.1417C360.863 79.1119 360.593 79.9886 360.207 80.5384C359.817 81.0908 359.386 81.2895 358.995 81.2921C358.603 81.2948 358.17 81.1019 357.772 80.5547C357.379 80.0089 357.097 79.1371 357.091 78.1669C357.084 77.1967 357.355 76.32 357.74 75.7702C358.131 75.2178 358.561 75.0191 358.953 75.0165ZM348.3 77.5982C346.627 77.6094 345.467 78.7029 344.899 79.6606C344.336 80.6183 343.99 81.4139 343.658 81.7475C343.467 81.9459 342.259 82.4096 341.001 83.0619C340.371 83.3887 339.738 83.8235 339.206 84.486C338.671 85.1486 338.313 86.061 338.32 87.0814C338.336 89.4913 340.332 91.4611 342.743 91.445C343.83 91.4377 344.962 91.0787 346.071 90.7574C347.184 90.4287 348.384 90.1495 348.384 90.1495C348.384 90.1495 349.587 90.4126 350.703 90.7239C351.817 91.0302 352.954 91.3741 354.041 91.3668C356.451 91.3507 358.421 89.3543 358.405 86.9444C358.398 85.9479 358.024 85.0391 357.484 84.4026C356.946 83.7623 356.301 83.3687 355.672 83.0403C354.413 82.3835 353.175 81.8646 352.996 81.685C352.692 81.3896 352.348 80.5722 351.764 79.6172C351.182 78.6584 349.982 77.5869 348.3 77.5982ZM348.317 80.1084C349.145 80.1029 349.238 80.3031 349.615 80.9232C349.996 81.5419 350.284 82.5956 351.202 83.502C352.244 84.5243 353.553 84.7414 354.51 85.2421C354.988 85.4925 355.354 85.7599 355.574 86.0195C355.793 86.2778 355.891 86.5144 355.894 86.9587C355.901 88.013 355.079 88.847 354.024 88.854C353.66 88.8565 352.486 88.5882 351.392 88.2817C350.298 87.979 349.391 87.6299 348.367 87.6367C347.343 87.6436 346.441 88.0048 345.351 88.3222C344.261 88.6433 343.091 88.9272 342.727 88.9297C341.673 88.9367 340.839 88.1139 340.831 87.0596C340.828 86.5538 340.932 86.2932 341.138 86.0358C341.345 85.7796 341.728 85.5248 342.193 85.2844C343.124 84.8012 344.423 84.6042 345.476 83.5366C346.39 82.6054 346.659 81.5141 347.028 80.8965C347.39 80.2791 347.477 80.109 348.315 80.1034L348.317 80.1084Z" fill="#BED6F4"/>
</svg>
