<svg width="19" height="11" viewBox="0 0 19 11" fill="none" xmlns="http://www.w3.org/2000/svg">
<path d="M10.7408 0.394733C10.9605 0.168243 11.253 0.0430309 11.5564 0.0455162C11.8598 0.0480015 12.1505 0.177991 12.3671 0.408054C12.5836 0.638118 12.7092 0.950261 12.7172 1.27862C12.7252 1.60698 12.6151 1.92586 12.4101 2.168L6.1853 10.5952C6.07827 10.72 5.94908 10.8202 5.80547 10.8897C5.66186 10.9592 5.50677 10.9967 5.34949 10.9998C5.1922 11.003 5.03594 10.9718 4.89005 10.908C4.74416 10.8443 4.61164 10.7494 4.5004 10.629L0.372406 6.16037C0.257448 6.04441 0.165243 5.90458 0.101292 5.7492C0.0373412 5.59383 0.00295404 5.42611 0.000182095 5.25604C-0.00258985 5.08597 0.0263103 4.91704 0.0851584 4.75933C0.144007 4.60161 0.231597 4.45834 0.342705 4.33807C0.453813 4.21779 0.586161 4.12297 0.731855 4.05927C0.877549 3.99556 1.0336 3.96428 1.19071 3.96728C1.34781 3.97028 1.50275 4.0075 1.64628 4.07673C1.78981 4.14596 1.91898 4.24577 2.0261 4.37022L5.29293 7.90492L10.7096 0.431888L10.7408 0.394733ZM9.30548 9.07527L10.7408 10.629C10.852 10.7492 10.9844 10.8438 11.1301 10.9074C11.2759 10.971 11.432 11.0021 11.5891 10.9989C11.7462 10.9958 11.9011 10.9584 12.0445 10.8891C12.188 10.8197 12.3171 10.7198 12.4241 10.5952L18.652 2.168C18.7639 2.04843 18.8523 1.90568 18.9121 1.74828C18.9719 1.59088 19.0018 1.42205 18.9999 1.25188C18.9981 1.0817 18.9646 0.913676 18.9014 0.757827C18.8383 0.601977 18.7468 0.461503 18.6323 0.344794C18.5179 0.228084 18.3829 0.137532 18.2355 0.0785453C18.088 0.0195588 17.9311 -0.00665278 17.774 0.00147638C17.617 0.00960554 17.4631 0.0519091 17.3215 0.125859C17.1799 0.19981 17.0535 0.303891 16.9499 0.431888L11.5317 7.90492L10.7751 7.08415L9.30548 9.07527Z" fill="#42CE55"/>
</svg>
