<svg width="19" height="20" viewBox="0 0 19 20" fill="none" xmlns="http://www.w3.org/2000/svg">
<path d="M16.9643 0.69043H2.03571C1.49581 0.69043 0.978017 0.904906 0.596247 1.28668C0.214476 1.66845 0 2.18624 0 2.72614L0 17.6547C0 18.1946 0.214476 18.7124 0.596247 19.0942C0.978017 19.476 1.49581 19.6904 2.03571 19.6904H7.85658V13.2309H5.18471V10.1904H7.85658V7.87311C7.85658 5.23728 9.42578 3.78132 11.8292 3.78132C12.9802 3.78132 14.1838 3.98659 14.1838 3.98659V6.57364H12.8577C11.551 6.57364 11.1434 7.38454 11.1434 8.21621V10.1904H14.0604L13.5939 13.2309H11.1434V19.6904H16.9643C17.5042 19.6904 18.022 19.476 18.4038 19.0942C18.7855 18.7124 19 18.1946 19 17.6547V2.72614C19 2.18624 18.7855 1.66845 18.4038 1.28668C18.022 0.904906 17.5042 0.69043 16.9643 0.69043Z" fill="white"/>
</svg>
