<svg width="13" height="17" viewBox="0 0 13 17" fill="none" xmlns="http://www.w3.org/2000/svg">
<path d="M3.23993 0.775156L2.52293 0.991156C1.88451 1.18368 1.31437 1.55458 0.879622 2.06019C0.444873 2.56581 0.163608 3.18509 0.0689304 3.84516C-0.22807 5.91316 0.43593 8.33116 2.03693 11.1042C3.63393 13.8702 5.39193 15.6522 7.32693 16.4322C7.94866 16.6827 8.62926 16.7495 9.28783 16.6245C9.9464 16.4995 10.5552 16.1881 11.0419 15.7272L11.5839 15.2132C11.9359 14.8801 12.1549 14.4305 12.2004 13.9481C12.2458 13.4656 12.1145 12.9831 11.8309 12.5902L10.4749 10.7102C10.2916 10.4564 10.0334 10.2663 9.73666 10.1666C9.43987 10.0669 9.11931 10.0625 8.81993 10.1542L6.76893 10.7812L6.71593 10.7912C6.48993 10.8242 5.96793 10.3352 5.31793 9.20916C4.63793 8.03116 4.49793 7.34216 4.68493 7.16416L5.72793 6.19116C6.10934 5.83562 6.36988 5.3696 6.47301 4.85847C6.57613 4.34735 6.51665 3.81677 6.30293 3.34116L5.64093 1.87016C5.44187 1.4275 5.08863 1.07233 4.64706 0.870868C4.20549 0.669402 3.70573 0.635384 3.24093 0.775156H3.23993ZM4.72993 2.28016L5.38993 3.75116C5.51847 4.03639 5.55441 4.35472 5.49271 4.66143C5.43101 4.96814 5.27476 5.24782 5.04593 5.46116L3.99993 6.43516C3.33093 7.06916 3.55293 8.15116 4.45293 9.70916C5.29893 11.1752 6.07093 11.8992 6.90093 11.7732L7.02493 11.7472L9.11293 11.1102C9.21274 11.0795 9.31964 11.0809 9.41863 11.114C9.51763 11.1472 9.60376 11.2105 9.66493 11.2952L11.0209 13.1752C11.1629 13.3716 11.2287 13.6129 11.2061 13.8543C11.1835 14.0956 11.074 14.3205 10.8979 14.4872L10.3549 15.0012C10.0073 15.3302 9.57247 15.5525 9.10218 15.6416C8.63189 15.7308 8.14589 15.6831 7.70193 15.5042C6.00393 14.8202 4.39893 13.1932 2.90393 10.6042C1.40493 8.00916 0.797931 5.80216 1.05893 3.98716C1.12649 3.51559 1.32738 3.07314 1.63795 2.7119C1.94852 2.35067 2.35583 2.08568 2.81193 1.94816L3.52893 1.73216C3.76139 1.6623 4.01132 1.67939 4.23211 1.78021C4.4529 1.88104 4.62949 2.05874 4.72893 2.28016H4.72993Z" fill="#FFC24F"/>
</svg>
