<svg width="16" height="17" viewBox="0 0 16 17" fill="none" xmlns="http://www.w3.org/2000/svg">
<g clip-path="url(#clip0_0_58)">
<path d="M8 15.6904C6.14348 15.6904 4.36301 14.9529 3.05025 13.6402C1.7375 12.3274 1 10.5469 1 8.69043C1 6.83391 1.7375 5.05344 3.05025 3.74068C4.36301 2.42793 6.14348 1.69043 8 1.69043C9.85652 1.69043 11.637 2.42793 12.9497 3.74068C14.2625 5.05344 15 6.83391 15 8.69043C15 10.5469 14.2625 12.3274 12.9497 13.6402C11.637 14.9529 9.85652 15.6904 8 15.6904ZM8 16.6904C10.1217 16.6904 12.1566 15.8476 13.6569 14.3473C15.1571 12.847 16 10.8122 16 8.69043C16 6.5687 15.1571 4.53387 13.6569 3.03358C12.1566 1.53328 10.1217 0.69043 8 0.69043C5.87827 0.69043 3.84344 1.53328 2.34315 3.03358C0.842855 4.53387 0 6.5687 0 8.69043C0 10.8122 0.842855 12.847 2.34315 14.3473C3.84344 15.8476 5.87827 16.6904 8 16.6904Z" fill="#FFC24F"/>
<path d="M5.25412 6.47643C5.25275 6.50872 5.258 6.54096 5.26955 6.57115C5.2811 6.60134 5.2987 6.62884 5.32127 6.65198C5.34385 6.67511 5.37091 6.69339 5.40081 6.70567C5.43071 6.71796 5.4628 6.724 5.49512 6.72343H6.32012C6.45812 6.72343 6.56812 6.61043 6.58612 6.47343C6.67612 5.81743 7.12612 5.33943 7.92812 5.33943C8.61412 5.33943 9.24212 5.68243 9.24212 6.50743C9.24212 7.14243 8.86812 7.43443 8.27712 7.87843C7.60412 8.36743 7.07112 8.93843 7.10912 9.86543L7.11212 10.0824C7.11317 10.148 7.13997 10.2106 7.18674 10.2566C7.23351 10.3026 7.2965 10.3284 7.36212 10.3284H8.17312C8.23942 10.3284 8.30301 10.3021 8.3499 10.2552C8.39678 10.2083 8.42312 10.1447 8.42312 10.0784V9.97343C8.42312 9.25543 8.69612 9.04643 9.43312 8.48743C10.0421 8.02443 10.6771 7.51043 10.6771 6.43143C10.6771 4.92043 9.40112 4.19043 8.00412 4.19043C6.73712 4.19043 5.34912 4.78043 5.25412 6.47643ZM6.81112 12.2394C6.81112 12.7724 7.23612 13.1664 7.82112 13.1664C8.43012 13.1664 8.84912 12.7724 8.84912 12.2394C8.84912 11.6874 8.42912 11.2994 7.82012 11.2994C7.23612 11.2994 6.81112 11.6874 6.81112 12.2394Z" fill="#FFC24F"/>
</g>
<defs>
<clipPath id="clip0_0_58">
<rect width="16" height="16" fill="white" transform="translate(0 0.69043)"/>
</clipPath>
</defs>
</svg>
