<svg width="19" height="14" viewBox="0 0 19 14" fill="none" xmlns="http://www.w3.org/2000/svg">
<path d="M13.0504 7.21784L17.9201 2.84441V11.5414L13.0504 7.21784ZM6.77537 7.95848L8.48544 9.49295C8.75382 9.72864 9.10375 9.87104 9.48615 9.87104H9.4996H9.49881H9.5099C9.89308 9.87104 10.243 9.72782 10.5146 9.49049L10.5122 9.49213L12.2223 7.95766L17.4206 12.5725H1.57944L6.77537 7.95848ZM1.57232 1.80752H17.4301L9.81312 8.64592C9.72748 8.71594 9.62146 8.75401 9.51227 8.75395H9.50119H9.50198H9.4909C9.38132 8.75409 9.27495 8.71571 9.18926 8.6451L9.19005 8.64592L1.57232 1.80752ZM1.08067 2.84359L5.94962 7.21703L1.08067 11.5381V2.84359ZM18.1814 0.845922C17.9914 0.747716 17.7681 0.69043 17.5314 0.69043H1.47177C1.2423 0.690486 1.01599 0.745679 0.8107 0.851651L0.819409 0.847559C0.573645 0.972863 0.366674 1.16671 0.221877 1.40721C0.0770804 1.6477 0.000227494 1.92526 0 2.20853L0 12.1699C0.000419129 12.573 0.155531 12.9595 0.431302 13.2446C0.707073 13.5297 1.08098 13.69 1.47098 13.6904H17.529C17.919 13.69 18.2929 13.5297 18.5687 13.2446C18.8445 12.9595 18.9996 12.573 19 12.1699V2.20853C19 1.61356 18.6683 1.09798 18.1853 0.850014L18.1766 0.845922H18.1814Z" fill="#FFC24F"/>
</svg>
