<svg width="16" height="17" viewBox="0 0 16 17" fill="none" xmlns="http://www.w3.org/2000/svg">
<path d="M14 1.69043C14.2652 1.69043 14.5196 1.79579 14.7071 1.98332C14.8946 2.17086 15 2.42521 15 2.69043V10.6904C15 10.9556 14.8946 11.21 14.7071 11.3975C14.5196 11.5851 14.2652 11.6904 14 11.6904H11.5C11.1895 11.6904 10.8833 11.7627 10.6056 11.9016C10.3279 12.0404 10.0863 12.242 9.9 12.4904L8 15.0234L6.1 12.4904C5.91371 12.242 5.67214 12.0404 5.39443 11.9016C5.11672 11.7627 4.81049 11.6904 4.5 11.6904H2C1.73478 11.6904 1.48043 11.5851 1.29289 11.3975C1.10536 11.21 1 10.9556 1 10.6904V2.69043C1 2.42521 1.10536 2.17086 1.29289 1.98332C1.48043 1.79579 1.73478 1.69043 2 1.69043H14ZM2 0.69043C1.46957 0.69043 0.960859 0.901143 0.585786 1.27622C0.210714 1.65129 0 2.16 0 2.69043L0 10.6904C0 11.2209 0.210714 11.7296 0.585786 12.1046C0.960859 12.4797 1.46957 12.6904 2 12.6904H4.5C4.65525 12.6904 4.80836 12.7266 4.94721 12.796C5.08607 12.8654 5.20685 12.9662 5.3 13.0904L7.2 15.6234C7.29315 15.7476 7.41393 15.8484 7.55279 15.9179C7.69164 15.9873 7.84475 16.0234 8 16.0234C8.15524 16.0234 8.30836 15.9873 8.44721 15.9179C8.58607 15.8484 8.70685 15.7476 8.8 15.6234L10.7 13.0904C10.7931 12.9662 10.9139 12.8654 11.0528 12.796C11.1916 12.7266 11.3448 12.6904 11.5 12.6904H14C14.5304 12.6904 15.0391 12.4797 15.4142 12.1046C15.7893 11.7296 16 11.2209 16 10.6904V2.69043C16 2.16 15.7893 1.65129 15.4142 1.27622C15.0391 0.901143 14.5304 0.69043 14 0.69043H2Z" fill="#FFC24F"/>
<path d="M5 6.69043C5 6.95565 4.89464 7.21 4.70711 7.39754C4.51957 7.58507 4.26522 7.69043 4 7.69043C3.73478 7.69043 3.48043 7.58507 3.29289 7.39754C3.10536 7.21 3 6.95565 3 6.69043C3 6.42521 3.10536 6.17086 3.29289 5.98332C3.48043 5.79579 3.73478 5.69043 4 5.69043C4.26522 5.69043 4.51957 5.79579 4.70711 5.98332C4.89464 6.17086 5 6.42521 5 6.69043ZM9 6.69043C9 6.95565 8.89464 7.21 8.70711 7.39754C8.51957 7.58507 8.26522 7.69043 8 7.69043C7.73478 7.69043 7.48043 7.58507 7.29289 7.39754C7.10536 7.21 7 6.95565 7 6.69043C7 6.42521 7.10536 6.17086 7.29289 5.98332C7.48043 5.79579 7.73478 5.69043 8 5.69043C8.26522 5.69043 8.51957 5.79579 8.70711 5.98332C8.89464 6.17086 9 6.42521 9 6.69043ZM13 6.69043C13 6.95565 12.8946 7.21 12.7071 7.39754C12.5196 7.58507 12.2652 7.69043 12 7.69043C11.7348 7.69043 11.4804 7.58507 11.2929 7.39754C11.1054 7.21 11 6.95565 11 6.69043C11 6.42521 11.1054 6.17086 11.2929 5.98332C11.4804 5.79579 11.7348 5.69043 12 5.69043C12.2652 5.69043 12.5196 5.79579 12.7071 5.98332C12.8946 6.17086 13 6.42521 13 6.69043Z" fill="#FFC24F"/>
</svg>
