<svg width="73" height="23" viewBox="0 0 73 23" fill="none" xmlns="http://www.w3.org/2000/svg">
<path fill-rule="evenodd" clip-rule="evenodd" d="M10.0395 0.727299C9.54535 0.768086 8.73556 0.905916 8.2305 1.03517C7.03633 1.34078 5.97637 1.81115 4.92832 2.50053C4.26274 2.93832 3.79911 3.31421 3.23467 3.87367C1.46677 5.62595 0.394625 7.80603 0.0604762 10.3279C-0.0112527 10.8693 -0.0216088 12.327 0.042519 12.8566C0.452545 16.2438 2.19787 19.0935 4.97797 20.915C8.15409 22.996 12.2616 23.2675 15.7071 21.6243C17.9237 20.5671 19.6472 18.8646 20.7597 16.6332C21.3283 15.4929 21.6646 14.3839 21.8454 13.0537C21.9282 12.4445 21.9271 10.8634 21.8436 10.2623C21.5483 8.13798 20.76 6.30307 19.445 4.67946C19.0673 4.2131 18.2879 3.4413 17.8231 3.07329C17.0137 2.43245 15.9528 1.81893 15.0184 1.45129C13.4742 0.84375 11.7195 0.588583 10.0395 0.727299ZM31.2993 2.05344C29.4014 2.25889 27.7468 2.91231 26.2706 4.03941C25.8653 4.34883 25.0568 5.14875 24.7441 5.54972C24.151 6.31017 23.6341 7.22532 23.3018 8.10327C22.6695 9.77417 22.5165 11.8244 22.8883 13.6448C23.6324 17.2886 26.379 20.0699 30.0545 20.9017C31.5136 21.232 33.308 21.225 34.8674 20.8831C36.5967 20.5039 38.0427 19.697 39.4646 18.3181L39.9625 17.8352L38.647 16.5321L37.3315 15.2289L36.987 15.5206C36.0012 16.3554 35.2456 16.8143 34.4027 17.0901C33.2179 17.4779 31.8409 17.4901 30.7187 17.1226C30.3883 17.0144 29.7975 16.7262 29.4984 16.5272C28.3764 15.7807 27.5426 14.5746 27.1878 13.185C26.8861 12.0037 26.9281 10.6428 27.3008 9.51844C27.4435 9.08817 27.818 8.34622 28.0679 7.99864C29.23 6.38251 31.0405 5.57504 33.0419 5.78023C34.3927 5.91872 35.6131 6.48878 36.9088 7.58646L37.2075 7.83956L38.5139 6.34632L39.8203 4.85309L39.659 4.68948C39.5704 4.5995 39.3634 4.41362 39.1991 4.27642C37.5625 2.90981 35.8353 2.22375 33.5628 2.03778C32.9972 1.99151 31.7945 1.99982 31.2993 2.05344ZM64.7406 2.07055C62.5601 2.26155 60.8161 3.17516 59.8233 4.64662C59.1634 5.6246 58.859 6.85429 58.9593 8.13798C59.0212 8.93165 59.1471 9.46912 59.3958 10.0016C59.985 11.2635 61.1349 12.1003 63.2282 12.7905C63.7019 12.9466 64.0993 13.0594 65.2449 13.3626C68.0779 14.1125 68.8439 14.5738 68.9143 15.5726C68.9828 16.5438 68.3311 17.2013 67.0807 17.4221C66.6867 17.4916 65.7122 17.4936 65.2385 17.4259C63.7822 17.2175 62.5113 16.6647 61.1603 15.6521C60.5755 15.2138 60.6277 15.245 60.5813 15.3058C60.5596 15.3343 60.019 15.9744 59.3801 16.7283C58.7411 17.4821 58.2139 18.1113 58.2084 18.1263C58.1923 18.1705 59.0095 18.8036 59.4832 19.1138C60.9182 20.0535 62.5347 20.6707 64.2437 20.9315C67.5704 21.4391 70.4389 20.6274 71.8903 18.7678C72.1555 18.4281 72.2365 18.3012 72.4246 17.9306C72.7725 17.2453 72.961 16.4633 72.9946 15.5659C73.0732 13.4687 72.2938 12.0453 70.506 11.0209C69.6351 10.522 68.6558 10.1669 66.7488 9.6589C64.875 9.1597 64.1116 8.88299 63.6194 8.52447C63.2686 8.26898 63.1035 7.99135 63.0445 7.55792C62.9243 6.67407 63.4472 6.0108 64.4783 5.73924C64.7246 5.67442 64.8389 5.66575 65.4543 5.66529C66.0537 5.66486 66.2048 5.6755 66.533 5.74118C67.5847 5.95162 68.7519 6.45992 69.9151 7.21399C70.2244 7.41455 70.3007 7.45126 70.3343 7.41576C70.4187 7.32644 72.4081 4.43556 72.4081 4.40216C72.4081 4.38302 72.264 4.26164 72.088 4.13242C70.5814 3.02666 68.796 2.33856 66.865 2.11942C66.3035 2.05571 65.2 2.03033 64.7406 2.07055ZM41.5059 11.576V20.8227L46.5097 20.8121C51.0567 20.8024 51.5544 20.7962 51.9616 20.7436C53.9876 20.482 55.383 19.8663 56.321 18.8199C56.8184 18.2651 57.1322 17.6287 57.3102 16.8139C57.4135 16.341 57.4223 15.17 57.3264 14.6628C57.0261 13.0746 56.0784 12.0416 54.2079 11.2634L53.9151 11.1416L54.0752 11.05C54.8517 10.6059 55.5246 9.93367 55.8865 9.24048C56.1872 8.66447 56.3287 8.10678 56.3649 7.35593C56.4428 5.73941 55.7917 4.37842 54.5046 3.4676C53.7893 2.96137 52.8695 2.61261 51.7546 2.42477L51.3143 2.35058L46.4101 2.33997L41.5059 2.32933V11.576ZM12.4293 5.43403C14.9689 5.78249 17.1935 6.87659 19.0036 8.66742C19.8428 9.49782 20.602 10.5152 21.0486 11.4082L21.1736 11.6582L21.0306 11.9454C20.8236 12.361 20.4249 12.9943 20.0939 13.4334C18.2746 15.8467 15.6643 17.4377 12.7773 17.8929C10.8597 18.1953 8.77552 17.9939 7.03182 17.3379C5.48356 16.7554 4.17139 15.9105 2.98466 14.7319C2.40698 14.1582 2.01458 13.6927 1.61153 13.1029C1.21534 12.5232 0.778694 11.7616 0.77886 11.6506C0.778927 11.5775 1.20492 10.8361 1.49651 10.4016C2.3327 9.15559 3.41086 8.08474 4.67648 7.24325C6.24815 6.19825 7.92971 5.6001 9.85693 5.4005C10.4233 5.34185 11.8974 5.36106 12.4293 5.43403ZM10.305 5.87983C8.2547 6.13172 6.52056 7.35501 5.64152 9.16958C4.98112 10.5328 4.88377 12.0589 5.3646 13.5111C5.50344 13.9304 5.88273 14.6721 6.14671 15.0405C6.43379 15.4411 7.14517 16.1449 7.55005 16.4289C7.92938 16.695 8.68222 17.073 9.09427 17.2042C10.2327 17.5669 11.4147 17.5957 12.5545 17.2884C14.6279 16.7296 16.2511 15.0236 16.7088 12.9223C16.9485 11.8215 16.8587 10.601 16.4636 9.58816C15.7078 7.65106 13.9992 6.2682 11.934 5.92213C11.582 5.86315 10.64 5.83868 10.305 5.87983ZM50.2036 5.9108C51.0473 6.00646 51.7108 6.33913 52.0222 6.82267C52.2118 7.11711 52.2723 7.35744 52.2723 7.81569C52.2723 8.15699 52.2597 8.26218 52.1973 8.43965C51.9339 9.18961 51.2189 9.62445 50.0434 9.7497C49.8307 9.77236 48.9134 9.78609 47.6121 9.78609H45.5222V7.83211V5.87812L47.7212 5.87839C48.9377 5.87855 50.0468 5.89303 50.2036 5.9108ZM51.3309 13.2461C52.4625 13.4655 53.0864 13.9391 53.2725 14.72C53.3859 15.1959 53.3018 15.8546 53.0812 16.2173C52.9515 16.4306 52.6604 16.7048 52.4175 16.8422C52.1605 16.9877 51.7029 17.126 51.2751 17.1875C50.9567 17.2332 50.5213 17.2408 48.2131 17.2408H45.5222V15.2027V13.1645L48.2855 13.178C50.6909 13.1897 51.0853 13.1986 51.3309 13.2461Z" fill="white"/>
</svg>
