<svg width="10" height="16" viewBox="0 0 10 16" fill="none" xmlns="http://www.w3.org/2000/svg">
<path d="M1.875 0.69043C0.846875 0.69043 0 1.5373 0 2.56543V13.8154C0 14.8436 0.846875 15.6904 1.875 15.6904H8.125C9.15312 15.6904 10 14.8436 10 13.8154V2.56543C10 1.5373 9.15312 0.69043 8.125 0.69043H1.875ZM1.875 1.94043H8.125C8.47188 1.94043 8.75 2.21855 8.75 2.56543V13.8154C8.75 14.1623 8.47188 14.4404 8.125 14.4404H1.875C1.52813 14.4404 1.25 14.1623 1.25 13.8154V2.56543C1.25 2.21855 1.52813 1.94043 1.875 1.94043ZM5 12.5654C4.65625 12.5654 4.375 12.8467 4.375 13.1904C4.375 13.5342 4.65625 13.8154 5 13.8154C5.34375 13.8154 5.625 13.5342 5.625 13.1904C5.625 12.8467 5.34375 12.5654 5 12.5654Z" fill="#FFC24F"/>
</svg>
