<svg width="21" height="21" viewBox="0 0 21 21" fill="none" xmlns="http://www.w3.org/2000/svg">
<path d="M20.0993 6.3976C20.0885 5.58571 19.9365 4.7819 19.6501 4.02211C19.4018 3.38124 19.0225 2.79921 18.5365 2.31321C18.0505 1.82721 17.4685 1.44794 16.8276 1.19962C16.0776 0.91807 15.2853 0.765833 14.4843 0.749388C13.4531 0.703293 13.1261 0.69043 10.5084 0.69043C7.89061 0.69043 7.55509 0.69043 6.53136 0.749388C5.73077 0.765954 4.93878 0.918189 4.1891 1.19962C3.54813 1.44776 2.96601 1.82698 2.47999 2.313C1.99397 2.79902 1.61476 3.38114 1.36661 4.02211C1.0845 4.77156 0.932592 5.56372 0.917452 6.36437C0.871357 7.39667 0.857422 7.72362 0.857422 10.3414C0.857422 12.9591 0.857422 13.2936 0.917452 14.3184C0.933532 15.1202 1.08468 15.9113 1.36661 16.6628C1.61517 17.3036 1.99467 17.8854 2.48085 18.3713C2.96703 18.8571 3.54921 19.2361 4.19018 19.4842C4.9378 19.7771 5.72992 19.9402 6.53243 19.9666C7.56474 20.0127 7.89169 20.0266 10.5094 20.0266C13.1272 20.0266 13.4627 20.0266 14.4864 19.9666C15.2874 19.9508 16.0798 19.7989 16.8298 19.5174C17.4705 19.2688 18.0524 18.8894 18.5383 18.4035C19.0243 17.9175 19.4037 17.3356 19.6523 16.6949C19.9342 15.9446 20.0853 15.1534 20.1014 14.3505C20.1475 13.3193 20.1614 12.9924 20.1614 10.3735C20.1593 7.75578 20.1593 7.42347 20.0993 6.3976ZM10.5019 15.2917C7.76412 15.2917 5.54622 13.0738 5.54622 10.336C5.54622 7.5982 7.76412 5.3803 10.5019 5.3803C11.8163 5.3803 13.0768 5.90242 14.0062 6.83179C14.9355 7.76117 15.4576 9.02168 15.4576 10.336C15.4576 11.6504 14.9355 12.9109 14.0062 13.8402C13.0768 14.7696 11.8163 15.2917 10.5019 15.2917ZM15.6549 6.35257C15.5031 6.35271 15.3528 6.32292 15.2125 6.2649C15.0722 6.20687 14.9448 6.12176 14.8375 6.01443C14.7301 5.90709 14.645 5.77965 14.587 5.63938C14.529 5.49911 14.4992 5.34878 14.4993 5.19699C14.4993 5.04531 14.5292 4.89511 14.5872 4.75497C14.6453 4.61484 14.7304 4.4875 14.8376 4.38025C14.9449 4.27299 15.0722 4.18791 15.2123 4.12987C15.3525 4.07182 15.5027 4.04194 15.6544 4.04194C15.806 4.04194 15.9562 4.07182 16.0964 4.12987C16.2365 4.18791 16.3638 4.27299 16.4711 4.38025C16.5784 4.4875 16.6634 4.61484 16.7215 4.75497C16.7795 4.89511 16.8094 5.04531 16.8094 5.19699C16.8094 5.83588 16.2927 6.35257 15.6549 6.35257Z" fill="white"/>
<path d="M10.5004 13.5554C12.2782 13.5554 13.7195 12.1142 13.7195 10.3363C13.7195 8.55844 12.2782 7.11719 10.5004 7.11719C8.7225 7.11719 7.28125 8.55844 7.28125 10.3363C7.28125 12.1142 8.7225 13.5554 10.5004 13.5554Z" fill="white"/>
</svg>
