<svg width="23" height="23" viewBox="0 0 23 23" fill="none" xmlns="http://www.w3.org/2000/svg">
<path d="M22.194 7.04861C22.1816 6.11216 22.0063 5.18502 21.676 4.30867C21.3896 3.56947 20.9521 2.89814 20.3915 2.33758C19.831 1.77702 19.1596 1.33955 18.4204 1.05313C17.5554 0.728387 16.6414 0.552793 15.7176 0.533824C14.5281 0.480658 14.151 0.46582 11.1316 0.46582C8.11226 0.46582 7.72526 0.46582 6.54446 0.533824C5.62104 0.552932 4.70755 0.728524 3.84285 1.05313C3.10353 1.33935 2.4321 1.77675 1.87151 2.33733C1.31093 2.89792 0.873529 3.56935 0.587308 4.30867C0.261916 5.1731 0.0867029 6.0868 0.0692405 7.01028C0.0160737 8.20097 0 8.57808 0 11.5975C0 14.6168 -7.45058e-09 15.0026 0.0692405 16.1846C0.087787 17.1095 0.262125 18.022 0.587308 18.8887C0.87401 19.6278 1.31173 20.299 1.8725 20.8593C2.43328 21.4197 3.10477 21.8569 3.84408 22.143C4.70642 22.4808 5.62007 22.669 6.5457 22.6994C7.73639 22.7526 8.1135 22.7687 11.1329 22.7687C14.1523 22.7687 14.5393 22.7687 15.7201 22.6994C16.6439 22.6812 17.5579 22.5061 18.4229 22.1814C19.1619 21.8946 19.8331 21.457 20.3936 20.8965C20.9541 20.336 21.3917 19.6648 21.6785 18.9258C22.0036 18.0603 22.178 17.1478 22.1965 16.2217C22.2497 15.0323 22.2658 14.6552 22.2658 11.6346C22.2633 8.61518 22.2633 8.23188 22.194 7.04861ZM11.1242 17.3073C7.96637 17.3073 5.40818 14.7491 5.40818 11.5913C5.40818 8.43342 7.96637 5.87523 11.1242 5.87523C12.6402 5.87523 14.0941 6.47746 15.1661 7.54943C16.238 8.62139 16.8403 10.0753 16.8403 11.5913C16.8403 13.1073 16.238 14.5612 15.1661 15.6331C14.0941 16.7051 12.6402 17.3073 11.1242 17.3073ZM17.0678 6.99668C16.8927 6.99684 16.7193 6.96248 16.5575 6.89555C16.3957 6.82863 16.2487 6.73045 16.1249 6.60665C16.0011 6.48285 15.903 6.33585 15.836 6.17406C15.7691 6.01228 15.7347 5.83888 15.7349 5.6638C15.7349 5.48885 15.7694 5.31561 15.8363 5.15397C15.9033 4.99233 16.0014 4.84546 16.1251 4.72175C16.2488 4.59804 16.3957 4.49991 16.5573 4.43295C16.719 4.366 16.8922 4.33154 17.0672 4.33154C17.2421 4.33154 17.4154 4.366 17.577 4.43295C17.7386 4.49991 17.8855 4.59804 18.0092 4.72175C18.1329 4.84546 18.2311 4.99233 18.298 5.15397C18.365 5.31561 18.3994 5.48885 18.3994 5.6638C18.3994 6.40072 17.8035 6.99668 17.0678 6.99668Z" fill="#072D6F"/>
<path d="M11.1232 15.304C13.1738 15.304 14.8362 13.6416 14.8362 11.591C14.8362 9.54031 13.1738 7.87793 11.1232 7.87793C9.07253 7.87793 7.41016 9.54031 7.41016 11.591C7.41016 13.6416 9.07253 15.304 11.1232 15.304Z" fill="#072D6F"/>
</svg>
