<svg width="80" height="160" viewBox="0 0 80 160" fill="none" xmlns="http://www.w3.org/2000/svg">
<g clip-path="url(#clip0_0_277)">
<path d="M62.6328 65.7037C62.569 60.9091 61.6714 56.1622 59.9803 51.6753C58.5139 47.8906 56.2741 44.4534 53.404 41.5833C50.534 38.7133 47.0968 36.4735 43.3121 35.007C38.8829 33.3443 34.2036 32.4453 29.4736 32.3482C23.3836 32.076 21.4528 32 5.99368 32C-9.46545 32 -11.4469 32 -17.4926 32.3482C-22.2204 32.446 -26.8975 33.345 -31.3247 35.007C-35.11 36.4724 -38.5477 38.7119 -41.4179 41.5821C-44.2881 44.4523 -46.5276 47.89 -47.993 51.6753C-49.659 56.1011 -50.5561 60.7792 -50.6455 65.5074C-50.9177 71.6037 -51 73.5345 -51 88.9937C-51 104.453 -51 106.428 -50.6455 112.48C-50.5505 117.215 -49.6579 121.887 -47.993 126.325C-46.5251 130.109 -44.284 133.545 -41.4128 136.414C-38.5417 139.283 -35.1037 141.522 -31.3184 142.987C-26.9033 144.716 -22.2254 145.68 -17.4862 145.835C-11.3899 146.108 -9.45912 146.19 6.00001 146.19C21.4591 146.19 23.4406 146.19 29.4862 145.835C34.2161 145.742 38.8957 144.845 43.3247 143.183C47.1085 141.715 50.5448 139.474 53.4146 136.604C56.2844 133.735 58.5248 130.298 59.993 126.515C61.6579 122.083 62.5505 117.411 62.6455 112.67C62.9177 106.58 63 104.649 63 89.1836C62.9873 73.7245 62.9874 71.762 62.6328 65.7037ZM5.9557 118.228C-10.2125 118.228 -23.3103 105.13 -23.3103 88.962C-23.3103 72.7939 -10.2125 59.696 5.9557 59.696C13.7175 59.696 21.1614 62.7794 26.6499 68.2678C32.1383 73.7563 35.2217 81.2002 35.2217 88.962C35.2217 96.7238 32.1383 104.168 26.6499 109.656C21.1614 115.145 13.7175 118.228 5.9557 118.228ZM36.3865 65.4378C35.4901 65.4386 34.6023 65.2627 33.774 64.92C32.9456 64.5774 32.193 64.0747 31.5591 63.4409C30.9253 62.807 30.4226 62.0544 30.08 61.226C29.7373 60.3977 29.5614 59.5099 29.5622 58.6135C29.5622 57.7177 29.7386 56.8307 30.0814 56.0032C30.4242 55.1756 30.9267 54.4236 31.5601 53.7902C32.1935 53.1568 32.9454 52.6544 33.773 52.3116C34.6006 51.9688 35.4876 51.7924 36.3833 51.7924C37.2791 51.7924 38.1661 51.9688 38.9937 52.3116C39.8213 52.6544 40.5732 53.1568 41.2066 53.7902C41.84 54.4236 42.3425 55.1756 42.6852 56.0032C43.028 56.8307 43.2045 57.7177 43.2045 58.6135C43.2045 62.3865 40.1532 65.4378 36.3865 65.4378Z" fill="#E2ECFB"/>
<path d="M5.95196 107.971C16.4512 107.971 24.9625 99.46 24.9625 88.9607C24.9625 78.4615 16.4512 69.9502 5.95196 69.9502C-4.54728 69.9502 -13.0586 78.4615 -13.0586 88.9607C-13.0586 99.46 -4.54728 107.971 5.95196 107.971Z" fill="#E2ECFB"/>
</g>
<defs>
<clipPath id="clip0_0_277">
<rect width="80" height="160" fill="white"/>
</clipPath>
</defs>
</svg>
