<svg width="46" height="51" viewBox="0 0 46 51" fill="none" xmlns="http://www.w3.org/2000/svg">
<path fill-rule="evenodd" clip-rule="evenodd" d="M21.206 0.326657C22.3627 -0.106933 23.6373 -0.106933 24.794 0.326657L42.6829 7.03499C43.6573 7.40026 44.4971 8.05429 45.0898 8.90963C45.6826 9.76498 46.0001 10.7809 46 11.8215V25.527C46.0001 29.7984 44.8107 33.9855 42.5652 37.619C40.3196 41.2525 37.1066 44.1889 33.2861 46.0992L24.7148 50.3823C24.1824 50.6486 23.5953 50.7873 23 50.7873C22.4047 50.7873 21.8176 50.6486 21.2852 50.3823L12.7139 46.0967C8.89343 44.1864 5.68041 41.25 3.43484 37.6164C1.18928 33.9829 -9.11236e-05 29.7959 9.97081e-07 25.5244V11.8241C-0.000649136 10.783 0.316647 9.76653 0.909441 8.91068C1.50223 8.05483 2.34225 7.40042 3.31711 7.03499L21.206 0.326657ZM25.5556 24.699C26.5299 24.1364 27.2914 23.268 27.7219 22.2286C28.1524 21.1891 28.2279 20.0366 27.9367 18.9499C27.6455 17.8631 27.0039 16.9028 26.1113 16.2179C25.2187 15.533 24.1251 15.1617 23 15.1617C21.8749 15.1617 20.7813 15.533 19.8887 16.2179C18.9961 16.9028 18.3545 17.8631 18.0633 18.9499C17.7721 20.0366 17.8476 21.1891 18.2781 22.2286C18.7086 23.268 19.4701 24.1364 20.4444 24.699V33.0505C20.4444 33.7283 20.7137 34.3783 21.1929 34.8576C21.6722 35.3369 22.3222 35.6061 23 35.6061C23.6778 35.6061 24.3278 35.3369 24.8071 34.8576C25.2863 34.3783 25.5556 33.7283 25.5556 33.0505V24.699Z" fill="#5D6FFB"/>
</svg>
