<svg width="46" height="51" viewBox="0 0 46 51" fill="none" xmlns="http://www.w3.org/2000/svg">
<path fill-rule="evenodd" clip-rule="evenodd" d="M21.206 0.325192C22.3627 -0.108397 23.6373 -0.108397 24.794 0.325192L42.6829 7.03353C43.6574 7.3988 44.4971 8.05282 45.0899 8.90817C45.6826 9.76351 46.0002 10.7794 46 11.8201V25.5255C46.0001 29.7969 44.8108 33.984 42.5652 37.6175C40.3196 41.2511 37.1066 44.1875 33.2861 46.0978L24.7148 50.3809C24.1824 50.6471 23.5953 50.7858 23 50.7858C22.4048 50.7858 21.8177 50.6471 21.2853 50.3809L12.7139 46.0952C8.89346 44.1849 5.68044 41.2485 3.43487 37.615C1.18931 33.9815 -6.0606e-05 29.7944 3.15147e-05 25.523V11.8226C-0.000618618 10.7815 0.316678 9.76507 0.909472 8.90922C1.50227 8.05336 2.34228 7.39895 3.31714 7.03353L21.206 0.325192ZM25.5556 24.6975C26.5299 24.1349 27.2914 23.2666 27.7219 22.2271C28.1524 21.1877 28.228 20.0352 27.9368 18.9484C27.6456 17.8617 27.0039 16.9014 26.1113 16.2164C25.2188 15.5315 24.1251 15.1602 23 15.1602C21.8749 15.1602 20.7813 15.5315 19.8887 16.2164C18.9961 16.9014 18.3545 17.8617 18.0633 18.9484C17.7721 20.0352 17.8476 21.1877 18.2782 22.2271C18.7087 23.2666 19.4701 24.1349 20.4445 24.6975V33.0491C20.4445 33.7269 20.7137 34.3769 21.193 34.8561C21.6722 35.3354 22.3223 35.6046 23 35.6046C23.6778 35.6046 24.3278 35.3354 24.8071 34.8561C25.2863 34.3769 25.5556 33.7269 25.5556 33.0491V24.6975Z" fill="#234683"/>
</svg>
