<svg width="226" height="188" viewBox="0 0 226 188" fill="none" xmlns="http://www.w3.org/2000/svg">
<g opacity="0.3">
<mask id="mask0_0_1228" style="mask-type:alpha" maskUnits="userSpaceOnUse" x="23" y="-14" width="180" height="179">
<circle cx="113.077" cy="75.2953" r="89.1885" transform="rotate(-18.1175 113.077 75.2953)" fill="#C4C4C4"/>
</mask>
<g mask="url(#mask0_0_1228)">
<path d="M-8.70284 66.6666C-8.70284 66.6666 24.2855 48.6717 25.8968 22.9397C27.421 -1.72064 61.1961 -19.266 61.1961 -19.266" stroke="url(#paint0_linear_0_1228)" stroke-width="2.7" stroke-miterlimit="10"/>
<path d="M-5.1225 77.6094C-5.1225 77.6094 35.5037 56.0052 37.6104 24.8952C39.608 -4.79949 81.1716 -25.8018 81.1716 -25.8018" stroke="url(#paint1_linear_0_1228)" stroke-width="2.7" stroke-miterlimit="10"/>
<path d="M-1.53209 88.5829C-1.53209 88.5829 46.6914 63.3487 49.3135 26.9214C51.7851 -7.90862 101.147 -32.3376 101.147 -32.3376" stroke="url(#paint2_linear_0_1228)" stroke-width="2.7" stroke-miterlimit="10"/>
<path d="M2.04834 99.5259C2.04834 99.5259 57.9096 70.6823 61.0272 28.8769C63.9721 -10.9875 121.123 -38.8733 121.123 -38.8733" stroke="url(#paint3_linear_0_1228)" stroke-width="2.7" stroke-miterlimit="10"/>
<path d="M5.62876 110.469C5.62876 110.469 69.1277 78.0158 72.7507 30.8627C76.1589 -14.0663 141.068 -45.3992 141.068 -45.3992" stroke="url(#paint4_linear_0_1228)" stroke-width="2.7" stroke-miterlimit="10"/>
<path d="M9.21909 121.442C9.21909 121.442 80.3253 85.3896 84.4439 32.8584C88.3664 -17.1856 161.043 -51.9349 161.043 -51.9349" stroke="url(#paint5_linear_0_1228)" stroke-width="2.7" stroke-miterlimit="10"/>
<path d="M12.7995 132.385C12.7995 132.385 91.5335 92.6926 96.1675 34.8443C100.553 -20.2645 181.019 -58.4707 181.019 -58.4707" stroke="url(#paint6_linear_0_1228)" stroke-width="2.7" stroke-miterlimit="10"/>
<path d="M16.3799 143.328C16.3799 143.328 102.752 100.026 107.851 36.8098C112.74 -23.3433 200.995 -65.0065 200.995 -65.0065" stroke="url(#paint7_linear_0_1228)" stroke-width="2.7" stroke-miterlimit="10"/>
<path d="M19.9704 154.302C19.9704 154.302 113.949 107.4 119.584 38.8259C124.917 -26.4527 220.94 -71.5324 220.94 -71.5324" stroke="url(#paint8_linear_0_1228)" stroke-width="2.7" stroke-miterlimit="10"/>
<path d="M23.5505 165.244C23.5505 165.244 125.167 114.734 131.278 40.8218C137.104 -29.5315 240.915 -78.0682 240.915 -78.0682" stroke="url(#paint9_linear_0_1228)" stroke-width="2.7" stroke-miterlimit="10"/>
<path d="M27.1409 176.217C27.1409 176.217 136.385 122.067 143.001 42.8075C149.291 -32.6104 260.891 -84.6039 260.891 -84.6039" stroke="url(#paint10_linear_0_1228)" stroke-width="2.7" stroke-miterlimit="10"/>
<path d="M30.7216 187.161C30.7216 187.161 147.573 129.411 154.694 44.8035C161.468 -35.7195 280.866 -91.1395 280.866 -91.1395" stroke="url(#paint11_linear_0_1228)" stroke-width="2.7" stroke-miterlimit="10"/>
<path d="M34.3016 198.103C34.3016 198.103 158.791 136.744 166.408 46.7587C173.656 -38.7984 300.841 -97.6753 300.841 -97.6753" stroke="url(#paint12_linear_0_1228)" stroke-width="2.7" stroke-miterlimit="10"/>
<path d="M37.892 209.076C37.892 209.076 170.01 144.078 178.141 48.775C185.842 -41.8772 320.787 -104.201 320.787 -104.201" stroke="url(#paint13_linear_0_1228)" stroke-width="2.7" stroke-miterlimit="10"/>
<path d="M41.4727 220.02C41.4727 220.02 181.197 151.421 189.824 50.7404C198.02 -44.9866 340.763 -110.737 340.763 -110.737" stroke="url(#paint14_linear_0_1228)" stroke-width="2.7" stroke-miterlimit="10"/>
<path d="M45.0534 230.964C45.0534 230.964 192.415 158.755 201.548 52.7262C210.206 -48.0654 360.738 -117.273 360.738 -117.273" stroke="url(#paint15_linear_0_1228)" stroke-width="2.7" stroke-miterlimit="10"/>
<path d="M48.6438 241.938C48.6438 241.938 203.643 166.118 213.241 54.7222C222.393 -51.1442 380.714 -123.809 380.714 -123.809" stroke="url(#paint16_linear_0_1228)" stroke-width="2.7" stroke-miterlimit="10"/>
<path d="M52.2238 252.879C52.2238 252.879 214.821 173.432 224.965 56.7079C234.57 -54.2536 400.66 -130.335 400.66 -130.335" stroke="url(#paint17_linear_0_1228)" stroke-width="2.7" stroke-miterlimit="10"/>
</g>
</g>
<defs>
<linearGradient id="paint0_linear_0_1228" x1="16.9276" y1="-4.78184" x2="35.5657" y2="52.1825" gradientUnits="userSpaceOnUse">
<stop offset="0.40625" stop-color="#FFC24F"/>
<stop offset="1" stop-color="#6DEEFF"/>
</linearGradient>
<linearGradient id="paint1_linear_0_1228" x1="26.9153" y1="-8.04972" x2="49.1338" y2="59.8573" gradientUnits="userSpaceOnUse">
<stop offset="0.40625" stop-color="#FFC24F"/>
<stop offset="1" stop-color="#6DEEFF"/>
</linearGradient>
<linearGradient id="paint2_linear_0_1228" x1="36.9032" y1="-11.3176" x2="62.712" y2="67.5629" gradientUnits="userSpaceOnUse">
<stop offset="0.40625" stop-color="#FFC24F"/>
<stop offset="1" stop-color="#6DEEFF"/>
</linearGradient>
<linearGradient id="paint3_linear_0_1228" x1="46.8909" y1="-14.5855" x2="76.2802" y2="75.238" gradientUnits="userSpaceOnUse">
<stop offset="0.40625" stop-color="#FFC24F"/>
<stop offset="1" stop-color="#6DEEFF"/>
</linearGradient>
<linearGradient id="paint4_linear_0_1228" x1="56.8635" y1="-17.8484" x2="89.8332" y2="82.9181" gradientUnits="userSpaceOnUse">
<stop offset="0.40625" stop-color="#FFC24F"/>
<stop offset="1" stop-color="#6DEEFF"/>
</linearGradient>
<linearGradient id="paint5_linear_0_1228" x1="66.8513" y1="-21.1163" x2="103.411" y2="90.6235" gradientUnits="userSpaceOnUse">
<stop offset="0.40625" stop-color="#FFC24F"/>
<stop offset="1" stop-color="#6DEEFF"/>
</linearGradient>
<linearGradient id="paint6_linear_0_1228" x1="76.839" y1="-24.3842" x2="116.979" y2="98.2986" gradientUnits="userSpaceOnUse">
<stop offset="0.40625" stop-color="#FFC24F"/>
<stop offset="1" stop-color="#6DEEFF"/>
</linearGradient>
<linearGradient id="paint7_linear_0_1228" x1="86.8269" y1="-27.6521" x2="130.548" y2="105.974" gradientUnits="userSpaceOnUse">
<stop offset="0.40625" stop-color="#FFC24F"/>
<stop offset="1" stop-color="#6DEEFF"/>
</linearGradient>
<linearGradient id="paint8_linear_0_1228" x1="96.7995" y1="-30.915" x2="144.111" y2="113.684" gradientUnits="userSpaceOnUse">
<stop offset="0.40625" stop-color="#FFC24F"/>
<stop offset="1" stop-color="#6DEEFF"/>
</linearGradient>
<linearGradient id="paint9_linear_0_1228" x1="106.787" y1="-34.1829" x2="157.679" y2="121.358" gradientUnits="userSpaceOnUse">
<stop offset="0.40625" stop-color="#FFC24F"/>
<stop offset="1" stop-color="#6DEEFF"/>
</linearGradient>
<linearGradient id="paint10_linear_0_1228" x1="116.775" y1="-37.4508" x2="171.257" y2="129.064" gradientUnits="userSpaceOnUse">
<stop offset="0.40625" stop-color="#FFC24F"/>
<stop offset="1" stop-color="#6DEEFF"/>
</linearGradient>
<linearGradient id="paint11_linear_0_1228" x1="126.762" y1="-40.7186" x2="184.825" y2="136.74" gradientUnits="userSpaceOnUse">
<stop offset="0.40625" stop-color="#FFC24F"/>
<stop offset="1" stop-color="#6DEEFF"/>
</linearGradient>
<linearGradient id="paint12_linear_0_1228" x1="136.75" y1="-43.9865" x2="198.393" y2="144.414" gradientUnits="userSpaceOnUse">
<stop offset="0.40625" stop-color="#FFC24F"/>
<stop offset="1" stop-color="#6DEEFF"/>
</linearGradient>
<linearGradient id="paint13_linear_0_1228" x1="146.723" y1="-47.2495" x2="211.956" y2="152.124" gradientUnits="userSpaceOnUse">
<stop offset="0.40625" stop-color="#FFC24F"/>
<stop offset="1" stop-color="#6DEEFF"/>
</linearGradient>
<linearGradient id="paint14_linear_0_1228" x1="156.711" y1="-50.5174" x2="225.525" y2="159.8" gradientUnits="userSpaceOnUse">
<stop offset="0.40625" stop-color="#FFC24F"/>
<stop offset="1" stop-color="#6DEEFF"/>
</linearGradient>
<linearGradient id="paint15_linear_0_1228" x1="166.699" y1="-53.7853" x2="239.093" y2="167.476" gradientUnits="userSpaceOnUse">
<stop offset="0.40625" stop-color="#FFC24F"/>
<stop offset="1" stop-color="#6DEEFF"/>
</linearGradient>
<linearGradient id="paint16_linear_0_1228" x1="176.686" y1="-57.0531" x2="252.671" y2="175.182" gradientUnits="userSpaceOnUse">
<stop offset="0.40625" stop-color="#FFC24F"/>
<stop offset="1" stop-color="#6DEEFF"/>
</linearGradient>
<linearGradient id="paint17_linear_0_1228" x1="186.659" y1="-60.3162" x2="266.224" y2="182.861" gradientUnits="userSpaceOnUse">
<stop offset="0.40625" stop-color="#FFC24F"/>
<stop offset="1" stop-color="#6DEEFF"/>
</linearGradient>
</defs>
</svg>
