<svg width="24" height="22" viewBox="0 0 24 22" fill="none" xmlns="http://www.w3.org/2000/svg">
<path d="M8.3813 0.0911736C7.33214 0.0981977 6.42229 0.700419 5.84727 1.51806C5.27225 2.33571 4.9714 3.38879 4.97902 4.52609C4.98663 5.66339 5.30156 6.71333 5.88747 7.52321C6.47339 8.33308 7.39122 8.92208 8.44038 8.91506C9.48953 8.90803 10.3994 8.30581 10.9744 7.48817C11.5494 6.67052 11.8503 5.61744 11.8427 4.48014C11.835 3.34284 11.5201 2.2929 10.9342 1.48303C10.3483 0.673153 9.43046 0.0841495 8.3813 0.0911736ZM11.8427 4.48014C11.8503 5.61744 12.1652 6.66738 12.7511 7.47725C13.337 8.28713 14.2558 8.87612 15.304 8.86911C16.3532 8.86208 17.263 8.25986 17.8381 7.44222C18.4131 6.62457 18.7139 5.57149 18.7063 4.43419C18.6987 3.29689 18.3838 2.24694 17.7979 1.43707C17.2119 0.627201 16.2941 0.0381974 15.2449 0.0452215C14.1958 0.0522456 13.2859 0.654466 12.7109 1.47211C12.1359 2.28976 11.835 3.34284 11.8427 4.48014ZM8.39443 2.05204C8.70035 2.04999 9.03868 2.20068 9.34943 2.62805C9.65626 3.05446 9.87655 3.7354 9.88162 4.49327C9.8867 5.25114 9.67556 5.93595 9.37446 6.36545C9.06945 6.79694 8.73317 6.95215 8.42725 6.95419C8.12133 6.95624 7.783 6.80555 7.47225 6.37819C7.16542 5.95177 6.94513 5.27084 6.94006 4.51296C6.93498 3.75509 7.14612 3.07028 7.44722 2.64078C7.75223 2.20929 8.08851 2.05408 8.39443 2.05204ZM15.2581 2.00608C15.564 2.00404 15.9023 2.15473 16.2131 2.58209C16.5199 3.00851 16.7402 3.68944 16.7453 4.44732C16.7503 5.20519 16.5392 5.89 16.2381 6.3195C15.9331 6.75099 15.5968 6.90619 15.2909 6.90824C14.985 6.91029 14.6467 6.7596 14.3359 6.33223C14.0291 5.90582 13.8088 5.22488 13.8037 4.46701C13.7986 3.70914 14.0098 3.02433 14.3109 2.59483C14.6159 2.16334 14.9522 2.00813 15.2581 2.00608ZM3.52465 6.98702C2.47549 6.99404 1.56563 7.59626 0.990614 8.41391C0.415594 9.23155 0.114747 10.2846 0.122361 11.4219C0.129975 12.5592 0.444902 13.6092 1.03082 14.4191C1.61673 15.2289 2.53456 15.8179 3.58372 15.8109C4.63288 15.8039 5.54273 15.2017 6.11775 14.384C6.69277 13.5664 6.99362 12.5133 6.98601 11.376C6.97839 10.2387 6.66347 9.18874 6.07755 8.37887C5.49163 7.569 4.5738 6.97999 3.52465 6.98702ZM20.1935 6.87542C19.1443 6.88244 18.2345 7.48466 17.6595 8.30231C17.0844 9.11995 16.7836 10.173 16.7912 11.3103C16.7988 12.4476 17.1138 13.4976 17.6997 14.3075C18.2856 15.1173 19.2034 15.7063 20.2526 15.6993C21.3017 15.6923 22.2116 15.0901 22.7866 14.2724C23.3616 13.4548 23.6625 12.4017 23.6549 11.2644C23.6472 10.1271 23.3323 9.07714 22.7464 8.26727C22.1605 7.4574 21.2427 6.8684 20.1935 6.87542ZM3.53777 8.94788C3.8437 8.94583 4.18202 9.09652 4.49278 9.52389C4.79961 9.9503 5.01989 10.6312 5.02497 11.3891C5.03004 12.147 4.8189 12.8318 4.5178 13.2613C4.21279 13.6928 3.87652 13.848 3.57059 13.85C3.26467 13.8521 2.92635 13.7014 2.61559 13.274C2.30877 12.8486 2.08848 12.1667 2.0834 11.4088C2.07833 10.6509 2.28947 9.96613 2.59057 9.53663C2.89558 9.10513 3.23185 8.94993 3.53777 8.94788ZM20.2066 8.83628C20.5125 8.83423 20.8509 8.98492 21.1616 9.41229C21.4685 9.83871 21.6887 10.5196 21.6938 11.2775C21.6989 12.0354 21.4878 12.7202 21.1867 13.1497C20.8816 13.5812 20.5454 13.7364 20.2394 13.7384C19.9335 13.7405 19.5952 13.5898 19.2844 13.1624C18.9776 12.736 18.7573 12.0551 18.7523 11.2972C18.7472 10.5393 18.9583 9.85453 19.2594 9.42503C19.5644 8.99354 19.9007 8.83833 20.2066 8.83628ZM11.8853 10.8529C10.5783 10.8617 9.67209 11.7159 9.22898 12.464C8.78881 13.2121 8.51841 13.8336 8.25933 14.0942C8.11034 14.2491 7.16652 14.6113 6.18348 15.1209C5.69197 15.3762 5.19709 15.7158 4.78186 16.2333C4.36368 16.7509 4.08409 17.4636 4.08942 18.2607C4.10203 20.1431 5.66162 21.6818 7.54422 21.6692C8.39335 21.6635 9.27791 21.3831 10.144 21.1321C11.014 20.8753 11.951 20.6573 11.951 20.6573C11.951 20.6573 12.8907 20.8628 13.7621 21.106C14.6325 21.3452 15.5207 21.6138 16.3699 21.6082C18.2525 21.5955 19.7913 20.0361 19.7787 18.1537C19.7735 17.3752 19.4815 16.6653 19.0594 16.1681C18.6393 15.6679 18.1352 15.3605 17.6442 15.104C16.6602 14.5909 15.6936 14.1856 15.5534 14.0453C15.3165 13.8145 15.0475 13.1761 14.5915 12.4301C14.1364 11.6811 13.1992 10.8441 11.8853 10.8529ZM11.8985 12.8138C12.5456 12.8095 12.6182 12.9659 12.9127 13.4502C13.2101 13.9336 13.4353 14.7566 14.1519 15.4646C14.9662 16.2632 15.9891 16.4328 16.736 16.8239C17.1099 17.0195 17.3956 17.2284 17.5676 17.4312C17.7386 17.633 17.8153 17.8178 17.8177 18.1648C17.8232 18.9884 17.1804 19.6398 16.3567 19.6453C16.0724 19.6472 15.1551 19.4377 14.3004 19.1983C13.4458 18.9618 12.7379 18.6891 11.9378 18.6944C11.1377 18.6998 10.4336 18.982 9.58217 19.2299C8.73076 19.4807 7.8164 19.7025 7.53205 19.7044C6.70841 19.7099 6.05693 19.0672 6.05142 18.2436C6.04878 17.8485 6.12978 17.645 6.29121 17.4439C6.45264 17.2438 6.75136 17.0447 7.11487 16.857C7.84189 16.4795 8.85672 16.3256 9.67972 15.4916C10.3936 14.7642 10.6036 13.9118 10.8916 13.4294C11.1747 12.9471 11.2425 12.8143 11.8974 12.8099L11.8985 12.8138Z" fill="#234683"/>
</svg>
