<svg width="32" height="29" viewBox="0 0 32 29" fill="none" xmlns="http://www.w3.org/2000/svg">
<path d="M11.1015 0.135621C9.70401 0.144977 8.49208 0.947138 7.72615 2.03624C6.96023 3.12535 6.5595 4.52806 6.56964 6.04295C6.57978 7.55784 6.99926 8.95637 7.77971 10.0351C8.56015 11.1139 9.7827 11.8984 11.1802 11.8891C12.5777 11.8797 13.7896 11.0776 14.5555 9.98846C15.3215 8.89935 15.7222 7.49664 15.712 5.98175C15.7019 4.46686 15.2824 3.06833 14.502 1.98957C13.7215 0.910821 12.499 0.126265 11.1015 0.135621ZM15.712 5.98175C15.7222 7.49664 16.1417 8.89516 16.9221 9.97392C17.7026 11.0527 18.9264 11.8372 20.3226 11.8279C21.7201 11.8185 22.932 11.0164 23.6979 9.92725C24.4639 8.83814 24.8646 7.43543 24.8545 5.92054C24.8443 4.40565 24.4248 3.00712 23.6444 1.92837C22.8639 0.849612 21.6414 0.0650565 20.2439 0.0744126C18.8464 0.0837688 17.6345 0.88593 16.8686 1.97504C16.1026 3.06414 15.7019 4.46686 15.712 5.98175ZM11.119 2.7475C11.5265 2.74477 11.9771 2.94549 12.3911 3.51475C12.7998 4.08273 13.0932 4.98974 13.0999 5.99923C13.1067 7.00873 12.8254 7.92089 12.4244 8.49299C12.0181 9.06774 11.5702 9.27447 11.1627 9.2772C10.7552 9.27993 10.3046 9.07921 9.89063 8.50995C9.48193 7.94197 9.18851 7.03496 9.18175 6.02547C9.175 5.01597 9.45623 4.10381 9.8573 3.53171C10.2636 2.95696 10.7115 2.75023 11.119 2.7475ZM20.2614 2.68629C20.6689 2.68356 21.1195 2.88428 21.5335 3.45354C21.9422 4.02152 22.2356 4.92853 22.2423 5.93803C22.2491 6.94752 21.9679 7.85968 21.5668 8.43178C21.1605 9.00653 20.7126 9.21326 20.3051 9.21599C19.8976 9.21872 19.447 9.018 19.033 8.44874C18.6243 7.88076 18.3309 6.97375 18.3242 5.96426C18.3174 4.95477 18.5986 4.0426 18.9997 3.4705C19.406 2.89575 19.8539 2.68902 20.2614 2.68629ZM4.63241 9.32092C3.23493 9.33027 2.02299 10.1324 1.25706 11.2215C0.491135 12.3106 0.0904054 13.7134 0.100548 15.2283C0.11069 16.7431 0.530174 18.1417 1.31062 19.2204C2.09106 20.2992 3.31361 21.0837 4.7111 21.0744C6.10858 21.065 7.32051 20.2629 8.08644 19.1738C8.85237 18.0846 9.2531 16.6819 9.24296 15.167C9.23282 13.6522 8.81333 12.2536 8.03289 11.1749C7.25244 10.0961 6.02989 9.31156 4.63241 9.32092ZM26.8354 9.17227C25.4379 9.18163 24.226 9.98379 23.4601 11.0729C22.6941 12.162 22.2934 13.5647 22.3035 15.0796C22.3137 16.5945 22.7332 17.993 23.5136 19.0718C24.2941 20.1505 25.5166 20.9351 26.9141 20.9257C28.3116 20.9164 29.5235 20.1142 30.2894 19.0251C31.0554 17.936 31.4561 16.5333 31.446 15.0184C31.4358 13.5035 31.0163 12.105 30.2359 11.0262C29.4554 9.94747 28.2329 9.16291 26.8354 9.17227ZM4.64989 11.9328C5.05738 11.9301 5.50803 12.1308 5.92196 12.7C6.33066 13.268 6.62408 14.175 6.63084 15.1845C6.6376 16.194 6.35636 17.1062 5.95529 17.6783C5.54902 18.253 5.1011 18.4598 4.69361 18.4625C4.28612 18.4652 3.83547 18.2645 3.42154 17.6952C3.01285 17.1286 2.71942 16.2203 2.71266 15.2108C2.70591 14.2013 2.98715 13.2891 3.38821 12.717C3.79448 12.1423 4.2424 11.9355 4.64989 11.9328ZM26.8529 11.7841C27.2604 11.7814 27.711 11.9821 28.125 12.5514C28.5337 13.1194 28.8271 14.0264 28.8338 15.0359C28.8406 16.0454 28.5594 16.9575 28.1583 17.5296C27.752 18.1044 27.3041 18.3111 26.8966 18.3138C26.4891 18.3166 26.0385 18.1159 25.6245 17.5466C25.2158 16.9786 24.9224 16.0716 24.9157 15.0621C24.9089 14.0526 25.1901 13.1405 25.5912 12.5684C25.9975 11.9936 26.4454 11.7869 26.8529 11.7841ZM15.7689 14.4704C14.0279 14.482 12.8208 15.6198 12.2306 16.6163C11.6443 17.6128 11.2841 18.4406 10.939 18.7877C10.7406 18.994 9.4834 19.4765 8.17399 20.1553C7.51929 20.4953 6.86012 20.9477 6.30702 21.637C5.75001 22.3264 5.37759 23.2757 5.3847 24.3375C5.40148 26.8449 7.47887 28.8944 9.9865 28.8777C11.1175 28.8701 12.2958 28.4965 13.4495 28.1623C14.6083 27.8202 15.8563 27.5298 15.8563 27.5298C15.8563 27.5298 17.1081 27.8035 18.2688 28.1274C19.4281 28.4462 20.6113 28.8039 21.7423 28.7963C24.2499 28.7796 26.2997 26.7024 26.2829 24.1949C26.276 23.158 25.887 22.2125 25.3248 21.5502C24.7653 20.884 24.0938 20.4745 23.4397 20.1327C22.129 19.4493 20.8415 18.9094 20.6548 18.7226C20.3393 18.4152 19.9809 17.5648 19.3735 16.5711C18.7673 15.5734 17.519 14.4586 15.7689 14.4704ZM15.7864 17.0822C16.6484 17.0765 16.7451 17.2848 17.1373 17.9299C17.5335 18.5737 17.8334 19.6701 18.788 20.6131C19.8726 21.6768 21.2351 21.9028 22.2299 22.4237C22.728 22.6842 23.1086 22.9624 23.3377 23.2326C23.5655 23.5014 23.6677 23.7475 23.6708 24.2098C23.6781 25.3068 22.8219 26.1745 21.7248 26.1818C21.3461 26.1844 20.1243 25.9052 18.9858 25.5864C17.8474 25.2714 16.9045 24.9081 15.8388 24.9153C14.7731 24.9224 13.8352 25.2983 12.7011 25.6284C11.567 25.9625 10.349 26.258 9.97029 26.2605C8.8732 26.2679 8.00543 25.4117 7.99808 24.3148C7.99456 23.7885 8.10246 23.5174 8.31748 23.2495C8.53251 22.983 8.93041 22.7178 9.41461 22.4677C10.383 21.965 11.7348 21.76 12.831 20.6491C13.7819 19.6802 14.0616 18.5447 14.4452 17.9022C14.8223 17.2598 14.9126 17.0829 15.785 17.077L15.7864 17.0822Z" fill="#FFC24F"/>
</svg>
