<svg width="1236" height="29" viewBox="0 0 1236 29" fill="none" xmlns="http://www.w3.org/2000/svg">
<path d="M1062.67 1.13291C1061.33 1.1419 1060.16 1.91286 1059.43 2.95959C1058.69 4.00633 1058.3 5.35447 1058.31 6.81042C1058.32 8.26637 1058.73 9.61049 1059.48 10.6473C1060.23 11.6841 1061.4 12.4381 1062.75 12.4291C1064.09 12.4201 1065.25 11.6492 1065.99 10.6024C1066.73 9.55569 1067.11 8.20755 1067.1 6.75159C1067.09 5.29564 1066.69 3.95152 1065.94 2.91474C1065.19 1.87795 1064.01 1.12392 1062.67 1.13291ZM1067.1 6.75159C1067.11 8.20755 1067.51 9.55166 1068.26 10.5884C1069.01 11.6252 1070.19 12.3793 1071.53 12.3703C1072.88 12.3613 1074.04 11.5903 1074.78 10.5436C1075.51 9.49686 1075.9 8.14872 1075.89 6.69277C1075.88 5.23681 1075.47 3.89269 1074.72 2.85591C1073.97 1.81913 1072.8 1.06509 1071.46 1.07409C1070.11 1.08308 1068.95 1.85403 1068.21 2.90077C1067.48 3.9475 1067.09 5.29564 1067.1 6.75159ZM1062.69 3.64318C1063.08 3.64055 1063.51 3.83346 1063.91 4.38057C1064.3 4.92646 1064.58 5.79818 1064.59 6.7684C1064.6 7.73862 1064.33 8.61529 1063.94 9.16514C1063.55 9.71752 1063.12 9.91621 1062.73 9.91883C1062.34 9.92146 1061.9 9.72855 1061.51 9.18144C1061.11 8.63555 1060.83 7.76383 1060.82 6.79361C1060.82 5.82339 1061.09 4.94672 1061.47 4.39688C1061.86 3.84449 1062.29 3.6458 1062.69 3.64318ZM1071.47 3.58435C1071.86 3.58173 1072.3 3.77464 1072.7 4.32175C1073.09 4.86763 1073.37 5.73936 1073.38 6.70957C1073.38 7.67979 1073.11 8.55647 1072.73 9.10631C1072.34 9.65869 1071.91 9.85739 1071.52 9.86001C1071.12 9.86263 1070.69 9.66972 1070.29 9.12261C1069.9 8.57672 1069.62 7.705 1069.61 6.73478C1069.6 5.76457 1069.88 4.88789 1070.26 4.33805C1070.65 3.78566 1071.08 3.58697 1071.47 3.58435ZM1056.45 9.96085C1055.11 9.96985 1053.94 10.7408 1053.21 11.7875C1052.47 12.8343 1052.09 14.1824 1052.1 15.6384C1052.11 17.0943 1052.51 18.4384 1053.26 19.4752C1054.01 20.512 1055.18 21.266 1056.53 21.257C1057.87 21.248 1059.04 20.4771 1059.77 19.4304C1060.51 18.3836 1060.89 17.0355 1060.88 15.5795C1060.87 14.1236 1060.47 12.7795 1059.72 11.7427C1058.97 10.7059 1057.8 9.95186 1056.45 9.96085ZM1077.79 9.81799C1076.45 9.82698 1075.28 10.5979 1074.55 11.6447C1073.81 12.6914 1073.43 14.0395 1073.44 15.4955C1073.45 16.9514 1073.85 18.2956 1074.6 19.3323C1075.35 20.3691 1076.52 21.1232 1077.87 21.1142C1079.21 21.1052 1080.37 20.3342 1081.11 19.2875C1081.85 18.2408 1082.23 16.8926 1082.22 15.4367C1082.21 13.9807 1081.81 12.6366 1081.06 11.5998C1080.31 10.563 1079.13 9.809 1077.79 9.81799ZM1056.47 12.4711C1056.86 12.4685 1057.29 12.6614 1057.69 13.2085C1058.08 13.7544 1058.37 14.6261 1058.37 15.5963C1058.38 16.5666 1058.11 17.4432 1057.72 17.9931C1057.33 18.5455 1056.9 18.7442 1056.51 18.7468C1056.12 18.7494 1055.69 18.5565 1055.29 18.0094C1054.9 17.4647 1054.61 16.5918 1054.61 15.6216C1054.6 14.6513 1054.87 13.7747 1055.26 13.2248C1055.65 12.6724 1056.08 12.4737 1056.47 12.4711ZM1077.81 12.3283C1078.2 12.3256 1078.63 12.5185 1079.03 13.0656C1079.42 13.6115 1079.71 14.4833 1079.71 15.4535C1079.72 16.4237 1079.45 17.3004 1079.06 17.8502C1078.67 18.4026 1078.24 18.6013 1077.85 18.6039C1077.46 18.6065 1077.03 18.4136 1076.63 17.8665C1076.23 17.3206 1075.95 16.4489 1075.95 15.4787C1075.94 14.5085 1076.21 13.6318 1076.6 13.082C1076.99 12.5296 1077.42 12.3309 1077.81 12.3283ZM1067.16 14.9099C1065.48 14.9212 1064.32 16.0147 1063.75 16.9724C1063.19 17.9301 1062.85 18.7257 1062.51 19.0593C1062.32 19.2576 1061.11 19.7214 1059.86 20.3737C1059.23 20.7005 1058.59 21.1353 1058.06 21.7978C1057.53 22.4604 1057.17 23.3728 1057.18 24.3932C1057.19 26.803 1059.19 28.7729 1061.6 28.7567C1062.69 28.7495 1063.82 28.3904 1064.93 28.0692C1066.04 27.7404 1067.24 27.4613 1067.24 27.4613C1067.24 27.4613 1068.44 27.7243 1069.56 28.0357C1070.67 28.342 1071.81 28.6859 1072.9 28.6786C1075.31 28.6624 1077.28 26.6661 1077.26 24.2562C1077.25 23.2596 1076.88 22.3509 1076.34 21.7143C1075.8 21.074 1075.16 20.6805 1074.53 20.352C1073.27 19.6952 1072.03 19.1763 1071.85 18.9968C1071.55 18.7013 1071.2 17.884 1070.62 16.9289C1070.04 15.9701 1068.84 14.8987 1067.16 14.9099ZM1067.17 17.4202C1068 17.4147 1068.09 17.6149 1068.47 18.2349C1068.85 18.8537 1069.14 19.9074 1070.06 20.8138C1071.1 21.836 1072.41 22.0532 1073.37 22.5539C1073.84 22.8042 1074.21 23.0716 1074.43 23.3313C1074.65 23.5896 1074.75 23.8262 1074.75 24.2705C1074.76 25.3248 1073.93 26.1587 1072.88 26.1658C1072.52 26.1682 1071.34 25.9 1070.25 25.5935C1069.15 25.2908 1068.25 24.9416 1067.22 24.9485C1066.2 24.9553 1065.3 25.3166 1064.21 25.6339C1063.12 25.955 1061.95 26.239 1061.58 26.2414C1060.53 26.2485 1059.69 25.4257 1059.69 24.3713C1059.68 23.8655 1059.79 23.605 1059.99 23.3476C1060.2 23.0914 1060.58 22.8365 1061.05 22.5962C1061.98 22.113 1063.28 21.916 1064.33 20.8483C1065.25 19.9171 1065.51 18.8258 1065.88 18.2083C1066.25 17.5908 1066.33 17.4208 1067.17 17.4152L1067.17 17.4202Z" fill="#B8C4DA"/>
<path opacity="0.6" d="M1113.72 1.13291C1112.37 1.1419 1111.21 1.91286 1110.47 2.95959C1109.74 4.00633 1109.35 5.35447 1109.36 6.81042C1109.37 8.26637 1109.77 9.61049 1110.52 10.6473C1111.27 11.6841 1112.45 12.4381 1113.79 12.4291C1115.14 12.4201 1116.3 11.6492 1117.04 10.6024C1117.77 9.55569 1118.16 8.20755 1118.15 6.75159C1118.14 5.29564 1117.73 3.95152 1116.98 2.91474C1116.23 1.87795 1115.06 1.12392 1113.72 1.13291ZM1118.15 6.75159C1118.16 8.20755 1118.56 9.55166 1119.31 10.5884C1120.06 11.6252 1121.24 12.3793 1122.58 12.3703C1123.92 12.3613 1125.09 11.5903 1125.82 10.5436C1126.56 9.49686 1126.94 8.14872 1126.93 6.69277C1126.92 5.23681 1126.52 3.89269 1125.77 2.85591C1125.02 1.81913 1123.85 1.06509 1122.5 1.07409C1121.16 1.08308 1120 1.85403 1119.26 2.90077C1118.52 3.9475 1118.14 5.29564 1118.15 6.75159ZM1113.73 3.64318C1114.12 3.64055 1114.56 3.83346 1114.96 4.38057C1115.35 4.92646 1115.63 5.79818 1115.64 6.7684C1115.64 7.73862 1115.37 8.61529 1114.99 9.16514C1114.6 9.71752 1114.17 9.91621 1113.78 9.91883C1113.38 9.92146 1112.95 9.72855 1112.55 9.18144C1112.16 8.63555 1111.88 7.76383 1111.87 6.79361C1111.86 5.82339 1112.14 4.94672 1112.52 4.39688C1112.91 3.84449 1113.34 3.6458 1113.73 3.64318ZM1122.52 3.58435C1122.91 3.58173 1123.34 3.77464 1123.74 4.32175C1124.14 4.86763 1124.42 5.73936 1124.42 6.70957C1124.43 7.67979 1124.16 8.55647 1123.77 9.10631C1123.38 9.65869 1122.95 9.85739 1122.56 9.86001C1122.17 9.86263 1121.74 9.66972 1121.34 9.12261C1120.95 8.57672 1120.66 7.705 1120.66 6.73478C1120.65 5.76457 1120.92 4.88789 1121.31 4.33805C1121.7 3.78566 1122.13 3.58697 1122.52 3.58435ZM1107.5 9.96085C1106.16 9.96985 1104.99 10.7408 1104.26 11.7875C1103.52 12.8343 1103.13 14.1824 1103.14 15.6384C1103.15 17.0943 1103.56 18.4384 1104.31 19.4752C1105.06 20.512 1106.23 21.266 1107.57 21.257C1108.92 21.248 1110.08 20.4771 1110.82 19.4304C1111.55 18.3836 1111.94 17.0355 1111.93 15.5795C1111.92 14.1236 1111.52 12.7795 1110.77 11.7427C1110.02 10.7059 1108.84 9.95186 1107.5 9.96085ZM1128.84 9.81799C1127.5 9.82698 1126.33 10.5979 1125.59 11.6447C1124.86 12.6914 1124.47 14.0395 1124.48 15.4955C1124.49 16.9514 1124.9 18.2956 1125.65 19.3323C1126.4 20.3691 1127.57 21.1232 1128.91 21.1142C1130.26 21.1052 1131.42 20.3342 1132.16 19.2875C1132.89 18.2408 1133.28 16.8926 1133.27 15.4367C1133.26 13.9807 1132.86 12.6366 1132.11 11.5998C1131.36 10.563 1130.18 9.809 1128.84 9.81799ZM1107.52 12.4711C1107.91 12.4685 1108.34 12.6614 1108.74 13.2085C1109.13 13.7544 1109.41 14.6261 1109.42 15.5963C1109.43 16.5666 1109.16 17.4432 1108.77 17.9931C1108.38 18.5455 1107.95 18.7442 1107.56 18.7468C1107.17 18.7494 1106.73 18.5565 1106.34 18.0094C1105.94 17.4647 1105.66 16.5918 1105.65 15.6216C1105.65 14.6513 1105.92 13.7747 1106.3 13.2248C1106.69 12.6724 1107.12 12.4737 1107.52 12.4711ZM1128.86 12.3283C1129.25 12.3256 1129.68 12.5185 1130.08 13.0656C1130.47 13.6115 1130.75 14.4833 1130.76 15.4535C1130.77 16.4237 1130.5 17.3004 1130.11 17.8502C1129.72 18.4026 1129.29 18.6013 1128.9 18.6039C1128.51 18.6065 1128.07 18.4136 1127.67 17.8665C1127.28 17.3206 1127 16.4489 1126.99 15.4787C1126.99 14.5085 1127.26 13.6318 1127.64 13.082C1128.03 12.5296 1128.46 12.3309 1128.86 12.3283ZM1118.2 14.9099C1116.53 14.9212 1115.37 16.0147 1114.8 16.9724C1114.24 17.9301 1113.89 18.7257 1113.56 19.0593C1113.37 19.2576 1112.16 19.7214 1110.9 20.3737C1110.27 20.7005 1109.64 21.1353 1109.11 21.7978C1108.57 22.4604 1108.22 23.3728 1108.22 24.3932C1108.24 26.803 1110.23 28.7729 1112.64 28.7567C1113.73 28.7495 1114.86 28.3904 1115.97 28.0692C1117.09 27.7404 1118.29 27.4613 1118.29 27.4613C1118.29 27.4613 1119.49 27.7243 1120.6 28.0357C1121.72 28.342 1122.86 28.6859 1123.94 28.6786C1126.35 28.6624 1128.32 26.6661 1128.31 24.2562C1128.3 23.2596 1127.93 22.3509 1127.39 21.7143C1126.85 21.074 1126.2 20.6805 1125.57 20.352C1124.31 19.6952 1123.08 19.1763 1122.9 18.9968C1122.59 18.7013 1122.25 17.884 1121.67 16.9289C1121.08 15.9701 1119.88 14.8987 1118.2 14.9099ZM1118.22 17.4202C1119.05 17.4147 1119.14 17.6149 1119.52 18.2349C1119.9 18.8537 1120.19 19.9074 1121.1 20.8138C1122.15 21.836 1123.46 22.0532 1124.41 22.5539C1124.89 22.8042 1125.26 23.0716 1125.48 23.3313C1125.7 23.5896 1125.79 23.8262 1125.8 24.2705C1125.8 25.3248 1124.98 26.1587 1123.93 26.1658C1123.56 26.1682 1122.39 25.9 1121.29 25.5935C1120.2 25.2908 1119.29 24.9416 1118.27 24.9485C1117.25 24.9553 1116.34 25.3166 1115.25 25.6339C1114.16 25.955 1112.99 26.239 1112.63 26.2414C1111.57 26.2485 1110.74 25.4257 1110.73 24.3713C1110.73 23.8655 1110.83 23.605 1111.04 23.3476C1111.25 23.0914 1111.63 22.8365 1112.1 22.5962C1113.03 22.113 1114.33 21.916 1115.38 20.8483C1116.29 19.9171 1116.56 18.8258 1116.93 18.2083C1117.29 17.5908 1117.38 17.4208 1118.22 17.4152L1118.22 17.4202Z" fill="#B8C4DA"/>
<path opacity="0.4" d="M1164.77 1.13291C1163.42 1.1419 1162.26 1.91286 1161.52 2.95959C1160.79 4.00633 1160.4 5.35447 1160.41 6.81042C1160.42 8.26637 1160.82 9.61049 1161.57 10.6473C1162.32 11.6841 1163.5 12.4381 1164.84 12.4291C1166.18 12.4201 1167.35 11.6492 1168.08 10.6024C1168.82 9.55569 1169.21 8.20755 1169.2 6.75159C1169.19 5.29564 1168.78 3.95152 1168.03 2.91474C1167.28 1.87795 1166.11 1.12392 1164.77 1.13291ZM1169.2 6.75159C1169.21 8.20755 1169.61 9.55166 1170.36 10.5884C1171.11 11.6252 1172.29 12.3793 1173.63 12.3703C1174.97 12.3613 1176.14 11.5903 1176.87 10.5436C1177.61 9.49686 1177.99 8.14872 1177.98 6.69277C1177.97 5.23681 1177.57 3.89269 1176.82 2.85591C1176.07 1.81913 1174.9 1.06509 1173.55 1.07409C1172.21 1.08308 1171.04 1.85403 1170.31 2.90077C1169.57 3.9475 1169.19 5.29564 1169.2 6.75159ZM1164.78 3.64318C1165.17 3.64055 1165.61 3.83346 1166 4.38057C1166.4 4.92646 1166.68 5.79818 1166.69 6.7684C1166.69 7.73862 1166.42 8.61529 1166.04 9.16514C1165.65 9.71752 1165.22 9.91621 1164.82 9.91883C1164.43 9.92146 1164 9.72855 1163.6 9.18144C1163.21 8.63555 1162.93 7.76383 1162.92 6.79361C1162.91 5.82339 1163.18 4.94672 1163.57 4.39688C1163.96 3.84449 1164.39 3.6458 1164.78 3.64318ZM1173.57 3.58435C1173.96 3.58173 1174.39 3.77464 1174.79 4.32175C1175.18 4.86763 1175.47 5.73936 1175.47 6.70957C1175.48 7.67979 1175.21 8.55647 1174.82 9.10631C1174.43 9.65869 1174 9.85739 1173.61 9.86001C1173.22 9.86263 1172.79 9.66972 1172.39 9.12261C1172 8.57672 1171.71 7.705 1171.71 6.73478C1171.7 5.76457 1171.97 4.88789 1172.36 4.33805C1172.75 3.78566 1173.18 3.58697 1173.57 3.58435ZM1158.55 9.96085C1157.2 9.96985 1156.04 10.7408 1155.3 11.7875C1154.57 12.8343 1154.18 14.1824 1154.19 15.6384C1154.2 17.0943 1154.61 18.4384 1155.36 19.4752C1156.11 20.512 1157.28 21.266 1158.62 21.257C1159.97 21.248 1161.13 20.4771 1161.87 19.4304C1162.6 18.3836 1162.99 17.0355 1162.98 15.5795C1162.97 14.1236 1162.57 12.7795 1161.82 11.7427C1161.07 10.7059 1159.89 9.95186 1158.55 9.96085ZM1179.89 9.81799C1178.54 9.82698 1177.38 10.5979 1176.64 11.6447C1175.91 12.6914 1175.52 14.0395 1175.53 15.4955C1175.54 16.9514 1175.94 18.2956 1176.69 19.3323C1177.44 20.3691 1178.62 21.1232 1179.96 21.1142C1181.31 21.1052 1182.47 20.3342 1183.21 19.2875C1183.94 18.2408 1184.33 16.8926 1184.32 15.4367C1184.31 13.9807 1183.91 12.6366 1183.16 11.5998C1182.41 10.563 1181.23 9.809 1179.89 9.81799ZM1158.56 12.4711C1158.96 12.4685 1159.39 12.6614 1159.79 13.2085C1160.18 13.7544 1160.46 14.6261 1160.47 15.5963C1160.48 16.5666 1160.2 17.4432 1159.82 17.9931C1159.43 18.5455 1159 18.7442 1158.61 18.7468C1158.22 18.7494 1157.78 18.5565 1157.38 18.0094C1156.99 17.4647 1156.71 16.5918 1156.7 15.6216C1156.7 14.6513 1156.97 13.7747 1157.35 13.2248C1157.74 12.6724 1158.17 12.4737 1158.56 12.4711ZM1179.9 12.3283C1180.3 12.3256 1180.73 12.5185 1181.13 13.0656C1181.52 13.6115 1181.8 14.4833 1181.81 15.4535C1181.81 16.4237 1181.54 17.3004 1181.16 17.8502C1180.77 18.4026 1180.34 18.6013 1179.95 18.6039C1179.55 18.6065 1179.12 18.4136 1178.72 17.8665C1178.33 17.3206 1178.05 16.4489 1178.04 15.4787C1178.04 14.5085 1178.31 13.6318 1178.69 13.082C1179.08 12.5296 1179.51 12.3309 1179.9 12.3283ZM1169.25 14.9099C1167.58 14.9212 1166.42 16.0147 1165.85 16.9724C1165.29 17.9301 1164.94 18.7257 1164.61 19.0593C1164.42 19.2576 1163.21 19.7214 1161.95 20.3737C1161.32 20.7005 1160.69 21.1353 1160.16 21.7978C1159.62 22.4604 1159.26 23.3728 1159.27 24.3932C1159.29 26.803 1161.28 28.7729 1163.69 28.7567C1164.78 28.7495 1165.91 28.3904 1167.02 28.0692C1168.14 27.7404 1169.34 27.4613 1169.34 27.4613C1169.34 27.4613 1170.54 27.7243 1171.65 28.0357C1172.77 28.342 1173.91 28.6859 1174.99 28.6786C1177.4 28.6624 1179.37 26.6661 1179.36 24.2562C1179.35 23.2596 1178.98 22.3509 1178.44 21.7143C1177.9 21.074 1177.25 20.6805 1176.62 20.352C1175.36 19.6952 1174.13 19.1763 1173.95 18.9968C1173.64 18.7013 1173.3 17.884 1172.72 16.9289C1172.13 15.9701 1170.93 14.8987 1169.25 14.9099ZM1169.27 17.4202C1170.1 17.4147 1170.19 17.6149 1170.57 18.2349C1170.95 18.8537 1171.24 19.9074 1172.15 20.8138C1173.2 21.836 1174.5 22.0532 1175.46 22.5539C1175.94 22.8042 1176.31 23.0716 1176.53 23.3313C1176.74 23.5896 1176.84 23.8262 1176.85 24.2705C1176.85 25.3248 1176.03 26.1587 1174.98 26.1658C1174.61 26.1682 1173.44 25.9 1172.34 25.5935C1171.25 25.2908 1170.34 24.9416 1169.32 24.9485C1168.29 24.9553 1167.39 25.3166 1166.3 25.6339C1165.21 25.955 1164.04 26.239 1163.68 26.2414C1162.62 26.2485 1161.79 25.4257 1161.78 24.3713C1161.78 23.8655 1161.88 23.605 1162.09 23.3476C1162.3 23.0914 1162.68 22.8365 1163.14 22.5962C1164.07 22.113 1165.37 21.916 1166.43 20.8483C1167.34 19.9171 1167.61 18.8258 1167.98 18.2083C1168.34 17.5908 1168.43 17.4208 1169.27 17.4152L1169.27 17.4202Z" fill="#B8C4DA"/>
<path opacity="0.2" d="M1215.81 1.13291C1214.47 1.1419 1213.31 1.91286 1212.57 2.95959C1211.83 4.00633 1211.45 5.35447 1211.46 6.81042C1211.47 8.26637 1211.87 9.61049 1212.62 10.6473C1213.37 11.6841 1214.55 12.4381 1215.89 12.4291C1217.23 12.4201 1218.4 11.6492 1219.13 10.6024C1219.87 9.55569 1220.26 8.20755 1220.25 6.75159C1220.24 5.29564 1219.83 3.95152 1219.08 2.91474C1218.33 1.87795 1217.16 1.12392 1215.81 1.13291ZM1220.25 6.75159C1220.26 8.20755 1220.66 9.55166 1221.41 10.5884C1222.16 11.6252 1223.33 12.3793 1224.68 12.3703C1226.02 12.3613 1227.18 11.5903 1227.92 10.5436C1228.66 9.49686 1229.04 8.14872 1229.03 6.69277C1229.02 5.23681 1228.62 3.89269 1227.87 2.85591C1227.12 1.81913 1225.94 1.06509 1224.6 1.07409C1223.26 1.08308 1222.09 1.85403 1221.36 2.90077C1220.62 3.9475 1220.24 5.29564 1220.25 6.75159ZM1215.83 3.64318C1216.22 3.64055 1216.66 3.83346 1217.05 4.38057C1217.45 4.92646 1217.73 5.79818 1217.73 6.7684C1217.74 7.73862 1217.47 8.61529 1217.09 9.16514C1216.7 9.71752 1216.26 9.91621 1215.87 9.91883C1215.48 9.92146 1215.05 9.72855 1214.65 9.18144C1214.26 8.63555 1213.98 7.76383 1213.97 6.79361C1213.96 5.82339 1214.23 4.94672 1214.62 4.39688C1215.01 3.84449 1215.44 3.6458 1215.83 3.64318ZM1224.62 3.58435C1225.01 3.58173 1225.44 3.77464 1225.84 4.32175C1226.23 4.86763 1226.52 5.73936 1226.52 6.70957C1226.53 7.67979 1226.26 8.55647 1225.87 9.10631C1225.48 9.65869 1225.05 9.85739 1224.66 9.86001C1224.27 9.86263 1223.83 9.66972 1223.44 9.12261C1223.04 8.57672 1222.76 7.705 1222.76 6.73478C1222.75 5.76457 1223.02 4.88789 1223.41 4.33805C1223.8 3.78566 1224.23 3.58697 1224.62 3.58435ZM1209.6 9.96085C1208.25 9.96985 1207.09 10.7408 1206.35 11.7875C1205.62 12.8343 1205.23 14.1824 1205.24 15.6384C1205.25 17.0943 1205.65 18.4384 1206.4 19.4752C1207.15 20.512 1208.33 21.266 1209.67 21.257C1211.02 21.248 1212.18 20.4771 1212.92 19.4304C1213.65 18.3836 1214.04 17.0355 1214.03 15.5795C1214.02 14.1236 1213.61 12.7795 1212.86 11.7427C1212.11 10.7059 1210.94 9.95186 1209.6 9.96085ZM1230.94 9.81799C1229.59 9.82698 1228.43 10.5979 1227.69 11.6447C1226.96 12.6914 1226.57 14.0395 1226.58 15.4955C1226.59 16.9514 1226.99 18.2956 1227.74 19.3323C1228.49 20.3691 1229.67 21.1232 1231.01 21.1142C1232.35 21.1052 1233.52 20.3342 1234.26 19.2875C1234.99 18.2408 1235.38 16.8926 1235.37 15.4367C1235.36 13.9807 1234.95 12.6366 1234.2 11.5998C1233.45 10.563 1232.28 9.809 1230.94 9.81799ZM1209.61 12.4711C1210.01 12.4685 1210.44 12.6614 1210.84 13.2085C1211.23 13.7544 1211.51 14.6261 1211.52 15.5963C1211.52 16.5666 1211.25 17.4432 1210.87 17.9931C1210.48 18.5455 1210.05 18.7442 1209.66 18.7468C1209.26 18.7494 1208.83 18.5565 1208.43 18.0094C1208.04 17.4647 1207.76 16.5918 1207.75 15.6216C1207.75 14.6513 1208.02 13.7747 1208.4 13.2248C1208.79 12.6724 1209.22 12.4737 1209.61 12.4711ZM1230.95 12.3283C1231.34 12.3256 1231.78 12.5185 1232.18 13.0656C1232.57 13.6115 1232.85 14.4833 1232.86 15.4535C1232.86 16.4237 1232.59 17.3004 1232.21 17.8502C1231.82 18.4026 1231.39 18.6013 1230.99 18.6039C1230.6 18.6065 1230.17 18.4136 1229.77 17.8665C1229.38 17.3206 1229.1 16.4489 1229.09 15.4787C1229.08 14.5085 1229.35 13.6318 1229.74 13.082C1230.13 12.5296 1230.56 12.3309 1230.95 12.3283ZM1220.3 14.9099C1218.63 14.9212 1217.47 16.0147 1216.9 16.9724C1216.34 17.9301 1215.99 18.7257 1215.66 19.0593C1215.47 19.2576 1214.26 19.7214 1213 20.3737C1212.37 20.7005 1211.74 21.1353 1211.21 21.7978C1210.67 22.4604 1210.31 23.3728 1210.32 24.3932C1210.34 26.803 1212.33 28.7729 1214.74 28.7567C1215.83 28.7495 1216.96 28.3904 1218.07 28.0692C1219.18 27.7404 1220.38 27.4613 1220.38 27.4613C1220.38 27.4613 1221.59 27.7243 1222.7 28.0357C1223.82 28.342 1224.95 28.6859 1226.04 28.6786C1228.45 28.6624 1230.42 26.6661 1230.4 24.2562C1230.4 23.2596 1230.02 22.3509 1229.48 21.7143C1228.95 21.074 1228.3 20.6805 1227.67 20.352C1226.41 19.6952 1225.18 19.1763 1225 18.9968C1224.69 18.7013 1224.35 17.884 1223.76 16.9289C1223.18 15.9701 1221.98 14.8987 1220.3 14.9099ZM1220.32 17.4202C1221.15 17.4147 1221.24 17.6149 1221.62 18.2349C1222 18.8537 1222.28 19.9074 1223.2 20.8138C1224.24 21.836 1225.55 22.0532 1226.51 22.5539C1226.99 22.8042 1227.35 23.0716 1227.57 23.3313C1227.79 23.5896 1227.89 23.8262 1227.89 24.2705C1227.9 25.3248 1227.08 26.1587 1226.02 26.1658C1225.66 26.1682 1224.49 25.9 1223.39 25.5935C1222.3 25.2908 1221.39 24.9416 1220.37 24.9485C1219.34 24.9553 1218.44 25.3166 1217.35 25.6339C1216.26 25.955 1215.09 26.239 1214.73 26.2414C1213.67 26.2485 1212.84 25.4257 1212.83 24.3713C1212.83 23.8655 1212.93 23.605 1213.14 23.3476C1213.35 23.0914 1213.73 22.8365 1214.19 22.5962C1215.12 22.113 1216.42 21.916 1217.48 20.8483C1218.39 19.9171 1218.66 18.8258 1219.03 18.2083C1219.39 17.5908 1219.48 17.4208 1220.32 17.4152L1220.32 17.4202Z" fill="#B8C4DA"/>
<path opacity="0.2" d="M10.6696 0.129983C9.32648 0.138975 8.1617 0.909928 7.42557 1.95666C6.68944 3.0034 6.3043 4.35154 6.31404 5.80749C6.32379 7.26344 6.72696 8.60756 7.47704 9.64434C8.22712 10.6811 9.40211 11.4352 10.7452 11.4262C12.0883 11.4172 13.2531 10.6462 13.9892 9.59949C14.7254 8.55276 15.1105 7.20462 15.1008 5.74866C15.091 4.29271 14.6879 2.94859 13.9378 1.91181C13.1877 0.875023 12.0127 0.120991 10.6696 0.129983ZM15.1008 5.74866C15.1105 7.20462 15.5137 8.54873 16.2638 9.58552C17.0138 10.6223 18.1901 11.3763 19.5319 11.3673C20.8751 11.3584 22.0398 10.5874 22.776 9.54066C23.5121 8.49393 23.8972 7.14579 23.8875 5.68984C23.8777 4.23388 23.4746 2.88976 22.7245 1.85298C21.9744 0.816196 20.7994 0.0621638 19.4563 0.0711559C18.1132 0.0801481 16.9484 0.851101 16.2123 1.89784C15.4762 2.94457 15.091 4.29271 15.1008 5.74866ZM10.6864 2.64025C11.078 2.63762 11.5111 2.83053 11.909 3.37764C12.3018 3.92353 12.5838 4.79525 12.5903 5.76547C12.5968 6.73569 12.3265 7.61236 11.941 8.16221C11.5505 8.71459 11.12 8.91328 10.7284 8.91591C10.3368 8.91853 9.90366 8.72562 9.50583 8.17851C9.11303 7.63262 8.83103 6.7609 8.82454 5.79068C8.81804 4.82047 9.08834 3.94379 9.4738 3.39395C9.86427 2.84156 10.2948 2.64287 10.6864 2.64025ZM19.4731 2.58142C19.8648 2.5788 20.2979 2.77171 20.6957 3.31882C21.0885 3.8647 21.3705 4.73643 21.377 5.70664C21.3835 6.67686 21.1132 7.55354 20.7277 8.10338C20.3373 8.65576 19.9068 8.85446 19.5151 8.85708C19.1235 8.8597 18.6904 8.66679 18.2926 8.11968C17.8998 7.57379 17.6178 6.70207 17.6113 5.73185C17.6048 4.76164 17.8751 3.88496 18.2605 3.33512C18.651 2.78273 19.0815 2.58404 19.4731 2.58142ZM4.45218 8.95792C3.10907 8.96692 1.94429 9.73787 1.20816 10.7846C0.472027 11.8313 0.0868882 13.1795 0.0966358 14.6354C0.106383 16.0914 0.509547 17.4355 1.25963 18.4723C2.00971 19.5091 3.1847 20.2631 4.52781 20.2541C5.87092 20.2451 7.0357 19.4742 7.77183 18.4274C8.50797 17.3807 8.89311 16.0326 8.88336 14.5766C8.87361 13.1207 8.47045 11.7765 7.72037 10.7397C6.97029 9.70297 5.7953 8.94893 4.45218 8.95792ZM25.7914 8.81506C24.4483 8.82405 23.2835 9.595 22.5473 10.6417C21.8112 11.6885 21.4261 13.0366 21.4358 14.4926C21.4456 15.9485 21.8487 17.2926 22.5988 18.3294C23.3489 19.3662 24.5239 20.1202 25.867 20.1112C27.2101 20.1023 28.3749 19.3313 29.111 18.2846C29.8471 17.2378 30.2323 15.8897 30.2225 14.4337C30.2128 12.9778 29.8096 11.6337 29.0595 10.5969C28.3095 9.5601 27.1345 8.80607 25.7914 8.81506ZM4.46899 11.4682C4.86063 11.4656 5.29374 11.6585 5.69157 12.2056C6.08437 12.7515 6.36637 13.6232 6.37287 14.5934C6.37936 15.5636 6.10906 16.4403 5.7236 16.9901C5.33314 17.5425 4.90264 17.7412 4.511 17.7438C4.11937 17.7465 3.68625 17.5536 3.28842 17.0065C2.89563 16.4618 2.61362 15.5888 2.60713 14.6186C2.60063 13.6484 2.87093 12.7717 3.25639 12.2219C3.64686 11.6695 4.07735 11.4708 4.46899 11.4682ZM25.8082 11.3253C26.1998 11.3227 26.6329 11.5156 27.0307 12.0627C27.4235 12.6086 27.7056 13.4803 27.712 14.4505C27.7185 15.4208 27.4482 16.2974 27.0628 16.8473C26.6723 17.3997 26.2418 17.5984 25.8502 17.601C25.4585 17.6036 25.0254 17.4107 24.6276 16.8636C24.2348 16.3177 23.9528 15.446 23.9463 14.4758C23.9398 13.5055 24.2101 12.6289 24.5956 12.079C24.986 11.5266 25.4165 11.3279 25.8082 11.3253ZM15.1554 13.907C13.4821 13.9182 12.322 15.0117 11.7548 15.9695C11.1913 16.9272 10.8451 17.7228 10.5134 18.0564C10.3227 18.2547 9.11445 18.7184 7.85598 19.3708C7.22675 19.6976 6.59322 20.1323 6.06164 20.7949C5.5263 21.4574 5.16837 22.3698 5.1752 23.3903C5.19134 25.8001 7.1879 27.7699 9.59797 27.7538C10.685 27.7465 11.8174 27.3875 12.9262 27.0663C14.04 26.7375 15.2394 26.4583 15.2394 26.4583C15.2394 26.4583 16.4425 26.7214 17.558 27.0328C18.6723 27.3391 19.8094 27.6829 20.8964 27.6757C23.3065 27.6595 25.2765 25.6631 25.2604 23.2533C25.2537 22.2567 24.8798 21.3479 24.3395 20.7114C23.8018 20.0711 23.1564 19.6775 22.5278 19.3491C21.2681 18.6923 20.0307 18.1734 19.8512 17.9939C19.548 17.6984 19.2036 16.8811 18.6197 15.926C18.0371 14.9672 16.8374 13.8958 15.1554 13.907ZM15.1722 16.4173C16.0007 16.4117 16.0936 16.6119 16.4706 17.232C16.8513 17.8508 17.1396 18.9044 18.057 19.8108C19.0995 20.8331 20.4089 21.0503 21.3651 21.551C21.8438 21.8013 22.2096 22.0687 22.4298 22.3283C22.6487 22.5867 22.7469 22.8233 22.7499 23.2676C22.7569 24.3219 21.934 25.1558 20.8796 25.1629C20.5156 25.1653 19.3413 24.897 18.2472 24.5906C17.153 24.2879 16.2469 23.9387 15.2226 23.9456C14.1983 23.9524 13.2969 24.3137 12.2069 24.631C11.117 24.9521 9.94641 25.2361 9.58239 25.2385C8.52798 25.2456 7.69397 24.4227 7.68692 23.3684C7.68353 22.8626 7.78723 22.6021 7.99389 22.3446C8.20055 22.0885 8.58297 21.8336 9.04833 21.5933C9.97904 21.1101 11.2782 20.9131 12.3318 19.8454C13.2457 18.9142 13.5146 17.8229 13.8833 17.2054C14.2457 16.5879 14.3324 16.4179 15.1709 16.4123L15.1722 16.4173Z" fill="#B8C4DA"/>
<path opacity="0.4" d="M61.7165 0.129983C60.3734 0.138975 59.2086 0.909928 58.4724 1.95666C57.7363 3.0034 57.3512 4.35154 57.3609 5.80749C57.3707 7.26344 57.7738 8.60756 58.5239 9.64434C59.274 10.6811 60.449 11.4352 61.7921 11.4262C63.1352 11.4172 64.3 10.6462 65.0361 9.59949C65.7722 8.55276 66.1574 7.20462 66.1476 5.74866C66.1379 4.29271 65.7347 2.94859 64.9846 1.91181C64.2346 0.875023 63.0596 0.120991 61.7165 0.129983ZM66.1476 5.74866C66.1574 7.20462 66.5606 8.54873 67.3106 9.58552C68.0607 10.6223 69.237 11.3763 70.5788 11.3673C71.9219 11.3584 73.0867 10.5874 73.8228 9.54066C74.559 8.49393 74.9441 7.14579 74.9344 5.68984C74.9246 4.23388 74.5215 2.88976 73.7714 1.85298C73.0213 0.816196 71.8463 0.0621638 70.5032 0.0711559C69.1601 0.0801481 67.9953 0.851101 67.2592 1.89784C66.523 2.94457 66.1379 4.29271 66.1476 5.74866ZM61.7333 2.64025C62.1249 2.63762 62.558 2.83053 62.9559 3.37764C63.3487 3.92353 63.6307 4.79525 63.6371 5.76547C63.6436 6.73569 63.3733 7.61236 62.9879 8.16221C62.5974 8.71459 62.1669 8.91328 61.7753 8.91591C61.3837 8.91853 60.9505 8.72562 60.5527 8.17851C60.1599 7.63262 59.8779 6.7609 59.8714 5.79068C59.8649 4.82047 60.1352 3.94379 60.5207 3.39395C60.9111 2.84156 61.3416 2.64287 61.7333 2.64025ZM70.52 2.58142C70.9116 2.5788 71.3447 2.77171 71.7426 3.31882C72.1354 3.8647 72.4174 4.73643 72.4239 5.70664C72.4304 6.67686 72.1601 7.55354 71.7746 8.10338C71.3841 8.65576 70.9536 8.85446 70.562 8.85708C70.1704 8.8597 69.7373 8.66679 69.3394 8.11968C68.9466 7.57379 68.6646 6.70207 68.6581 5.73185C68.6516 4.76164 68.9219 3.88496 69.3074 3.33512C69.6979 2.78273 70.1284 2.58404 70.52 2.58142ZM55.4991 8.95792C54.1559 8.96692 52.9912 9.73787 52.255 10.7846C51.5189 11.8313 51.1338 13.1795 51.1435 14.6354C51.1533 16.0914 51.5564 17.4355 52.3065 18.4723C53.0566 19.5091 54.2316 20.2631 55.5747 20.2541C56.9178 20.2451 58.0826 19.4742 58.8187 18.4274C59.5548 17.3807 59.94 16.0326 59.9302 14.5766C59.9205 13.1207 59.5173 11.7765 58.7672 10.7397C58.0172 9.70297 56.8422 8.94893 55.4991 8.95792ZM76.8382 8.81506C75.4951 8.82405 74.3303 9.595 73.5942 10.6417C72.8581 11.6885 72.4729 13.0366 72.4827 14.4926C72.4924 15.9485 72.8956 17.2926 73.6457 18.3294C74.3958 19.3662 75.5708 20.1202 76.9139 20.1112C78.257 20.1023 79.4218 19.3313 80.1579 18.2846C80.894 17.2378 81.2792 15.8897 81.2694 14.4337C81.2597 12.9778 80.8565 11.6337 80.1064 10.5969C79.3563 9.5601 78.1814 8.80607 76.8382 8.81506ZM55.5159 11.4682C55.9075 11.4656 56.3406 11.6585 56.7384 12.2056C57.1312 12.7515 57.4132 13.6232 57.4197 14.5934C57.4262 15.5636 57.1559 16.4403 56.7705 16.9901C56.38 17.5425 55.9495 17.7412 55.5579 17.7438C55.1662 17.7465 54.7331 17.5536 54.3353 17.0065C53.9425 16.4618 53.6605 15.5888 53.654 14.6186C53.6475 13.6484 53.9178 12.7717 54.3033 12.2219C54.6937 11.6695 55.1242 11.4708 55.5159 11.4682ZM76.855 11.3253C77.2467 11.3227 77.6798 11.5156 78.0776 12.0627C78.4704 12.6086 78.7524 13.4803 78.7589 14.4505C78.7654 15.4208 78.4951 16.2974 78.1097 16.8473C77.7192 17.3997 77.2887 17.5984 76.8971 17.601C76.5054 17.6036 76.0723 17.4107 75.6745 16.8636C75.2817 16.3177 74.9997 15.446 74.9932 14.4758C74.9867 13.5055 75.257 12.6289 75.6424 12.079C76.0329 11.5266 76.4634 11.3279 76.855 11.3253ZM66.2023 13.907C64.529 13.9182 63.3689 15.0117 62.8016 15.9695C62.2382 16.9272 61.892 17.7228 61.5603 18.0564C61.3696 18.2547 60.1613 18.7184 58.9029 19.3708C58.2736 19.6976 57.6401 20.1323 57.1085 20.7949C56.5732 21.4574 56.2152 22.3698 56.2221 23.3903C56.2382 25.8001 58.2348 27.7699 60.6448 27.7538C61.7319 27.7465 62.8643 27.3875 63.9731 27.0663C65.0868 26.7375 66.2863 26.4583 66.2863 26.4583C66.2863 26.4583 67.4894 26.7214 68.6049 27.0328C69.7192 27.3391 70.8563 27.6829 71.9433 27.6757C74.3534 27.6595 76.3234 25.6631 76.3073 23.2533C76.3006 22.2567 75.9267 21.3479 75.3864 20.7114C74.8486 20.0711 74.2033 19.6775 73.5747 19.3491C72.315 18.6923 71.0775 18.1734 70.8981 17.9939C70.5948 17.6984 70.2504 16.8811 69.6666 15.926C69.084 14.9672 67.8843 13.8958 66.2023 13.907ZM66.2191 16.4173C67.0475 16.4117 67.1405 16.6119 67.5175 17.232C67.8982 17.8508 68.1865 18.9044 69.1039 19.8108C70.1463 20.8331 71.4558 21.0503 72.412 21.551C72.8906 21.8013 73.2565 22.0687 73.4766 22.3283C73.6955 22.5867 73.7938 22.8233 73.7967 23.2676C73.8038 24.3219 72.9809 25.1558 71.9265 25.1629C71.5625 25.1653 70.3882 24.897 69.294 24.5906C68.1999 24.2879 67.2937 23.9387 66.2695 23.9456C65.2452 23.9524 64.3438 24.3137 63.2538 24.631C62.1638 24.9521 60.9933 25.2361 60.6293 25.2385C59.5749 25.2456 58.7408 24.4227 58.7338 23.3684C58.7304 22.8626 58.8341 22.6021 59.0408 22.3446C59.2474 22.0885 59.6298 21.8336 60.0952 21.5933C61.0259 21.1101 62.3251 20.9131 63.3787 19.8454C64.2926 18.9142 64.5614 17.8229 64.9301 17.2054C65.2925 16.5879 65.3793 16.4179 66.2178 16.4123L66.2191 16.4173Z" fill="#B8C4DA"/>
<path opacity="0.6" d="M112.765 0.129983C111.422 0.138975 110.257 0.909928 109.521 1.95666C108.785 3.0034 108.4 4.35154 108.41 5.80749C108.419 7.26344 108.823 8.60756 109.573 9.64434C110.323 10.6811 111.498 11.4352 112.841 11.4262C114.184 11.4172 115.349 10.6462 116.085 9.59949C116.821 8.55276 117.206 7.20462 117.196 5.74866C117.187 4.29271 116.784 2.94859 116.033 1.91181C115.283 0.875023 114.108 0.120991 112.765 0.129983ZM117.196 5.74866C117.206 7.20462 117.609 8.54873 118.359 9.58552C119.11 10.6223 120.286 11.3763 121.628 11.3673C122.971 11.3584 124.136 10.5874 124.872 9.54066C125.608 8.49393 125.993 7.14579 125.983 5.68984C125.973 4.23388 125.57 2.88976 124.82 1.85298C124.07 0.816196 122.895 0.0621638 121.552 0.0711559C120.209 0.0801481 119.044 0.851101 118.308 1.89784C117.572 2.94457 117.187 4.29271 117.196 5.74866ZM112.782 2.64025C113.174 2.63762 113.607 2.83053 114.005 3.37764C114.397 3.92353 114.679 4.79525 114.686 5.76547C114.692 6.73569 114.422 7.61236 114.037 8.16221C113.646 8.71459 113.216 8.91328 112.824 8.91591C112.432 8.91853 111.999 8.72562 111.602 8.17851C111.209 7.63262 110.927 6.7609 110.92 5.79068C110.914 4.82047 111.184 3.94379 111.57 3.39395C111.96 2.84156 112.39 2.64287 112.782 2.64025ZM121.569 2.58142C121.96 2.5788 122.394 2.77171 122.791 3.31882C123.184 3.8647 123.466 4.73643 123.473 5.70664C123.479 6.67686 123.209 7.55354 122.823 8.10338C122.433 8.65576 122.002 8.85446 121.611 8.85708C121.219 8.8597 120.786 8.66679 120.388 8.11968C119.995 7.57379 119.713 6.70207 119.707 5.73185C119.7 4.76164 119.971 3.88496 120.356 3.33512C120.747 2.78273 121.177 2.58404 121.569 2.58142ZM106.548 8.95792C105.205 8.96692 104.04 9.73787 103.304 10.7846C102.568 11.8313 102.183 13.1795 102.192 14.6354C102.202 16.0914 102.605 17.4355 103.355 18.4723C104.105 19.5091 105.28 20.2631 106.624 20.2541C107.967 20.2451 109.131 19.4742 109.868 18.4274C110.604 17.3807 110.989 16.0326 110.979 14.5766C110.969 13.1207 110.566 11.7765 109.816 10.7397C109.066 9.70297 107.891 8.94893 106.548 8.95792ZM127.887 8.81506C126.544 8.82405 125.379 9.595 124.643 10.6417C123.907 11.6885 123.522 13.0366 123.532 14.4926C123.541 15.9485 123.944 17.2926 124.695 18.3294C125.445 19.3662 126.62 20.1202 127.963 20.1112C129.306 20.1023 130.471 19.3313 131.207 18.2846C131.943 17.2378 132.328 15.8897 132.318 14.4337C132.308 12.9778 131.905 11.6337 131.155 10.5969C130.405 9.5601 129.23 8.80607 127.887 8.81506ZM106.565 11.4682C106.956 11.4656 107.389 11.6585 107.787 12.2056C108.18 12.7515 108.462 13.6232 108.469 14.5934C108.475 15.5636 108.205 16.4403 107.819 16.9901C107.429 17.5425 106.998 17.7412 106.607 17.7438C106.215 17.7465 105.782 17.5536 105.384 17.0065C104.991 16.4618 104.709 15.5888 104.703 14.6186C104.696 13.6484 104.967 12.7717 105.352 12.2219C105.743 11.6695 106.173 11.4708 106.565 11.4682ZM127.904 11.3253C128.296 11.3227 128.729 11.5156 129.126 12.0627C129.519 12.6086 129.801 13.4803 129.808 14.4505C129.814 15.4208 129.544 16.2974 129.158 16.8473C128.768 17.3997 128.338 17.5984 127.946 17.601C127.554 17.6036 127.121 17.4107 126.723 16.8636C126.331 16.3177 126.049 15.446 126.042 14.4758C126.036 13.5055 126.306 12.6289 126.691 12.079C127.082 11.5266 127.512 11.3279 127.904 11.3253ZM117.251 13.907C115.578 13.9182 114.418 15.0117 113.85 15.9695C113.287 16.9272 112.941 17.7228 112.609 18.0564C112.418 18.2547 111.21 18.7184 109.952 19.3708C109.322 19.6976 108.689 20.1323 108.157 20.7949C107.622 21.4574 107.264 22.3698 107.271 23.3903C107.287 25.8001 109.284 27.7699 111.694 27.7538C112.781 27.7465 113.913 27.3875 115.022 27.0663C116.136 26.7375 117.335 26.4583 117.335 26.4583C117.335 26.4583 118.538 26.7214 119.654 27.0328C120.768 27.3391 121.905 27.6829 122.992 27.6757C125.402 27.6595 127.372 25.6631 127.356 23.2533C127.349 22.2567 126.976 21.3479 126.435 20.7114C125.897 20.0711 125.252 19.6775 124.624 19.3491C123.364 18.6923 122.126 18.1734 121.947 17.9939C121.644 17.6984 121.299 16.8811 120.715 15.926C120.133 14.9672 118.933 13.8958 117.251 13.907ZM117.268 16.4173C118.096 16.4117 118.189 16.6119 118.566 17.232C118.947 17.8508 119.235 18.9044 120.153 19.8108C121.195 20.8331 122.505 21.0503 123.461 21.551C123.939 21.8013 124.305 22.0687 124.525 22.3283C124.744 22.5867 124.843 22.8233 124.846 23.2676C124.853 24.3219 124.03 25.1558 122.975 25.1629C122.611 25.1653 121.437 24.897 120.343 24.5906C119.249 24.2879 118.343 23.9387 117.318 23.9456C116.294 23.9524 115.393 24.3137 114.303 24.631C113.213 24.9521 112.042 25.2361 111.678 25.2385C110.624 25.2456 109.79 24.4227 109.783 23.3684C109.779 22.8626 109.883 22.6021 110.09 22.3446C110.296 22.0885 110.679 21.8336 111.144 21.5933C112.075 21.1101 113.374 20.9131 114.428 19.8454C115.341 18.9142 115.61 17.8229 115.979 17.2054C116.341 16.5879 116.428 16.4179 117.267 16.4123L117.268 16.4173Z" fill="#B8C4DA"/>
<path opacity="0.8" d="M163.814 0.129983C162.471 0.138975 161.306 0.909928 160.57 1.95666C159.834 3.0034 159.449 4.35154 159.459 5.80749C159.468 7.26344 159.871 8.60756 160.622 9.64434C161.372 10.6811 162.547 11.4352 163.89 11.4262C165.233 11.4172 166.398 10.6462 167.134 9.59949C167.87 8.55276 168.255 7.20462 168.245 5.74866C168.236 4.29271 167.832 2.94859 167.082 1.91181C166.332 0.875023 165.157 0.120991 163.814 0.129983ZM168.245 5.74866C168.255 7.20462 168.658 8.54873 169.408 9.58552C170.158 10.6223 171.335 11.3763 172.676 11.3673C174.02 11.3584 175.184 10.5874 175.92 9.54066C176.657 8.49393 177.042 7.14579 177.032 5.68984C177.022 4.23388 176.619 2.88976 175.869 1.85298C175.119 0.816196 173.944 0.0621638 172.601 0.0711559C171.258 0.0801481 170.093 0.851101 169.357 1.89784C168.621 2.94457 168.236 4.29271 168.245 5.74866ZM163.831 2.64025C164.223 2.63762 164.656 2.83053 165.054 3.37764C165.446 3.92353 165.728 4.79525 165.735 5.76547C165.741 6.73569 165.471 7.61236 165.086 8.16221C164.695 8.71459 164.265 8.91328 163.873 8.91591C163.481 8.91853 163.048 8.72562 162.65 8.17851C162.258 7.63262 161.976 6.7609 161.969 5.79068C161.963 4.82047 162.233 3.94379 162.618 3.39395C163.009 2.84156 163.439 2.64287 163.831 2.64025ZM172.618 2.58142C173.009 2.5788 173.442 2.77171 173.84 3.31882C174.233 3.8647 174.515 4.73643 174.522 5.70664C174.528 6.67686 174.258 7.55354 173.872 8.10338C173.482 8.65576 173.051 8.85446 172.66 8.85708C172.268 8.8597 171.835 8.66679 171.437 8.11968C171.044 7.57379 170.762 6.70207 170.756 5.73185C170.749 4.76164 171.02 3.88496 171.405 3.33512C171.796 2.78273 172.226 2.58404 172.618 2.58142ZM157.597 8.95792C156.254 8.96692 155.089 9.73787 154.353 10.7846C153.617 11.8313 153.231 13.1795 153.241 14.6354C153.251 16.0914 153.654 17.4355 154.404 18.4723C155.154 19.5091 156.329 20.2631 157.672 20.2541C159.015 20.2451 160.18 19.4742 160.916 18.4274C161.652 17.3807 162.038 16.0326 162.028 14.5766C162.018 13.1207 161.615 11.7765 160.865 10.7397C160.115 9.70297 158.94 8.94893 157.597 8.95792ZM178.936 8.81506C177.593 8.82405 176.428 9.595 175.692 10.6417C174.956 11.6885 174.571 13.0366 174.58 14.4926C174.59 15.9485 174.993 17.2926 175.743 18.3294C176.493 19.3662 177.668 20.1202 179.012 20.1112C180.355 20.1023 181.519 19.3313 182.256 18.2846C182.992 17.2378 183.377 15.8897 183.367 14.4337C183.357 12.9778 182.954 11.6337 182.204 10.5969C181.454 9.5601 180.279 8.80607 178.936 8.81506ZM157.614 11.4682C158.005 11.4656 158.438 11.6585 158.836 12.2056C159.229 12.7515 159.511 13.6232 159.517 14.5934C159.524 15.5636 159.254 16.4403 158.868 16.9901C158.478 17.5425 158.047 17.7412 157.656 17.7438C157.264 17.7465 156.831 17.5536 156.433 17.0065C156.04 16.4618 155.758 15.5888 155.752 14.6186C155.745 13.6484 156.015 12.7717 156.401 12.2219C156.791 11.6695 157.222 11.4708 157.614 11.4682ZM178.953 11.3253C179.344 11.3227 179.777 11.5156 180.175 12.0627C180.568 12.6086 180.85 13.4803 180.857 14.4505C180.863 15.4208 180.593 16.2974 180.207 16.8473C179.817 17.3997 179.386 17.5984 178.995 17.601C178.603 17.6036 178.17 17.4107 177.772 16.8636C177.379 16.3177 177.097 15.446 177.091 14.4758C177.084 13.5055 177.355 12.6289 177.74 12.079C178.131 11.5266 178.561 11.3279 178.953 11.3253ZM168.3 13.907C166.627 13.9182 165.467 15.0117 164.899 15.9695C164.336 16.9272 163.99 17.7228 163.658 18.0564C163.467 18.2547 162.259 18.7184 161.001 19.3708C160.371 19.6976 159.738 20.1323 159.206 20.7949C158.671 21.4574 158.313 22.3698 158.32 23.3903C158.336 25.8001 160.332 27.7699 162.743 27.7538C163.83 27.7465 164.962 27.3875 166.071 27.0663C167.184 26.7375 168.384 26.4583 168.384 26.4583C168.384 26.4583 169.587 26.7214 170.703 27.0328C171.817 27.3391 172.954 27.6829 174.041 27.6757C176.451 27.6595 178.421 25.6631 178.405 23.2533C178.398 22.2567 178.024 21.3479 177.484 20.7114C176.946 20.0711 176.301 19.6775 175.672 19.3491C174.413 18.6923 173.175 18.1734 172.996 17.9939C172.692 17.6984 172.348 16.8811 171.764 15.926C171.182 14.9672 169.982 13.8958 168.3 13.907ZM168.317 16.4173C169.145 16.4117 169.238 16.6119 169.615 17.232C169.996 17.8508 170.284 18.9044 171.202 19.8108C172.244 20.8331 173.553 21.0503 174.51 21.551C174.988 21.8013 175.354 22.0687 175.574 22.3283C175.793 22.5867 175.891 22.8233 175.894 23.2676C175.901 24.3219 175.079 25.1558 174.024 25.1629C173.66 25.1653 172.486 24.897 171.392 24.5906C170.298 24.2879 169.391 23.9387 168.367 23.9456C167.343 23.9524 166.441 24.3137 165.351 24.631C164.261 24.9521 163.091 25.2361 162.727 25.2385C161.673 25.2456 160.839 24.4227 160.831 23.3684C160.828 22.8626 160.932 22.6021 161.138 22.3446C161.345 22.0885 161.728 21.8336 162.193 21.5933C163.124 21.1101 164.423 20.9131 165.476 19.8454C166.39 18.9142 166.659 17.8229 167.028 17.2054C167.39 16.5879 167.477 16.4179 168.315 16.4123L168.317 16.4173Z" fill="#B8C4DA"/>
</svg>
