<svg width="1182" height="29" viewBox="0 0 1182 29" fill="none" xmlns="http://www.w3.org/2000/svg">
<g opacity="0.6">
<path d="M998.67 1.13249C997.326 1.14148 996.162 1.91243 995.426 2.95916C994.689 4.0059 994.304 5.35404 994.314 6.80999C994.324 8.26595 994.727 9.61006 995.477 10.6468C996.227 11.6836 997.402 12.4377 998.745 12.4287C1000.09 12.4197 1001.25 11.6487 1001.99 10.602C1002.73 9.55526 1003.11 8.20712 1003.1 6.75117C1003.09 5.29521 1002.69 3.95109 1001.94 2.91431C1001.19 1.87753 1000.01 1.12349 998.67 1.13249ZM1003.1 6.75117C1003.11 8.20712 1003.51 9.55123 1004.26 10.588C1005.01 11.6248 1006.19 12.3788 1007.53 12.3698C1008.88 12.3609 1010.04 11.5899 1010.78 10.5432C1011.51 9.49643 1011.9 8.14829 1011.89 6.69234C1011.88 5.23639 1011.47 3.89227 1010.72 2.85548C1009.97 1.8187 1008.8 1.06467 1007.46 1.07366C1006.11 1.08265 1004.95 1.8536 1004.21 2.90034C1003.48 3.94707 1003.09 5.29521 1003.1 6.75117ZM998.686 3.64275C999.078 3.64013 999.511 3.83304 999.909 4.38015C1000.3 4.92603 1000.58 5.79776 1000.59 6.76797C1000.6 7.73819 1000.33 8.61487 999.941 9.16471C999.551 9.71709 999.12 9.91579 998.728 9.91841C998.337 9.92103 997.904 9.72812 997.506 9.18101C997.113 8.63512 996.831 7.7634 996.825 6.79318C996.818 5.82297 997.088 4.94629 997.474 4.39645C997.864 3.84406 998.295 3.64537 998.686 3.64275ZM1007.47 3.58392C1007.86 3.5813 1008.3 3.77421 1008.7 4.32132C1009.09 4.86721 1009.37 5.73893 1009.38 6.70915C1009.38 7.67936 1009.11 8.55604 1008.73 9.10588C1008.34 9.65827 1007.91 9.85696 1007.52 9.85958C1007.12 9.8622 1006.69 9.66929 1006.29 9.12218C1005.9 8.5763 1005.62 7.70457 1005.61 6.73436C1005.6 5.76414 1005.88 4.88746 1006.26 4.33762C1006.65 3.78524 1007.08 3.58654 1007.47 3.58392ZM992.452 9.96043C991.109 9.96942 989.944 10.7404 989.208 11.7871C988.472 12.8338 988.087 14.182 988.097 15.6379C988.106 17.0939 988.51 18.438 989.26 19.4748C990.01 20.5116 991.185 21.2656 992.528 21.2566C993.871 21.2476 995.036 20.4767 995.772 19.4299C996.508 18.3832 996.893 17.0351 996.883 15.5791C996.874 14.1232 996.47 12.779 995.72 11.7423C994.97 10.7055 993.795 9.95143 992.452 9.96043ZM1013.79 9.81756C1012.45 9.82655 1011.28 10.5975 1010.55 11.6442C1009.81 12.691 1009.43 14.0391 1009.44 15.4951C1009.45 16.951 1009.85 18.2951 1010.6 19.3319C1011.35 20.3687 1012.52 21.1227 1013.87 21.1137C1015.21 21.1048 1016.37 20.3338 1017.11 19.2871C1017.85 18.2403 1018.23 16.8922 1018.22 15.4362C1018.21 13.9803 1017.81 12.6362 1017.06 11.5994C1016.31 10.5626 1015.13 9.80857 1013.79 9.81756ZM992.469 12.4707C992.861 12.4681 993.294 12.661 993.692 13.2081C994.084 13.754 994.366 14.6257 994.373 15.5959C994.379 16.5661 994.109 17.4428 993.724 17.9927C993.333 18.545 992.903 18.7437 992.511 18.7463C992.119 18.749 991.686 18.5561 991.288 18.009C990.896 17.4643 990.614 16.5913 990.607 15.6211C990.601 14.6509 990.871 13.7742 991.256 13.2244C991.647 12.672 992.077 12.4733 992.469 12.4707ZM1013.81 12.3278C1014.2 12.3252 1014.63 12.5181 1015.03 13.0652C1015.42 13.6111 1015.71 14.4828 1015.71 15.453C1015.72 16.4233 1015.45 17.2999 1015.06 17.8498C1014.67 18.4022 1014.24 18.6009 1013.85 18.6035C1013.46 18.6061 1013.03 18.4132 1012.63 17.8661C1012.23 17.3202 1011.95 16.4485 1011.95 15.4783C1011.94 14.508 1012.21 13.6314 1012.6 13.0815C1012.99 12.5291 1013.42 12.3304 1013.81 12.3278ZM1003.16 14.9095C1001.48 14.9207 1000.32 16.0142 999.755 16.972C999.191 17.9297 998.845 18.7253 998.513 19.0589C998.323 19.2572 997.114 19.7209 995.856 20.3733C995.227 20.7001 994.593 21.1348 994.062 21.7974C993.526 22.4599 993.168 23.3723 993.175 24.3928C993.191 26.8026 995.188 28.7724 997.598 28.7563C998.685 28.749 999.817 28.39 1000.93 28.0688C1002.04 27.74 1003.24 27.4608 1003.24 27.4608C1003.24 27.4608 1004.44 27.7239 1005.56 28.0353C1006.67 28.3416 1007.81 28.6854 1008.9 28.6782C1011.31 28.662 1013.28 26.6656 1013.26 24.2558C1013.25 23.2592 1012.88 22.3504 1012.34 21.7139C1011.8 21.0736 1011.16 20.68 1010.53 20.3516C1009.27 19.6948 1008.03 19.1759 1007.85 18.9964C1007.55 18.7009 1007.2 17.8836 1006.62 16.9285C1006.04 15.9697 1004.84 14.8983 1003.16 14.9095ZM1003.17 17.4198C1004 17.4142 1004.09 17.6144 1004.47 18.2345C1004.85 18.8533 1005.14 19.9069 1006.06 20.8133C1007.1 21.8356 1008.41 22.0528 1009.37 22.5535C1009.84 22.8038 1010.21 23.0712 1010.43 23.3308C1010.65 23.5892 1010.75 23.8258 1010.75 24.2701C1010.76 25.3244 1009.93 26.1583 1008.88 26.1654C1008.52 26.1678 1007.34 25.8995 1006.25 25.5931C1005.15 25.2904 1004.25 24.9412 1003.22 24.9481C1002.2 24.9549 1001.3 25.3162 1000.21 25.6335C999.117 25.9546 997.946 26.2386 997.582 26.241C996.528 26.2481 995.694 25.4252 995.687 24.3709C995.684 23.8651 995.787 23.6046 995.994 23.3471C996.201 23.091 996.583 22.8361 997.048 22.5958C997.979 22.1126 999.278 21.9156 1000.33 20.8479C1001.25 19.9167 1001.51 18.8254 1001.88 18.2079C1002.25 17.5904 1002.33 17.4204 1003.17 17.4148L1003.17 17.4198Z" fill="white"/>
<path opacity="0.6" d="M1049.72 1.13249C1048.37 1.14148 1047.21 1.91243 1046.47 2.95916C1045.74 4.0059 1045.35 5.35404 1045.36 6.80999C1045.37 8.26595 1045.77 9.61006 1046.52 10.6468C1047.27 11.6836 1048.45 12.4377 1049.79 12.4287C1051.14 12.4197 1052.3 11.6487 1053.04 10.602C1053.77 9.55526 1054.16 8.20712 1054.15 6.75117C1054.14 5.29521 1053.73 3.95109 1052.98 2.91431C1052.23 1.87753 1051.06 1.12349 1049.72 1.13249ZM1054.15 6.75117C1054.16 8.20712 1054.56 9.55123 1055.31 10.588C1056.06 11.6248 1057.24 12.3788 1058.58 12.3698C1059.92 12.3609 1061.09 11.5899 1061.82 10.5432C1062.56 9.49643 1062.94 8.14829 1062.93 6.69234C1062.92 5.23639 1062.52 3.89227 1061.77 2.85548C1061.02 1.8187 1059.85 1.06467 1058.5 1.07366C1057.16 1.08265 1056 1.8536 1055.26 2.90034C1054.52 3.94707 1054.14 5.29521 1054.15 6.75117ZM1049.73 3.64275C1050.12 3.64013 1050.56 3.83304 1050.96 4.38015C1051.35 4.92603 1051.63 5.79776 1051.64 6.76797C1051.64 7.73819 1051.37 8.61487 1050.99 9.16471C1050.6 9.71709 1050.17 9.91579 1049.78 9.91841C1049.38 9.92103 1048.95 9.72812 1048.55 9.18101C1048.16 8.63512 1047.88 7.7634 1047.87 6.79318C1047.86 5.82297 1048.14 4.94629 1048.52 4.39645C1048.91 3.84406 1049.34 3.64537 1049.73 3.64275ZM1058.52 3.58392C1058.91 3.5813 1059.34 3.77421 1059.74 4.32132C1060.14 4.86721 1060.42 5.73893 1060.42 6.70915C1060.43 7.67936 1060.16 8.55604 1059.77 9.10588C1059.38 9.65827 1058.95 9.85696 1058.56 9.85958C1058.17 9.8622 1057.74 9.66929 1057.34 9.12218C1056.95 8.5763 1056.66 7.70457 1056.66 6.73436C1056.65 5.76414 1056.92 4.88746 1057.31 4.33762C1057.7 3.78524 1058.13 3.58654 1058.52 3.58392ZM1043.5 9.96043C1042.16 9.96942 1040.99 10.7404 1040.26 11.7871C1039.52 12.8338 1039.13 14.182 1039.14 15.6379C1039.15 17.0939 1039.56 18.438 1040.31 19.4748C1041.06 20.5116 1042.23 21.2656 1043.57 21.2566C1044.92 21.2476 1046.08 20.4767 1046.82 19.4299C1047.55 18.3832 1047.94 17.0351 1047.93 15.5791C1047.92 14.1232 1047.52 12.779 1046.77 11.7423C1046.02 10.7055 1044.84 9.95143 1043.5 9.96043ZM1064.84 9.81756C1063.5 9.82655 1062.33 10.5975 1061.59 11.6442C1060.86 12.691 1060.47 14.0391 1060.48 15.4951C1060.49 16.951 1060.9 18.2951 1061.65 19.3319C1062.4 20.3687 1063.57 21.1227 1064.91 21.1137C1066.26 21.1048 1067.42 20.3338 1068.16 19.2871C1068.89 18.2403 1069.28 16.8922 1069.27 15.4362C1069.26 13.9803 1068.86 12.6362 1068.11 11.5994C1067.36 10.5626 1066.18 9.80857 1064.84 9.81756ZM1043.52 12.4707C1043.91 12.4681 1044.34 12.661 1044.74 13.2081C1045.13 13.754 1045.41 14.6257 1045.42 15.5959C1045.43 16.5661 1045.16 17.4428 1044.77 17.9927C1044.38 18.545 1043.95 18.7437 1043.56 18.7463C1043.17 18.749 1042.73 18.5561 1042.34 18.009C1041.94 17.4643 1041.66 16.5913 1041.65 15.6211C1041.65 14.6509 1041.92 13.7742 1042.3 13.2244C1042.69 12.672 1043.12 12.4733 1043.52 12.4707ZM1064.86 12.3278C1065.25 12.3252 1065.68 12.5181 1066.08 13.0652C1066.47 13.6111 1066.75 14.4828 1066.76 15.453C1066.77 16.4233 1066.5 17.2999 1066.11 17.8498C1065.72 18.4022 1065.29 18.6009 1064.9 18.6035C1064.51 18.6061 1064.07 18.4132 1063.67 17.8661C1063.28 17.3202 1063 16.4485 1062.99 15.4783C1062.99 14.508 1063.26 13.6314 1063.64 13.0815C1064.03 12.5291 1064.46 12.3304 1064.86 12.3278ZM1054.2 14.9095C1052.53 14.9207 1051.37 16.0142 1050.8 16.972C1050.24 17.9297 1049.89 18.7253 1049.56 19.0589C1049.37 19.2572 1048.16 19.7209 1046.9 20.3733C1046.27 20.7001 1045.64 21.1348 1045.11 21.7974C1044.57 22.4599 1044.22 23.3723 1044.22 24.3928C1044.24 26.8026 1046.23 28.7724 1048.64 28.7563C1049.73 28.749 1050.86 28.39 1051.97 28.0688C1053.09 27.74 1054.29 27.4608 1054.29 27.4608C1054.29 27.4608 1055.49 27.7239 1056.6 28.0353C1057.72 28.3416 1058.86 28.6854 1059.94 28.6782C1062.35 28.662 1064.32 26.6656 1064.31 24.2558C1064.3 23.2592 1063.93 22.3504 1063.39 21.7139C1062.85 21.0736 1062.2 20.68 1061.57 20.3516C1060.31 19.6948 1059.08 19.1759 1058.9 18.9964C1058.59 18.7009 1058.25 17.8836 1057.67 16.9285C1057.08 15.9697 1055.88 14.8983 1054.2 14.9095ZM1054.22 17.4198C1055.05 17.4142 1055.14 17.6144 1055.52 18.2345C1055.9 18.8533 1056.19 19.9069 1057.1 20.8133C1058.15 21.8356 1059.46 22.0528 1060.41 22.5535C1060.89 22.8038 1061.26 23.0712 1061.48 23.3308C1061.7 23.5892 1061.79 23.8258 1061.8 24.2701C1061.8 25.3244 1060.98 26.1583 1059.93 26.1654C1059.56 26.1678 1058.39 25.8995 1057.29 25.5931C1056.2 25.2904 1055.29 24.9412 1054.27 24.9481C1053.25 24.9549 1052.34 25.3162 1051.25 25.6335C1050.16 25.9546 1048.99 26.2386 1048.63 26.241C1047.57 26.2481 1046.74 25.4252 1046.73 24.3709C1046.73 23.8651 1046.83 23.6046 1047.04 23.3471C1047.25 23.091 1047.63 22.8361 1048.1 22.5958C1049.03 22.1126 1050.33 21.9156 1051.38 20.8479C1052.29 19.9167 1052.56 18.8254 1052.93 18.2079C1053.29 17.5904 1053.38 17.4204 1054.22 17.4148L1054.22 17.4198Z" fill="white"/>
<path opacity="0.4" d="M1100.77 1.13249C1099.42 1.14148 1098.26 1.91243 1097.52 2.95916C1096.79 4.0059 1096.4 5.35404 1096.41 6.80999C1096.42 8.26595 1096.82 9.61006 1097.57 10.6468C1098.32 11.6836 1099.5 12.4377 1100.84 12.4287C1102.18 12.4197 1103.35 11.6487 1104.08 10.602C1104.82 9.55526 1105.21 8.20712 1105.2 6.75117C1105.19 5.29521 1104.78 3.95109 1104.03 2.91431C1103.28 1.87753 1102.11 1.12349 1100.77 1.13249ZM1105.2 6.75117C1105.21 8.20712 1105.61 9.55123 1106.36 10.588C1107.11 11.6248 1108.29 12.3788 1109.63 12.3698C1110.97 12.3609 1112.14 11.5899 1112.87 10.5432C1113.61 9.49643 1113.99 8.14829 1113.98 6.69234C1113.97 5.23639 1113.57 3.89227 1112.82 2.85548C1112.07 1.8187 1110.9 1.06467 1109.55 1.07366C1108.21 1.08265 1107.04 1.8536 1106.31 2.90034C1105.57 3.94707 1105.19 5.29521 1105.2 6.75117ZM1100.78 3.64275C1101.17 3.64013 1101.61 3.83304 1102 4.38015C1102.4 4.92603 1102.68 5.79776 1102.69 6.76797C1102.69 7.73819 1102.42 8.61487 1102.04 9.16471C1101.65 9.71709 1101.22 9.91579 1100.82 9.91841C1100.43 9.92103 1100 9.72812 1099.6 9.18101C1099.21 8.63512 1098.93 7.7634 1098.92 6.79318C1098.91 5.82297 1099.18 4.94629 1099.57 4.39645C1099.96 3.84406 1100.39 3.64537 1100.78 3.64275ZM1109.57 3.58392C1109.96 3.5813 1110.39 3.77421 1110.79 4.32132C1111.18 4.86721 1111.47 5.73893 1111.47 6.70915C1111.48 7.67936 1111.21 8.55604 1110.82 9.10588C1110.43 9.65827 1110 9.85696 1109.61 9.85958C1109.22 9.8622 1108.79 9.66929 1108.39 9.12218C1108 8.5763 1107.71 7.70457 1107.71 6.73436C1107.7 5.76414 1107.97 4.88746 1108.36 4.33762C1108.75 3.78524 1109.18 3.58654 1109.57 3.58392ZM1094.55 9.96043C1093.2 9.96942 1092.04 10.7404 1091.3 11.7871C1090.57 12.8338 1090.18 14.182 1090.19 15.6379C1090.2 17.0939 1090.61 18.438 1091.36 19.4748C1092.11 20.5116 1093.28 21.2656 1094.62 21.2566C1095.97 21.2476 1097.13 20.4767 1097.87 19.4299C1098.6 18.3832 1098.99 17.0351 1098.98 15.5791C1098.97 14.1232 1098.57 12.779 1097.82 11.7423C1097.07 10.7055 1095.89 9.95143 1094.55 9.96043ZM1115.89 9.81756C1114.54 9.82655 1113.38 10.5975 1112.64 11.6442C1111.91 12.691 1111.52 14.0391 1111.53 15.4951C1111.54 16.951 1111.94 18.2951 1112.69 19.3319C1113.44 20.3687 1114.62 21.1227 1115.96 21.1137C1117.31 21.1048 1118.47 20.3338 1119.21 19.2871C1119.94 18.2403 1120.33 16.8922 1120.32 15.4362C1120.31 13.9803 1119.91 12.6362 1119.16 11.5994C1118.41 10.5626 1117.23 9.80857 1115.89 9.81756ZM1094.56 12.4707C1094.96 12.4681 1095.39 12.661 1095.79 13.2081C1096.18 13.754 1096.46 14.6257 1096.47 15.5959C1096.48 16.5661 1096.2 17.4428 1095.82 17.9927C1095.43 18.545 1095 18.7437 1094.61 18.7463C1094.22 18.749 1093.78 18.5561 1093.38 18.009C1092.99 17.4643 1092.71 16.5913 1092.7 15.6211C1092.7 14.6509 1092.97 13.7742 1093.35 13.2244C1093.74 12.672 1094.17 12.4733 1094.56 12.4707ZM1115.9 12.3278C1116.3 12.3252 1116.73 12.5181 1117.13 13.0652C1117.52 13.6111 1117.8 14.4828 1117.81 15.453C1117.81 16.4233 1117.54 17.2999 1117.16 17.8498C1116.77 18.4022 1116.34 18.6009 1115.95 18.6035C1115.55 18.6061 1115.12 18.4132 1114.72 17.8661C1114.33 17.3202 1114.05 16.4485 1114.04 15.4783C1114.04 14.508 1114.31 13.6314 1114.69 13.0815C1115.08 12.5291 1115.51 12.3304 1115.9 12.3278ZM1105.25 14.9095C1103.58 14.9207 1102.42 16.0142 1101.85 16.972C1101.29 17.9297 1100.94 18.7253 1100.61 19.0589C1100.42 19.2572 1099.21 19.7209 1097.95 20.3733C1097.32 20.7001 1096.69 21.1348 1096.16 21.7974C1095.62 22.4599 1095.26 23.3723 1095.27 24.3928C1095.29 26.8026 1097.28 28.7724 1099.69 28.7563C1100.78 28.749 1101.91 28.39 1103.02 28.0688C1104.14 27.74 1105.34 27.4608 1105.34 27.4608C1105.34 27.4608 1106.54 27.7239 1107.65 28.0353C1108.77 28.3416 1109.91 28.6854 1110.99 28.6782C1113.4 28.662 1115.37 26.6656 1115.36 24.2558C1115.35 23.2592 1114.98 22.3504 1114.44 21.7139C1113.9 21.0736 1113.25 20.68 1112.62 20.3516C1111.36 19.6948 1110.13 19.1759 1109.95 18.9964C1109.64 18.7009 1109.3 17.8836 1108.72 16.9285C1108.13 15.9697 1106.93 14.8983 1105.25 14.9095ZM1105.27 17.4198C1106.1 17.4142 1106.19 17.6144 1106.57 18.2345C1106.95 18.8533 1107.24 19.9069 1108.15 20.8133C1109.2 21.8356 1110.5 22.0528 1111.46 22.5535C1111.94 22.8038 1112.31 23.0712 1112.53 23.3308C1112.74 23.5892 1112.84 23.8258 1112.85 24.2701C1112.85 25.3244 1112.03 26.1583 1110.98 26.1654C1110.61 26.1678 1109.44 25.8995 1108.34 25.5931C1107.25 25.2904 1106.34 24.9412 1105.32 24.9481C1104.29 24.9549 1103.39 25.3162 1102.3 25.6335C1101.21 25.9546 1100.04 26.2386 1099.68 26.241C1098.62 26.2481 1097.79 25.4252 1097.78 24.3709C1097.78 23.8651 1097.88 23.6046 1098.09 23.3471C1098.3 23.091 1098.68 22.8361 1099.14 22.5958C1100.07 22.1126 1101.37 21.9156 1102.43 20.8479C1103.34 19.9167 1103.61 18.8254 1103.98 18.2079C1104.34 17.5904 1104.43 17.4204 1105.27 17.4148L1105.27 17.4198Z" fill="white"/>
<path opacity="0.2" d="M1161.81 1.13126C1160.47 1.14026 1159.31 1.91121 1158.57 2.95794C1157.83 4.00468 1157.45 5.35282 1157.46 6.80877C1157.47 8.26472 1157.87 9.60884 1158.62 10.6456C1159.37 11.6824 1160.55 12.4364 1161.89 12.4275C1163.23 12.4185 1164.4 11.6475 1165.13 10.6008C1165.87 9.55404 1166.26 8.2059 1166.25 6.74994C1166.24 5.29399 1165.83 3.94987 1165.08 2.91309C1164.33 1.87631 1163.16 1.12227 1161.81 1.13126ZM1166.25 6.74994C1166.26 8.2059 1166.66 9.55001 1167.41 10.5868C1168.16 11.6236 1169.33 12.3776 1170.68 12.3686C1172.02 12.3596 1173.18 11.5887 1173.92 10.5419C1174.66 9.49521 1175.04 8.14707 1175.03 6.69112C1175.02 5.23516 1174.62 3.89105 1173.87 2.85426C1173.12 1.81748 1171.94 1.06345 1170.6 1.07244C1169.26 1.08143 1168.09 1.85238 1167.36 2.89912C1166.62 3.94585 1166.24 5.29399 1166.25 6.74994ZM1161.83 3.64153C1162.22 3.63891 1162.66 3.83182 1163.05 4.37892C1163.45 4.92481 1163.73 5.79654 1163.73 6.76675C1163.74 7.73697 1163.47 8.61364 1163.09 9.16349C1162.7 9.71587 1162.26 9.91456 1161.87 9.91719C1161.48 9.91981 1161.05 9.7269 1160.65 9.17979C1160.26 8.6339 1159.98 7.76218 1159.97 6.79196C1159.96 5.82175 1160.23 4.94507 1160.62 4.39523C1161.01 3.84284 1161.44 3.64415 1161.83 3.64153ZM1170.62 3.5827C1171.01 3.58008 1171.44 3.77299 1171.84 4.3201C1172.23 4.86598 1172.52 5.73771 1172.52 6.70792C1172.53 7.67814 1172.26 8.55482 1171.87 9.10466C1171.48 9.65705 1171.05 9.85574 1170.66 9.85836C1170.27 9.86098 1169.83 9.66807 1169.44 9.12096C1169.04 8.57508 1168.76 7.70335 1168.76 6.73314C1168.75 5.76292 1169.02 4.88624 1169.41 4.3364C1169.8 3.78401 1170.23 3.58532 1170.62 3.5827ZM1155.6 9.95921C1154.25 9.9682 1153.09 10.7392 1152.35 11.7859C1151.62 12.8326 1151.23 14.1808 1151.24 15.6367C1151.25 17.0927 1151.65 18.4368 1152.4 19.4736C1153.15 20.5104 1154.33 21.2644 1155.67 21.2554C1157.02 21.2464 1158.18 20.4754 1158.92 19.4287C1159.65 18.382 1160.04 17.0338 1160.03 15.5779C1160.02 14.1219 1159.61 12.7778 1158.86 11.741C1158.11 10.7042 1156.94 9.95021 1155.6 9.95921ZM1176.94 9.81634C1175.59 9.82533 1174.43 10.5963 1173.69 11.643C1172.96 12.6898 1172.57 14.0379 1172.58 15.4938C1172.59 16.9498 1172.99 18.2939 1173.74 19.3307C1174.49 20.3675 1175.67 21.1215 1177.01 21.1125C1178.35 21.1035 1179.52 20.3326 1180.26 19.2858C1180.99 18.2391 1181.38 16.891 1181.37 15.435C1181.36 13.9791 1180.95 12.635 1180.2 11.5982C1179.45 10.5614 1178.28 9.80735 1176.94 9.81634ZM1155.61 12.4695C1156.01 12.4668 1156.44 12.6598 1156.84 13.2069C1157.23 13.7528 1157.51 14.6245 1157.52 15.5947C1157.52 16.5649 1157.25 17.4416 1156.87 17.9914C1156.48 18.5438 1156.05 18.7425 1155.66 18.7451C1155.26 18.7478 1154.83 18.5548 1154.43 18.0077C1154.04 17.4631 1153.76 16.5901 1153.75 15.6199C1153.75 14.6497 1154.02 13.773 1154.4 13.2232C1154.79 12.6708 1155.22 12.4721 1155.61 12.4695ZM1176.95 12.3266C1177.34 12.324 1177.78 12.5169 1178.18 13.064C1178.57 13.6099 1178.85 14.4816 1178.86 15.4518C1178.86 16.422 1178.59 17.2987 1178.21 17.8486C1177.82 18.4009 1177.39 18.5996 1176.99 18.6023C1176.6 18.6049 1176.17 18.412 1175.77 17.8649C1175.38 17.319 1175.1 16.4473 1175.09 15.477C1175.08 14.5068 1175.35 13.6301 1175.74 13.0803C1176.13 12.5279 1176.56 12.3292 1176.95 12.3266ZM1166.3 14.9083C1164.63 14.9195 1163.47 16.013 1162.9 16.9707C1162.34 17.9285 1161.99 18.7241 1161.66 19.0577C1161.47 19.256 1160.26 19.7197 1159 20.3721C1158.37 20.6988 1157.74 21.1336 1157.21 21.7961C1156.67 22.4587 1156.31 23.3711 1156.32 24.3915C1156.34 26.8014 1158.33 28.7712 1160.74 28.7551C1161.83 28.7478 1162.96 28.3888 1164.07 28.0676C1165.18 27.7388 1166.38 27.4596 1166.38 27.4596C1166.38 27.4596 1167.59 27.7227 1168.7 28.034C1169.82 28.3404 1170.95 28.6842 1172.04 28.6769C1174.45 28.6608 1176.42 26.6644 1176.4 24.2546C1176.4 23.258 1176.02 22.3492 1175.48 21.7127C1174.95 21.0724 1174.3 20.6788 1173.67 20.3504C1172.41 19.6936 1171.18 19.1747 1171 18.9951C1170.69 18.6997 1170.35 17.8824 1169.76 16.9273C1169.18 15.9685 1167.98 14.897 1166.3 14.9083ZM1166.32 17.4186C1167.15 17.413 1167.24 17.6132 1167.62 18.2333C1168 18.852 1168.28 19.9057 1169.2 20.8121C1170.24 21.8344 1171.55 22.0515 1172.51 22.5522C1172.99 22.8026 1173.35 23.07 1173.57 23.3296C1173.79 23.588 1173.89 23.8245 1173.89 24.2689C1173.9 25.3232 1173.08 26.1571 1172.02 26.1642C1171.66 26.1666 1170.49 25.8983 1169.39 25.5918C1168.3 25.2891 1167.39 24.94 1166.37 24.9468C1165.34 24.9537 1164.44 25.315 1163.35 25.6323C1162.26 25.9534 1161.09 26.2374 1160.73 26.2398C1159.67 26.2469 1158.84 25.424 1158.83 24.3697C1158.83 23.8639 1158.93 23.6034 1159.14 23.3459C1159.35 23.0897 1159.73 22.8349 1160.19 22.5945C1161.12 22.1113 1162.42 21.9144 1163.48 20.8467C1164.39 19.9155 1164.66 18.8242 1165.03 18.2067C1165.39 17.5892 1165.48 17.4192 1166.32 17.4136L1166.32 17.4186Z" fill="white"/>
<path opacity="0.2" d="M10.6696 0.128396C9.32648 0.137388 8.1617 0.908341 7.42557 1.95508C6.68944 3.00181 6.3043 4.34995 6.31404 5.8059C6.32379 7.26186 6.72696 8.60597 7.47704 9.64276C8.22712 10.6795 9.40211 11.4336 10.7452 11.4246C12.0883 11.4156 13.2531 10.6446 13.9892 9.5979C14.7254 8.55117 15.1105 7.20303 15.1008 5.74708C15.091 4.29112 14.6879 2.947 13.9378 1.91022C13.1877 0.873436 12.0127 0.119404 10.6696 0.128396ZM15.1008 5.74708C15.1105 7.20303 15.5137 8.54715 16.2638 9.58393C17.0138 10.6207 18.1901 11.3747 19.5319 11.3658C20.8751 11.3568 22.0398 10.5858 22.776 9.53908C23.5121 8.49234 23.8972 7.1442 23.8875 5.68825C23.8777 4.2323 23.4746 2.88818 22.7245 1.85139C21.9744 0.814609 20.7994 0.0605769 19.4563 0.069569C18.1132 0.0785612 16.9484 0.849514 16.2123 1.89625C15.4762 2.94298 15.091 4.29112 15.1008 5.74708ZM10.6864 2.63866C11.078 2.63604 11.5111 2.82895 11.909 3.37606C12.3018 3.92194 12.5838 4.79367 12.5903 5.76388C12.5968 6.7341 12.3265 7.61078 11.941 8.16062C11.5505 8.71301 11.12 8.9117 10.7284 8.91432C10.3368 8.91694 9.90366 8.72403 9.50583 8.17692C9.11303 7.63103 8.83103 6.75931 8.82454 5.7891C8.81804 4.81888 9.08834 3.9422 9.4738 3.39236C9.86427 2.83997 10.2948 2.64128 10.6864 2.63866ZM19.4731 2.57983C19.8648 2.57721 20.2979 2.77012 20.6957 3.31723C21.0885 3.86312 21.3705 4.73484 21.377 5.70506C21.3835 6.67527 21.1132 7.55195 20.7277 8.10179C20.3373 8.65418 19.9068 8.85287 19.5151 8.85549C19.1235 8.85811 18.6904 8.6652 18.2926 8.1181C17.8998 7.57221 17.6178 6.70048 17.6113 5.73027C17.6048 4.76005 17.8751 3.88337 18.2605 3.33353C18.651 2.78115 19.0815 2.58245 19.4731 2.57983ZM4.45218 8.95634C3.10907 8.96533 1.94429 9.73628 1.20816 10.783C0.472027 11.8298 0.0868882 13.1779 0.0966358 14.6338C0.106383 16.0898 0.509547 17.4339 1.25963 18.4707C2.00971 19.5075 3.1847 20.2615 4.52781 20.2525C5.87092 20.2435 7.0357 19.4726 7.77183 18.4258C8.50797 17.3791 8.89311 16.031 8.88336 14.575C8.87361 13.1191 8.47045 11.7749 7.72037 10.7382C6.97029 9.70138 5.7953 8.94735 4.45218 8.95634ZM25.7914 8.81347C24.4483 8.82246 23.2835 9.59342 22.5473 10.6402C21.8112 11.6869 21.4261 13.035 21.4358 14.491C21.4456 15.9469 21.8487 17.291 22.5988 18.3278C23.3489 19.3646 24.5239 20.1187 25.867 20.1097C27.2101 20.1007 28.3749 19.3297 29.111 18.283C29.8471 17.2362 30.2323 15.8881 30.2225 14.4322C30.2128 12.9762 29.8096 11.6321 29.0595 10.5953C28.3095 9.55851 27.1345 8.80448 25.7914 8.81347ZM4.46899 11.4666C4.86063 11.464 5.29374 11.6569 5.69157 12.204C6.08437 12.7499 6.36637 13.6216 6.37287 14.5918C6.37936 15.562 6.10906 16.4387 5.7236 16.9886C5.33314 17.5409 4.90264 17.7396 4.511 17.7423C4.11937 17.7449 3.68625 17.552 3.28842 17.0049C2.89563 16.4602 2.61362 15.5873 2.60713 14.617C2.60063 13.6468 2.87093 12.7701 3.25639 12.2203C3.64686 11.6679 4.07735 11.4692 4.46899 11.4666ZM25.8082 11.3237C26.1998 11.3211 26.6329 11.514 27.0307 12.0611C27.4235 12.607 27.7056 13.4787 27.712 14.449C27.7185 15.4192 27.4482 16.2959 27.0628 16.8457C26.6723 17.3981 26.2418 17.5968 25.8502 17.5994C25.4585 17.602 25.0254 17.4091 24.6276 16.862C24.2348 16.3161 23.9528 15.4444 23.9463 14.4742C23.9398 13.504 24.2101 12.6273 24.5956 12.0774C24.986 11.525 25.4165 11.3264 25.8082 11.3237ZM15.1554 13.9054C13.4821 13.9166 12.322 15.0101 11.7548 15.9679C11.1913 16.9256 10.8451 17.7212 10.5134 18.0548C10.3227 18.2531 9.11445 18.7168 7.85598 19.3692C7.22675 19.696 6.59322 20.1307 6.06164 20.7933C5.5263 21.4558 5.16837 22.3682 5.1752 23.3887C5.19134 25.7985 7.1879 27.7684 9.59797 27.7522C10.685 27.7449 11.8174 27.3859 12.9262 27.0647C14.04 26.7359 15.2394 26.4568 15.2394 26.4568C15.2394 26.4568 16.4425 26.7198 17.558 27.0312C18.6723 27.3375 19.8094 27.6813 20.8964 27.6741C23.3065 27.6579 25.2765 25.6615 25.2604 23.2517C25.2537 22.2551 24.8798 21.3464 24.3395 20.7098C23.8018 20.0695 23.1564 19.6759 22.5278 19.3475C21.2681 18.6907 20.0307 18.1718 19.8512 17.9923C19.548 17.6968 19.2036 16.8795 18.6197 15.9244C18.0371 14.9656 16.8374 13.8942 15.1554 13.9054ZM15.1722 16.4157C16.0007 16.4101 16.0936 16.6104 16.4706 17.2304C16.8513 17.8492 17.1396 18.9029 18.057 19.8092C19.0995 20.8315 20.4089 21.0487 21.3651 21.5494C21.8438 21.7997 22.2096 22.0671 22.4298 22.3267C22.6487 22.5851 22.7469 22.8217 22.7499 23.266C22.7569 24.3203 21.934 25.1542 20.8796 25.1613C20.5156 25.1637 19.3413 24.8954 18.2472 24.589C17.153 24.2863 16.2469 23.9371 15.2226 23.944C14.1983 23.9508 13.2969 24.3121 12.2069 24.6294C11.117 24.9505 9.94641 25.2345 9.58239 25.2369C8.52798 25.244 7.69397 24.4211 7.68692 23.3668C7.68353 22.861 7.78723 22.6005 7.99389 22.3431C8.20055 22.0869 8.58297 21.832 9.04833 21.5917C9.97904 21.1085 11.2782 20.9115 12.3318 19.8438C13.2457 18.9126 13.5146 17.8213 13.8833 17.2038C14.2457 16.5863 14.3324 16.4163 15.1709 16.4107L15.1722 16.4157Z" fill="white"/>
<path opacity="0.4" d="M61.7165 0.128396C60.3734 0.137388 59.2086 0.908341 58.4724 1.95508C57.7363 3.00181 57.3512 4.34995 57.3609 5.8059C57.3707 7.26186 57.7738 8.60597 58.5239 9.64276C59.274 10.6795 60.449 11.4336 61.7921 11.4246C63.1352 11.4156 64.3 10.6446 65.0361 9.5979C65.7722 8.55117 66.1574 7.20303 66.1476 5.74708C66.1379 4.29112 65.7347 2.947 64.9846 1.91022C64.2346 0.873436 63.0596 0.119404 61.7165 0.128396ZM66.1476 5.74708C66.1574 7.20303 66.5606 8.54715 67.3106 9.58393C68.0607 10.6207 69.237 11.3747 70.5788 11.3658C71.9219 11.3568 73.0867 10.5858 73.8228 9.53908C74.559 8.49234 74.9441 7.1442 74.9344 5.68825C74.9246 4.2323 74.5215 2.88818 73.7714 1.85139C73.0213 0.814609 71.8463 0.0605769 70.5032 0.069569C69.1601 0.0785612 67.9953 0.849514 67.2592 1.89625C66.523 2.94298 66.1379 4.29112 66.1476 5.74708ZM61.7333 2.63866C62.1249 2.63604 62.558 2.82895 62.9559 3.37606C63.3487 3.92194 63.6307 4.79367 63.6371 5.76388C63.6436 6.7341 63.3733 7.61078 62.9879 8.16062C62.5974 8.71301 62.1669 8.9117 61.7753 8.91432C61.3837 8.91694 60.9505 8.72403 60.5527 8.17692C60.1599 7.63103 59.8779 6.75931 59.8714 5.7891C59.8649 4.81888 60.1352 3.9422 60.5207 3.39236C60.9111 2.83997 61.3416 2.64128 61.7333 2.63866ZM70.52 2.57983C70.9116 2.57721 71.3447 2.77012 71.7426 3.31723C72.1354 3.86312 72.4174 4.73484 72.4239 5.70506C72.4304 6.67527 72.1601 7.55195 71.7746 8.10179C71.3841 8.65418 70.9536 8.85287 70.562 8.85549C70.1704 8.85811 69.7373 8.6652 69.3394 8.1181C68.9466 7.57221 68.6646 6.70048 68.6581 5.73027C68.6516 4.76005 68.9219 3.88337 69.3074 3.33353C69.6979 2.78115 70.1284 2.58245 70.52 2.57983ZM55.4991 8.95634C54.1559 8.96533 52.9912 9.73628 52.255 10.783C51.5189 11.8298 51.1338 13.1779 51.1435 14.6338C51.1533 16.0898 51.5564 17.4339 52.3065 18.4707C53.0566 19.5075 54.2316 20.2615 55.5747 20.2525C56.9178 20.2435 58.0826 19.4726 58.8187 18.4258C59.5548 17.3791 59.94 16.031 59.9302 14.575C59.9205 13.1191 59.5173 11.7749 58.7672 10.7382C58.0172 9.70138 56.8422 8.94735 55.4991 8.95634ZM76.8382 8.81347C75.4951 8.82246 74.3303 9.59342 73.5942 10.6402C72.8581 11.6869 72.4729 13.035 72.4827 14.491C72.4924 15.9469 72.8956 17.291 73.6457 18.3278C74.3958 19.3646 75.5708 20.1187 76.9139 20.1097C78.257 20.1007 79.4218 19.3297 80.1579 18.283C80.894 17.2362 81.2792 15.8881 81.2694 14.4322C81.2597 12.9762 80.8565 11.6321 80.1064 10.5953C79.3563 9.55851 78.1814 8.80448 76.8382 8.81347ZM55.5159 11.4666C55.9075 11.464 56.3406 11.6569 56.7384 12.204C57.1312 12.7499 57.4132 13.6216 57.4197 14.5918C57.4262 15.562 57.1559 16.4387 56.7705 16.9886C56.38 17.5409 55.9495 17.7396 55.5579 17.7423C55.1662 17.7449 54.7331 17.552 54.3353 17.0049C53.9425 16.4602 53.6605 15.5873 53.654 14.617C53.6475 13.6468 53.9178 12.7701 54.3033 12.2203C54.6937 11.6679 55.1242 11.4692 55.5159 11.4666ZM76.855 11.3237C77.2467 11.3211 77.6798 11.514 78.0776 12.0611C78.4704 12.607 78.7524 13.4787 78.7589 14.449C78.7654 15.4192 78.4951 16.2959 78.1097 16.8457C77.7192 17.3981 77.2887 17.5968 76.8971 17.5994C76.5054 17.602 76.0723 17.4091 75.6745 16.862C75.2817 16.3161 74.9997 15.4444 74.9932 14.4742C74.9867 13.504 75.257 12.6273 75.6424 12.0774C76.0329 11.525 76.4634 11.3264 76.855 11.3237ZM66.2023 13.9054C64.529 13.9166 63.3689 15.0101 62.8016 15.9679C62.2382 16.9256 61.892 17.7212 61.5603 18.0548C61.3696 18.2531 60.1613 18.7168 58.9029 19.3692C58.2736 19.696 57.6401 20.1307 57.1085 20.7933C56.5732 21.4558 56.2152 22.3682 56.2221 23.3887C56.2382 25.7985 58.2348 27.7684 60.6448 27.7522C61.7319 27.7449 62.8643 27.3859 63.9731 27.0647C65.0868 26.7359 66.2863 26.4568 66.2863 26.4568C66.2863 26.4568 67.4894 26.7198 68.6049 27.0312C69.7192 27.3375 70.8563 27.6813 71.9433 27.6741C74.3534 27.6579 76.3234 25.6615 76.3073 23.2517C76.3006 22.2551 75.9267 21.3464 75.3864 20.7098C74.8486 20.0695 74.2033 19.6759 73.5747 19.3475C72.315 18.6907 71.0775 18.1718 70.8981 17.9923C70.5948 17.6968 70.2504 16.8795 69.6666 15.9244C69.084 14.9656 67.8843 13.8942 66.2023 13.9054ZM66.2191 16.4157C67.0475 16.4101 67.1405 16.6104 67.5175 17.2304C67.8982 17.8492 68.1865 18.9029 69.1039 19.8092C70.1463 20.8315 71.4558 21.0487 72.412 21.5494C72.8906 21.7997 73.2565 22.0671 73.4766 22.3267C73.6955 22.5851 73.7938 22.8217 73.7967 23.266C73.8038 24.3203 72.9809 25.1542 71.9265 25.1613C71.5625 25.1637 70.3882 24.8954 69.294 24.589C68.1999 24.2863 67.2937 23.9371 66.2695 23.944C65.2452 23.9508 64.3438 24.3121 63.2538 24.6294C62.1638 24.9505 60.9933 25.2345 60.6293 25.2369C59.5749 25.244 58.7408 24.4211 58.7338 23.3668C58.7304 22.861 58.8341 22.6005 59.0408 22.3431C59.2474 22.0869 59.6298 21.832 60.0952 21.5917C61.0259 21.1085 62.3251 20.9115 63.3787 19.8438C64.2926 18.9126 64.5614 17.8213 64.9301 17.2038C65.2925 16.5863 65.3793 16.4163 66.2178 16.4107L66.2191 16.4157Z" fill="white"/>
<path opacity="0.6" d="M112.765 0.128396C111.422 0.137388 110.257 0.908341 109.521 1.95508C108.785 3.00181 108.4 4.34995 108.41 5.8059C108.419 7.26186 108.823 8.60597 109.573 9.64276C110.323 10.6795 111.498 11.4336 112.841 11.4246C114.184 11.4156 115.349 10.6446 116.085 9.5979C116.821 8.55117 117.206 7.20303 117.196 5.74708C117.187 4.29112 116.784 2.947 116.033 1.91022C115.283 0.873436 114.108 0.119404 112.765 0.128396ZM117.196 5.74708C117.206 7.20303 117.609 8.54715 118.359 9.58393C119.11 10.6207 120.286 11.3747 121.628 11.3658C122.971 11.3568 124.136 10.5858 124.872 9.53908C125.608 8.49234 125.993 7.1442 125.983 5.68825C125.973 4.2323 125.57 2.88818 124.82 1.85139C124.07 0.814609 122.895 0.0605769 121.552 0.069569C120.209 0.0785612 119.044 0.849514 118.308 1.89625C117.572 2.94298 117.187 4.29112 117.196 5.74708ZM112.782 2.63866C113.174 2.63604 113.607 2.82895 114.005 3.37606C114.397 3.92194 114.679 4.79367 114.686 5.76388C114.692 6.7341 114.422 7.61078 114.037 8.16062C113.646 8.71301 113.216 8.9117 112.824 8.91432C112.432 8.91694 111.999 8.72403 111.602 8.17692C111.209 7.63103 110.927 6.75931 110.92 5.7891C110.914 4.81888 111.184 3.9422 111.57 3.39236C111.96 2.83997 112.39 2.64128 112.782 2.63866ZM121.569 2.57983C121.96 2.57721 122.394 2.77012 122.791 3.31723C123.184 3.86312 123.466 4.73484 123.473 5.70506C123.479 6.67527 123.209 7.55195 122.823 8.10179C122.433 8.65418 122.002 8.85287 121.611 8.85549C121.219 8.85811 120.786 8.6652 120.388 8.1181C119.995 7.57221 119.713 6.70048 119.707 5.73027C119.7 4.76005 119.971 3.88337 120.356 3.33353C120.747 2.78115 121.177 2.58245 121.569 2.57983ZM106.548 8.95634C105.205 8.96533 104.04 9.73628 103.304 10.783C102.568 11.8298 102.183 13.1779 102.192 14.6338C102.202 16.0898 102.605 17.4339 103.355 18.4707C104.105 19.5075 105.28 20.2615 106.624 20.2525C107.967 20.2435 109.131 19.4726 109.868 18.4258C110.604 17.3791 110.989 16.031 110.979 14.575C110.969 13.1191 110.566 11.7749 109.816 10.7382C109.066 9.70138 107.891 8.94735 106.548 8.95634ZM127.887 8.81347C126.544 8.82246 125.379 9.59342 124.643 10.6402C123.907 11.6869 123.522 13.035 123.532 14.491C123.541 15.9469 123.944 17.291 124.695 18.3278C125.445 19.3646 126.62 20.1187 127.963 20.1097C129.306 20.1007 130.471 19.3297 131.207 18.283C131.943 17.2362 132.328 15.8881 132.318 14.4322C132.308 12.9762 131.905 11.6321 131.155 10.5953C130.405 9.55851 129.23 8.80448 127.887 8.81347ZM106.565 11.4666C106.956 11.464 107.389 11.6569 107.787 12.204C108.18 12.7499 108.462 13.6216 108.469 14.5918C108.475 15.562 108.205 16.4387 107.819 16.9886C107.429 17.5409 106.998 17.7396 106.607 17.7423C106.215 17.7449 105.782 17.552 105.384 17.0049C104.991 16.4602 104.709 15.5873 104.703 14.617C104.696 13.6468 104.967 12.7701 105.352 12.2203C105.743 11.6679 106.173 11.4692 106.565 11.4666ZM127.904 11.3237C128.296 11.3211 128.729 11.514 129.126 12.0611C129.519 12.607 129.801 13.4787 129.808 14.449C129.814 15.4192 129.544 16.2959 129.158 16.8457C128.768 17.3981 128.338 17.5968 127.946 17.5994C127.554 17.602 127.121 17.4091 126.723 16.862C126.331 16.3161 126.049 15.4444 126.042 14.4742C126.036 13.504 126.306 12.6273 126.691 12.0774C127.082 11.525 127.512 11.3264 127.904 11.3237ZM117.251 13.9054C115.578 13.9166 114.418 15.0101 113.85 15.9679C113.287 16.9256 112.941 17.7212 112.609 18.0548C112.418 18.2531 111.21 18.7168 109.952 19.3692C109.322 19.696 108.689 20.1307 108.157 20.7933C107.622 21.4558 107.264 22.3682 107.271 23.3887C107.287 25.7985 109.284 27.7684 111.694 27.7522C112.781 27.7449 113.913 27.3859 115.022 27.0647C116.136 26.7359 117.335 26.4568 117.335 26.4568C117.335 26.4568 118.538 26.7198 119.654 27.0312C120.768 27.3375 121.905 27.6813 122.992 27.6741C125.402 27.6579 127.372 25.6615 127.356 23.2517C127.349 22.2551 126.976 21.3464 126.435 20.7098C125.897 20.0695 125.252 19.6759 124.624 19.3475C123.364 18.6907 122.126 18.1718 121.947 17.9923C121.644 17.6968 121.299 16.8795 120.715 15.9244C120.133 14.9656 118.933 13.8942 117.251 13.9054ZM117.268 16.4157C118.096 16.4101 118.189 16.6104 118.566 17.2304C118.947 17.8492 119.235 18.9029 120.153 19.8092C121.195 20.8315 122.505 21.0487 123.461 21.5494C123.939 21.7997 124.305 22.0671 124.525 22.3267C124.744 22.5851 124.843 22.8217 124.846 23.266C124.853 24.3203 124.03 25.1542 122.975 25.1613C122.611 25.1637 121.437 24.8954 120.343 24.589C119.249 24.2863 118.343 23.9371 117.318 23.944C116.294 23.9508 115.393 24.3121 114.303 24.6294C113.213 24.9505 112.042 25.2345 111.678 25.2369C110.624 25.244 109.79 24.4211 109.783 23.3668C109.779 22.861 109.883 22.6005 110.09 22.3431C110.296 22.0869 110.679 21.832 111.144 21.5917C112.075 21.1085 113.374 20.9115 114.428 19.8438C115.341 18.9126 115.61 17.8213 115.979 17.2038C116.341 16.5863 116.428 16.4163 117.267 16.4107L117.268 16.4157Z" fill="white"/>
<path opacity="0.8" d="M163.814 0.128396C162.471 0.137388 161.306 0.908341 160.57 1.95508C159.834 3.00181 159.449 4.34995 159.459 5.8059C159.468 7.26186 159.871 8.60597 160.622 9.64276C161.372 10.6795 162.547 11.4336 163.89 11.4246C165.233 11.4156 166.398 10.6446 167.134 9.5979C167.87 8.55117 168.255 7.20303 168.245 5.74708C168.236 4.29112 167.832 2.947 167.082 1.91022C166.332 0.873436 165.157 0.119404 163.814 0.128396ZM168.245 5.74708C168.255 7.20303 168.658 8.54715 169.408 9.58393C170.158 10.6207 171.335 11.3747 172.676 11.3658C174.02 11.3568 175.184 10.5858 175.92 9.53908C176.657 8.49234 177.042 7.1442 177.032 5.68825C177.022 4.2323 176.619 2.88818 175.869 1.85139C175.119 0.814609 173.944 0.0605769 172.601 0.069569C171.258 0.0785612 170.093 0.849514 169.357 1.89625C168.621 2.94298 168.236 4.29112 168.245 5.74708ZM163.831 2.63866C164.223 2.63604 164.656 2.82895 165.054 3.37606C165.446 3.92194 165.728 4.79367 165.735 5.76388C165.741 6.7341 165.471 7.61078 165.086 8.16062C164.695 8.71301 164.265 8.9117 163.873 8.91432C163.481 8.91694 163.048 8.72403 162.65 8.17692C162.258 7.63103 161.976 6.75931 161.969 5.7891C161.963 4.81888 162.233 3.9422 162.618 3.39236C163.009 2.83997 163.439 2.64128 163.831 2.63866ZM172.618 2.57983C173.009 2.57721 173.442 2.77012 173.84 3.31723C174.233 3.86312 174.515 4.73484 174.522 5.70506C174.528 6.67527 174.258 7.55195 173.872 8.10179C173.482 8.65418 173.051 8.85287 172.66 8.85549C172.268 8.85811 171.835 8.6652 171.437 8.1181C171.044 7.57221 170.762 6.70048 170.756 5.73027C170.749 4.76005 171.02 3.88337 171.405 3.33353C171.796 2.78115 172.226 2.58245 172.618 2.57983ZM157.597 8.95634C156.254 8.96533 155.089 9.73628 154.353 10.783C153.617 11.8298 153.231 13.1779 153.241 14.6338C153.251 16.0898 153.654 17.4339 154.404 18.4707C155.154 19.5075 156.329 20.2615 157.672 20.2525C159.015 20.2435 160.18 19.4726 160.916 18.4258C161.652 17.3791 162.038 16.031 162.028 14.575C162.018 13.1191 161.615 11.7749 160.865 10.7382C160.115 9.70138 158.94 8.94735 157.597 8.95634ZM178.936 8.81347C177.593 8.82246 176.428 9.59342 175.692 10.6402C174.956 11.6869 174.571 13.035 174.58 14.491C174.59 15.9469 174.993 17.291 175.743 18.3278C176.493 19.3646 177.668 20.1187 179.012 20.1097C180.355 20.1007 181.519 19.3297 182.256 18.283C182.992 17.2362 183.377 15.8881 183.367 14.4322C183.357 12.9762 182.954 11.6321 182.204 10.5953C181.454 9.55851 180.279 8.80448 178.936 8.81347ZM157.614 11.4666C158.005 11.464 158.438 11.6569 158.836 12.204C159.229 12.7499 159.511 13.6216 159.517 14.5918C159.524 15.562 159.254 16.4387 158.868 16.9886C158.478 17.5409 158.047 17.7396 157.656 17.7423C157.264 17.7449 156.831 17.552 156.433 17.0049C156.04 16.4602 155.758 15.5873 155.752 14.617C155.745 13.6468 156.015 12.7701 156.401 12.2203C156.791 11.6679 157.222 11.4692 157.614 11.4666ZM178.953 11.3237C179.344 11.3211 179.777 11.514 180.175 12.0611C180.568 12.607 180.85 13.4787 180.857 14.449C180.863 15.4192 180.593 16.2959 180.207 16.8457C179.817 17.3981 179.386 17.5968 178.995 17.5994C178.603 17.602 178.17 17.4091 177.772 16.862C177.379 16.3161 177.097 15.4444 177.091 14.4742C177.084 13.504 177.355 12.6273 177.74 12.0774C178.131 11.525 178.561 11.3264 178.953 11.3237ZM168.3 13.9054C166.627 13.9166 165.467 15.0101 164.899 15.9679C164.336 16.9256 163.99 17.7212 163.658 18.0548C163.467 18.2531 162.259 18.7168 161.001 19.3692C160.371 19.696 159.738 20.1307 159.206 20.7933C158.671 21.4558 158.313 22.3682 158.32 23.3887C158.336 25.7985 160.332 27.7684 162.743 27.7522C163.83 27.7449 164.962 27.3859 166.071 27.0647C167.184 26.7359 168.384 26.4568 168.384 26.4568C168.384 26.4568 169.587 26.7198 170.703 27.0312C171.817 27.3375 172.954 27.6813 174.041 27.6741C176.451 27.6579 178.421 25.6615 178.405 23.2517C178.398 22.2551 178.024 21.3464 177.484 20.7098C176.946 20.0695 176.301 19.6759 175.672 19.3475C174.413 18.6907 173.175 18.1718 172.996 17.9923C172.692 17.6968 172.348 16.8795 171.764 15.9244C171.182 14.9656 169.982 13.8942 168.3 13.9054ZM168.317 16.4157C169.145 16.4101 169.238 16.6104 169.615 17.2304C169.996 17.8492 170.284 18.9029 171.202 19.8092C172.244 20.8315 173.553 21.0487 174.51 21.5494C174.988 21.7997 175.354 22.0671 175.574 22.3267C175.793 22.5851 175.891 22.8217 175.894 23.266C175.901 24.3203 175.079 25.1542 174.024 25.1613C173.66 25.1637 172.486 24.8954 171.392 24.589C170.298 24.2863 169.391 23.9371 168.367 23.944C167.343 23.9508 166.441 24.3121 165.351 24.6294C164.261 24.9505 163.091 25.2345 162.727 25.2369C161.673 25.244 160.839 24.4211 160.831 23.3668C160.828 22.861 160.932 22.6005 161.138 22.3431C161.345 22.0869 161.728 21.832 162.193 21.5917C163.124 21.1085 164.423 20.9115 165.476 19.8438C166.39 18.9126 166.659 17.8213 167.028 17.2038C167.39 16.5863 167.477 16.4163 168.315 16.4107L168.317 16.4157Z" fill="white"/>
</g>
</svg>
