<svg width="38" height="22" viewBox="0 0 38 22" fill="none" xmlns="http://www.w3.org/2000/svg">
<path d="M21.4815 0.789405C21.9211 0.336426 22.506 0.0860008 23.1128 0.0909714C23.7197 0.095942 24.301 0.35592 24.7341 0.816047C25.1673 1.27617 25.4184 1.90046 25.4344 2.55718C25.4505 3.21389 25.2302 3.85167 24.8201 4.33593L12.3706 21.1904C12.1565 21.44 11.8982 21.6403 11.6109 21.7793C11.3237 21.9183 11.0135 21.9933 10.699 21.9996C10.3844 22.0059 10.0719 21.9434 9.78009 21.816C9.48832 21.6886 9.22327 21.4988 9.00081 21.2579L0.744812 12.3207C0.514896 12.0888 0.330487 11.8091 0.202585 11.4983C0.0746824 11.1876 0.00590808 10.8522 0.000364191 10.512C-0.0051797 10.1719 0.0526205 9.83402 0.170317 9.51859C0.288013 9.20316 0.463194 8.91662 0.68541 8.67607C0.907625 8.43552 1.17232 8.24588 1.46371 8.11847C1.7551 7.99107 2.06721 7.9285 2.38142 7.9345C2.69563 7.9405 3.0055 8.01495 3.29256 8.1534C3.57961 8.29186 3.83797 8.49149 4.0522 8.74037L10.5859 15.8098L21.4191 0.863714L21.4815 0.789405ZM18.611 18.1505L21.4815 21.2579C21.7039 21.4982 21.9688 21.6876 22.2603 21.8147C22.5518 21.9419 22.8639 22.0041 23.1781 21.9978C23.4923 21.9915 23.8021 21.9168 24.0891 21.778C24.376 21.6393 24.6342 21.4394 24.8482 21.1904L37.304 4.33593C37.5277 4.0968 37.7047 3.8113 37.8242 3.4965C37.9438 3.1817 38.0035 2.84404 37.9998 2.5037C37.9962 2.16335 37.9292 1.82729 37.8029 1.51559C37.6766 1.20389 37.4935 0.922946 37.2647 0.689526C37.0358 0.456107 36.7659 0.275002 36.471 0.15703C36.176 0.0390566 35.8621 -0.0133666 35.5481 0.00289172C35.234 0.01915 34.9262 0.103757 34.643 0.251658C34.3598 0.399559 34.1071 0.607721 33.8998 0.863714L23.0635 15.8098L21.5502 14.1682L18.611 18.1505Z" fill="#5D6FFB"/>
</svg>
