<svg width="17" height="15" viewBox="0 0 17 15" fill="none" xmlns="http://www.w3.org/2000/svg">
<path d="M15.6168 5.63025L10.8872 4.97043L8.77286 0.855923C8.71511 0.743271 8.62011 0.652076 8.50275 0.596643C8.20843 0.457169 7.85076 0.573398 7.7036 0.855923L5.58931 4.97043L0.859619 5.63025C0.729222 5.64813 0.610002 5.70714 0.518724 5.79655C0.408374 5.90542 0.347566 6.0519 0.349662 6.20378C0.351758 6.35567 0.416585 6.50055 0.529901 6.60658L3.95189 9.80913L3.14343 14.3313C3.12447 14.4365 3.1366 14.5447 3.17844 14.6436C3.22027 14.7426 3.29015 14.8282 3.38014 14.891C3.47012 14.9537 3.57662 14.991 3.68756 14.9986C3.79849 15.0062 3.90943 14.9838 4.00778 14.9339L8.23823 12.7989L12.4687 14.9339C12.5842 14.9929 12.7183 15.0126 12.8468 14.9912C13.171 14.9375 13.3889 14.6425 13.333 14.3313L12.5246 9.80913L15.9466 6.60658C16.0397 6.51896 16.1012 6.40452 16.1198 6.27935C16.1701 5.96642 15.9428 5.67674 15.6168 5.63025Z" fill="#FE9D02"/>
</svg>
