<svg width="20" height="22" viewBox="0 0 20 22" fill="none" xmlns="http://www.w3.org/2000/svg">
<path d="M20 6.51852V10.5926C20 10.8087 19.919 11.0159 19.7747 11.1688C19.6304 11.3216 19.4348 11.4074 19.2308 11.4074C17.6239 11.4114 16.0401 11.0021 14.6154 10.2147V14.2593C14.6154 16.3122 13.8455 18.2811 12.475 19.7328C11.1046 21.1845 9.24581 22 7.30769 22C5.36957 22 3.51083 21.1845 2.14037 19.7328C0.769915 18.2811 0 16.3122 0 14.2593C0 10.5009 2.5875 7.17852 6.01923 6.53074C6.12994 6.5099 6.24361 6.51502 6.35225 6.54574C6.46089 6.57646 6.56185 6.63203 6.64802 6.70855C6.73419 6.78507 6.80348 6.88067 6.851 6.98861C6.89852 7.09656 6.92313 7.21423 6.92308 7.33333V11.6814C6.92312 11.8356 6.88186 11.9867 6.80407 12.117C6.72629 12.2474 6.61518 12.3517 6.48365 12.4178C6.17273 12.574 5.90706 12.8157 5.71437 13.1177C5.52168 13.4197 5.40903 13.7709 5.38816 14.1348C5.36728 14.4986 5.43896 14.8617 5.59571 15.1862C5.75246 15.5107 5.98854 15.7847 6.27933 15.9796C6.57011 16.1746 6.90495 16.2833 7.24891 16.2944C7.59286 16.3056 7.93334 16.2187 8.23483 16.043C8.53632 15.8673 8.78776 15.6091 8.96294 15.2953C9.13812 14.9816 9.23061 14.6238 9.23077 14.2593V0.814815C9.23077 0.598713 9.31181 0.391461 9.45607 0.238654C9.60033 0.0858463 9.79599 0 10 0H13.8462C14.0502 0 14.2458 0.0858463 14.3901 0.238654C14.5343 0.391461 14.6154 0.598713 14.6154 0.814815C14.6167 2.11101 15.1033 3.35374 15.9686 4.27029C16.8339 5.18684 18.0071 5.70236 19.2308 5.7037C19.4348 5.7037 19.6304 5.78955 19.7747 5.94236C19.919 6.09516 20 6.30242 20 6.51852Z" fill="#072D6F"/>
</svg>
