<svg width="19" height="21" viewBox="0 0 19 21" fill="none" xmlns="http://www.w3.org/2000/svg">
<path d="M19 6.61636V10.3201C19 10.5165 18.923 10.7049 18.786 10.8438C18.6489 10.9828 18.463 11.0608 18.2692 11.0608C16.7427 11.0644 15.238 10.6923 13.8846 9.97654V13.6534C13.8846 15.5197 13.1532 17.3096 11.8513 18.6293C10.5493 19.949 8.78352 20.6904 6.94231 20.6904C5.10109 20.6904 3.33529 19.949 2.03335 18.6293C0.73142 17.3096 0 15.5197 0 13.6534C0 10.2367 2.45812 7.21636 5.71827 6.62747C5.82344 6.60852 5.93143 6.61317 6.03464 6.6411C6.13785 6.66903 6.23376 6.71955 6.31562 6.78911C6.39748 6.85867 6.4633 6.94558 6.50845 7.04371C6.5536 7.14185 6.57697 7.24882 6.57692 7.3571V11.3099C6.57697 11.4501 6.53776 11.5874 6.46387 11.7059C6.38997 11.8244 6.28442 11.9192 6.15947 11.9793C5.86409 12.1213 5.61171 12.341 5.42866 12.6156C5.2456 12.8901 5.13858 13.2095 5.11875 13.5402C5.09892 13.871 5.16701 14.2011 5.31593 14.4961C5.46484 14.7911 5.68912 15.0402 5.96536 15.2174C6.24161 15.3946 6.5597 15.4934 6.88646 15.5035C7.21322 15.5137 7.53668 15.4347 7.82309 15.275C8.1095 15.1152 8.34838 14.8805 8.51479 14.5953C8.68121 14.31 8.76908 13.9848 8.76923 13.6534V1.43117C8.76923 1.23471 8.84622 1.0463 8.98327 0.907388C9.12031 0.768472 9.30619 0.69043 9.5 0.69043H13.1538C13.3477 0.69043 13.5335 0.768472 13.6706 0.907388C13.8076 1.0463 13.8846 1.23471 13.8846 1.43117C13.8858 2.60953 14.3482 3.73928 15.1702 4.57251C15.9922 5.40574 17.1067 5.87439 18.2692 5.87561C18.463 5.87561 18.6489 5.95366 18.786 6.09257C18.923 6.23149 19 6.4199 19 6.61636Z" fill="white"/>
</svg>
