<svg width="105" height="110" viewBox="0 0 105 110" fill="none" xmlns="http://www.w3.org/2000/svg">
<path d="M105 32.5926V52.963C105 54.0435 104.575 55.0797 103.817 55.8438C103.06 56.6078 102.033 57.037 100.962 57.037C92.5252 57.0568 84.2103 55.0104 76.7308 51.0736V71.2963C76.7308 81.5612 72.6887 91.4056 65.4938 98.6639C58.2989 105.922 48.5405 110 38.3654 110C28.1903 110 18.4319 105.922 11.237 98.6639C4.04206 91.4056 0 81.5612 0 71.2963C0 52.5046 13.5844 35.8926 31.601 32.6537C32.1822 32.5495 32.779 32.5751 33.3493 32.7287C33.9197 32.8823 34.4497 33.1602 34.9021 33.5428C35.3545 33.9253 35.7183 34.4033 35.9678 34.9431C36.2172 35.4828 36.3464 36.0711 36.3462 36.6667V58.4069C36.3464 59.178 36.1298 59.9333 35.7214 60.5851C35.313 61.2368 34.7297 61.7583 34.0392 62.0889C32.4068 62.8699 31.0121 64.0784 30.0005 65.5884C28.9888 67.0985 28.3974 68.8547 28.2878 70.6739C28.1782 72.4931 28.5546 74.3086 29.3775 75.9311C30.2004 77.5536 31.4399 78.9236 32.9665 79.8982C34.4931 80.8728 36.251 81.4163 38.0568 81.4721C39.8625 81.5278 41.6501 81.0936 43.2329 80.215C44.8157 79.3363 46.1358 78.0453 47.0554 76.4765C47.9751 74.9078 48.4607 73.1189 48.4615 71.2963V4.07407C48.4615 2.99356 48.887 1.95731 49.6444 1.19327C50.4017 0.429231 51.4289 0 52.5 0H72.6923C73.7634 0 74.7906 0.429231 75.5479 1.19327C76.3053 1.95731 76.7308 2.99356 76.7308 4.07407C76.7375 10.5551 79.2925 16.7687 83.8352 21.3515C88.3779 25.9342 94.5372 28.5118 100.962 28.5185C102.033 28.5185 103.06 28.9478 103.817 29.7118C104.575 30.4758 105 31.5121 105 32.5926Z" fill="#E2ECFB"/>
</svg>
