<svg width="47" height="71" viewBox="0 0 47 71" fill="none" xmlns="http://www.w3.org/2000/svg">
<path fill-rule="evenodd" clip-rule="evenodd" d="M16.1002 21.7421L12.593 26.5514C10.8558 28.9727 11.3803 33.2513 13.773 34.9761L20.263 39.6527C21.3774 40.4488 21.4758 41.2448 20.9513 42.1072L21.9019 42.8037L25.1796 38.2597C27.2118 35.4404 27.0152 31.6261 24.0324 29.437L17.4769 24.6608C16.6902 24.097 16.6247 23.3009 17.0508 22.4054L16.1002 21.7421ZM21.738 0.448242L16.2969 7.97736C13.7403 11.4932 14.658 17.5297 18.1652 20.1168L27.1135 26.6841C28.9163 28.0108 29.1785 31.3939 27.8346 33.1518L28.5885 33.7157L34.7835 25.0257C37.5696 21.1119 37.4057 15.3738 33.0463 12.1897L23.4752 5.22442C22.1313 4.26255 21.4758 2.60416 22.5902 1.0121L21.738 0.448242ZM7.38141 47.6794H14.5925L15.8708 52.0575H27.6707L28.9491 47.6794H36.1601L35.2096 44.4621H8.29919L7.38141 47.6794ZM7.90585 67.6465H3.57922V64.0312H7.90585C11.0853 64.0312 10.8886 67.6465 7.90585 67.6465ZM22.7213 67.6465H18.3947V64.0312H22.7213C25.9007 64.0312 25.7369 67.6465 22.7213 67.6465ZM37.5696 67.6465H33.2429V64.0312H37.5696C40.749 64.0312 40.5523 67.6465 37.5696 67.6465ZM7.61086 61.1787H3.57922V57.7956H7.44697C9.90529 57.7956 9.97084 61.1787 7.61086 61.1787ZM22.4263 61.1787H18.3947V57.7956H22.2624C24.7207 57.7956 24.7863 61.1787 22.4263 61.1787ZM37.2746 61.1787H33.2429V57.7956H37.1107C39.5362 57.7956 39.6345 61.1787 37.2746 61.1787ZM13.5764 65.6232C13.2814 63.5336 12.4292 63.0361 10.7575 62.3064C12.0358 61.5767 12.7897 60.4822 12.7897 58.9896C12.7897 56.0045 10.3314 54.7773 7.67641 54.7773H0.203125V70.6316H7.61086C10.7575 70.6316 14.1008 69.2717 13.5764 65.6232ZM28.3918 65.6232C28.0968 63.5336 27.2446 63.0361 25.573 62.3064C26.8513 61.5767 27.6052 60.4822 27.6052 58.9896C27.6052 56.0045 25.1469 54.7773 22.4919 54.7773H15.0186V70.6316H22.4263C25.573 70.6316 28.9163 69.2717 28.3918 65.6232ZM43.2073 65.6232C42.9123 63.5336 42.0601 63.0361 40.3884 62.3064C41.6668 61.5767 42.4206 60.4822 42.4206 58.9896C42.4206 56.0045 39.9623 54.7773 37.3073 54.7773H29.8668V70.6316H37.2746C40.4212 70.6316 43.7645 69.2717 43.2073 65.6232ZM44.6495 70.1341C44.6495 70.0677 44.6495 70.0014 44.6167 69.9682C44.584 69.9351 44.584 69.8687 44.5184 69.8355C44.4856 69.8024 44.4201 69.736 44.3545 69.7029C44.289 69.6697 44.1906 69.6365 44.0923 69.6034C43.994 69.5702 43.9284 69.537 43.8629 69.5039C43.7973 69.4707 43.7645 69.4375 43.7317 69.4044C43.699 69.3712 43.6662 69.338 43.6662 69.3049C43.6662 69.2717 43.6334 69.2385 43.6334 69.2054C43.6334 69.1722 43.6334 69.139 43.6662 69.1059C43.6662 69.0727 43.699 69.0395 43.7317 69.0063C43.7645 68.9732 43.7973 68.9732 43.8301 68.94C43.8629 68.94 43.9284 68.9069 43.994 68.9069C44.0923 68.9069 44.1578 68.94 44.2234 68.94C44.289 68.9732 44.3545 69.0064 44.4201 69.0727L44.5512 68.9069C44.4856 68.8405 44.3873 68.8073 44.3217 68.7742C44.2234 68.741 44.1251 68.741 43.994 68.741C43.8956 68.741 43.8301 68.741 43.7645 68.7742C43.699 68.8073 43.6334 68.8073 43.5678 68.8737C43.5351 68.9068 43.4695 68.9732 43.4367 69.0063C43.404 69.0727 43.404 69.139 43.404 69.2054C43.404 69.2717 43.404 69.338 43.4367 69.3712C43.4695 69.4044 43.4695 69.4707 43.5351 69.5039C43.5679 69.537 43.6334 69.5702 43.699 69.6034C43.7645 69.6365 43.8629 69.6697 43.9612 69.7029C44.0595 69.736 44.1251 69.7692 44.1579 69.8024C44.2234 69.8355 44.2562 69.8687 44.289 69.9019C44.3217 69.9351 44.3545 69.9682 44.3545 70.0014C44.3545 70.0346 44.3873 70.0677 44.3873 70.1009C44.3873 70.2004 44.3545 70.2667 44.289 70.3331C44.2234 70.3662 44.1251 70.3994 43.994 70.3994C43.8956 70.3994 43.7973 70.3662 43.7317 70.3331C43.6334 70.2999 43.5679 70.2336 43.5023 70.1672L43.3712 70.2999C43.4367 70.3662 43.5351 70.4326 43.6334 70.4657C43.7317 70.4989 43.8629 70.5321 43.994 70.5321C44.0923 70.5321 44.1906 70.5321 44.2562 70.4989C44.3217 70.4657 44.3873 70.4326 44.4528 70.3994C44.5184 70.3662 44.5512 70.2999 44.584 70.2336C44.6495 70.2667 44.6495 70.2004 44.6495 70.1341ZM46.5506 70.5984V68.8073H46.3212L45.8951 69.8687C45.8951 69.9019 45.8623 69.9351 45.8623 69.9682L45.8295 70.0677L45.7967 70.1672L45.764 70.2336L45.7312 70.1672L45.6984 70.0677L45.6656 69.9682L45.6328 69.8687L45.2067 68.8073H44.9773V70.5984H45.174V69.2054L45.2067 69.2717L45.2395 69.338C45.2395 69.3712 45.2723 69.3712 45.2723 69.4044C45.2723 69.4375 45.3051 69.4707 45.3051 69.4707L45.7967 70.6316L46.2884 69.4707L46.3212 69.4044L46.3539 69.338C46.3539 69.3049 46.3867 69.2717 46.3867 69.2717L46.4195 69.2054V70.5984H46.5506Z" fill="#234683"/>
</svg>
