<svg width="125" height="126" viewBox="0 0 125 126" fill="none" xmlns="http://www.w3.org/2000/svg">
<mask id="path-1-inside-1_0_550" fill="white">
<path d="M124.628 62.8504C124.628 77.2495 119.636 91.2031 110.501 102.334C101.366 113.464 88.6549 121.083 74.5324 123.893C60.41 126.702 45.7505 124.527 33.0516 117.739C20.3527 110.952 10.4002 99.9709 4.88994 86.6678C-0.620363 73.3648 -1.34755 58.5627 2.83229 44.7836C7.01213 31.0045 15.8404 19.101 27.8128 11.1013C39.7852 3.1016 54.161 -0.49936 68.4908 0.911997C82.8205 2.32335 96.2176 8.6597 106.399 18.8414L102.727 22.5134C93.3952 13.1812 81.1159 7.37354 67.9818 6.07995C54.8476 4.78635 41.6713 8.08685 30.6978 15.4191C19.7244 22.7513 11.6327 33.6616 7.80164 46.291C3.97056 58.9204 4.63706 72.4875 9.6876 84.6806C14.7381 96.8736 23.8602 106.938 35.4995 113.16C47.1388 119.381 60.5752 121.374 73.5193 118.799C86.4634 116.225 98.1143 109.241 106.487 99.0394C114.859 88.8374 119.435 76.048 119.435 62.8504H124.628Z"/>
</mask>
<path d="M124.628 62.8504C124.628 77.2495 119.636 91.2031 110.501 102.334C101.366 113.464 88.6549 121.083 74.5324 123.893C60.41 126.702 45.7505 124.527 33.0516 117.739C20.3527 110.952 10.4002 99.9709 4.88994 86.6678C-0.620363 73.3648 -1.34755 58.5627 2.83229 44.7836C7.01213 31.0045 15.8404 19.101 27.8128 11.1013C39.7852 3.1016 54.161 -0.49936 68.4908 0.911997C82.8205 2.32335 96.2176 8.6597 106.399 18.8414L102.727 22.5134C93.3952 13.1812 81.1159 7.37354 67.9818 6.07995C54.8476 4.78635 41.6713 8.08685 30.6978 15.4191C19.7244 22.7513 11.6327 33.6616 7.80164 46.291C3.97056 58.9204 4.63706 72.4875 9.6876 84.6806C14.7381 96.8736 23.8602 106.938 35.4995 113.16C47.1388 119.381 60.5752 121.374 73.5193 118.799C86.4634 116.225 98.1143 109.241 106.487 99.0394C114.859 88.8374 119.435 76.048 119.435 62.8504H124.628Z" stroke="#FFC24F" stroke-width="8" mask="url(#path-1-inside-1_0_550)"/>
</svg>
