<svg width="43" height="43" viewBox="0 0 43 43" fill="none" xmlns="http://www.w3.org/2000/svg">
<path d="M10.1699 5.29783H20.3398C21.7381 5.29783 22.8822 4.10603 22.8822 2.6494C22.8822 1.19278 21.7381 0.000976562 20.3398 0.000976562H10.1699C8.77151 0.000976562 7.62738 1.19278 7.62738 2.6494C7.62738 4.10603 8.77151 5.29783 10.1699 5.29783ZM12.7123 1.7666H17.7973C18.2634 1.7666 18.6448 2.16386 18.6448 2.6494C18.6448 3.13495 18.2634 3.53221 17.7973 3.53221H12.7123C12.2462 3.53221 11.8648 3.13495 11.8648 2.6494C11.8648 2.16386 12.2462 1.7666 12.7123 1.7666ZM33.0522 17.6572H39.8321V33.5477C39.8321 36.5846 38.866 39.5949 37.1201 42.0227C36.9591 42.2434 36.7049 42.3758 36.4421 42.3758C36.1794 42.3758 35.9252 42.2434 35.7641 42.0227C34.0183 39.595 33.0522 36.5846 33.0522 33.5477V17.6572ZM27.9672 1.7666H24.4925C24.5518 2.04909 24.5773 2.34922 24.5773 2.6494C24.5773 5.08596 22.6789 7.06345 20.3398 7.06345H10.1699C7.8308 7.06345 5.93242 5.08596 5.93242 2.6494C5.93242 2.34925 5.95785 2.04909 6.01717 1.7666H2.54248C1.14413 1.7666 0 2.9584 0 4.41502V39.7274C0 41.184 1.14413 42.3758 2.54248 42.3758H27.9673C29.3656 42.3758 30.5097 41.184 30.5097 39.7274V4.41502C30.5097 2.9584 29.3655 1.7666 27.9672 1.7666ZM12.1108 12.6162C12.4413 12.272 12.9753 12.272 13.3058 12.6162L14.399 13.7551L18.0348 9.96782C18.3653 9.62352 18.8992 9.62352 19.2297 9.96782C19.5602 10.3121 19.5602 10.8683 19.2297 11.2126L14.9922 15.6266C14.8227 15.8032 14.6109 15.8826 14.3905 15.8826C14.1701 15.8826 13.9583 15.7943 13.7888 15.6266L12.0938 13.861C11.7633 13.5167 11.7633 12.9605 12.0938 12.6162H12.1108ZM26.2722 37.9615H4.23741C3.77128 37.9615 3.38992 37.5642 3.38992 37.0787C3.38992 36.5931 3.77128 36.1959 4.23741 36.1959H26.2722C26.7383 36.1959 27.1197 36.5931 27.1197 37.0787C27.1197 37.5642 26.7383 37.9615 26.2722 37.9615ZM26.2722 32.6646H4.23741C3.77128 32.6646 3.38992 32.2674 3.38992 31.7818C3.38992 31.2963 3.77128 30.899 4.23741 30.899H26.2722C26.7383 30.899 27.1197 31.2963 27.1197 31.7818C27.1197 32.2674 26.7383 32.6646 26.2722 32.6646ZM26.2722 26.4847H4.23741C3.77128 26.4847 3.38992 26.0874 3.38992 25.6019C3.38992 25.1163 3.77128 24.7191 4.23741 24.7191H26.2722C26.7383 24.7191 27.1197 25.1163 27.1197 25.6019C27.1197 26.0874 26.7383 26.4847 26.2722 26.4847ZM26.2722 21.1878H4.23741C3.77128 21.1878 3.38992 20.7906 3.38992 20.305C3.38992 19.8195 3.77128 19.4222 4.23741 19.4222H26.2722C26.7383 19.4222 27.1197 19.8195 27.1197 20.305C27.1197 20.7906 26.7383 21.1878 26.2722 21.1878ZM42.3748 15.0079V25.6016C42.3748 26.0871 41.9935 26.4844 41.5274 26.4844C41.0612 26.4844 40.6799 26.0871 40.6799 25.6016V15.8904H33.0527V12.3592C33.0527 10.4082 34.5697 8.82794 36.4427 8.82794C38.3156 8.82794 39.8326 10.4082 39.8326 12.3592V14.1248H41.5276C41.9937 14.1248 42.3748 14.5223 42.3748 15.0079Z" fill="#234683"/>
</svg>
