<svg width="125" height="125" viewBox="0 0 125 125" fill="none" xmlns="http://www.w3.org/2000/svg">
<mask id="path-1-inside-1_0_536" fill="white">
<path d="M124.734 62.532C124.734 76.9311 119.741 90.8847 110.607 102.015C101.472 113.146 88.7603 120.765 74.6379 123.574C60.5155 126.383 45.8559 124.209 33.1571 117.421C20.4582 110.633 10.5057 99.6525 4.9954 86.3495C-0.514895 73.0464 -1.24208 58.2443 2.93776 44.4652C7.1176 30.6862 15.9458 18.7827 27.9182 10.783C39.8907 2.78324 54.2665 -0.817719 68.5963 0.593638C82.926 2.00499 96.3231 8.34134 106.505 18.523L102.739 22.289C93.4284 12.9786 81.1778 7.18444 68.0742 5.89386C54.9707 4.60327 41.825 7.89609 30.8771 15.2112C19.9292 22.5264 11.8565 33.4113 8.03429 46.0113C4.21214 58.6112 4.87709 72.1467 9.91586 84.3113C14.9546 96.476 24.0554 106.517 35.6676 112.724C47.2798 118.931 60.6849 120.919 73.5989 118.351C86.5128 115.782 98.1366 108.815 106.49 98.6367C114.843 88.4585 119.408 75.6989 119.408 62.532H124.734Z"/>
</mask>
<path d="M124.734 62.532C124.734 76.9311 119.741 90.8847 110.607 102.015C101.472 113.146 88.7603 120.765 74.6379 123.574C60.5155 126.383 45.8559 124.209 33.1571 117.421C20.4582 110.633 10.5057 99.6525 4.9954 86.3495C-0.514895 73.0464 -1.24208 58.2443 2.93776 44.4652C7.1176 30.6862 15.9458 18.7827 27.9182 10.783C39.8907 2.78324 54.2665 -0.817719 68.5963 0.593638C82.926 2.00499 96.3231 8.34134 106.505 18.523L102.739 22.289C93.4284 12.9786 81.1778 7.18444 68.0742 5.89386C54.9707 4.60327 41.825 7.89609 30.8771 15.2112C19.9292 22.5264 11.8565 33.4113 8.03429 46.0113C4.21214 58.6112 4.87709 72.1467 9.91586 84.3113C14.9546 96.476 24.0554 106.517 35.6676 112.724C47.2798 118.931 60.6849 120.919 73.5989 118.351C86.5128 115.782 98.1366 108.815 106.49 98.6367C114.843 88.4585 119.408 75.6989 119.408 62.532H124.734Z" stroke="#FFC24F" stroke-width="8" mask="url(#path-1-inside-1_0_536)"/>
</svg>
