<svg width="41" height="48" viewBox="0 0 41 48" fill="none" xmlns="http://www.w3.org/2000/svg">
<path d="M31.6047 27.334C31.8951 27.334 32.177 27.3425 32.4589 27.3767V9.39587H7.68774C6.27835 9.39587 5.12518 8.2427 5.12518 6.83331V4.27075C5.12518 3.80949 4.73225 3.41656 4.27099 3.41656C2.8616 3.41656 1.70843 2.2634 1.70843 0.854004C0.674882 1.63133 6.10352e-05 2.87841 6.10352e-05 4.27075V41.001C6.10352e-05 41.3427 0.196527 41.6417 0.504034 41.7784L4.34785 43.4868C4.45889 43.538 4.57848 43.5636 4.69806 43.5636C4.81764 43.5636 4.92869 43.538 5.03973 43.4868L8.54187 41.9321L12.0355 43.4868C12.2576 43.5893 12.5053 43.5893 12.7274 43.4868L16.221 41.9321L19.7146 43.4868C19.9367 43.5893 20.1929 43.5893 20.415 43.4868L21.4827 43.0084C20.8335 41.5904 20.5004 40.0358 20.5004 38.4385C20.5004 32.314 25.4805 27.334 31.6047 27.334ZM20.5005 20.8766C20.5005 21.6112 20.0051 22.2091 19.3901 22.2091C18.7751 22.2091 18.2797 21.6112 18.2797 20.8766C18.2797 20.1335 18.7751 19.5356 19.3901 19.5356C20.0051 19.5356 20.5005 20.1335 20.5005 20.8766ZM18.6299 13.7785C19.0399 14.0177 19.1765 14.5387 18.9459 14.9488L14.9995 21.7822C14.8372 22.0556 14.5554 22.2093 14.2564 22.2093C14.1112 22.2093 13.966 22.1752 13.8293 22.0983C13.4193 21.8591 13.2826 21.3381 13.5132 20.9281L17.4596 14.0946C17.6988 13.6846 18.2198 13.5479 18.6299 13.7785ZM13.069 13.6675C13.684 13.6675 14.1795 14.2654 14.1795 15C14.1795 15.7432 13.684 16.3326 13.069 16.3326C12.454 16.3326 11.9586 15.7432 11.9586 15C11.9586 14.2654 12.454 13.6675 13.069 13.6675ZM9.396 27.3345C8.9262 27.3345 8.54182 26.9501 8.54182 26.4803C8.54182 26.0105 8.9262 25.6261 9.396 25.6261H23.063C23.5328 25.6261 23.9172 26.0105 23.9172 26.4803C23.9172 26.9501 23.5328 27.3345 23.063 27.3345H9.396Z" fill="#234683"/>
<path d="M4.27035 1.70837C5.67975 1.70837 6.83291 2.86154 6.83291 4.27093V6.83349C6.83291 7.3033 7.2173 7.68768 7.6871 7.68768H35.0211C35.4909 7.68768 35.8753 7.3033 35.8753 6.83349V4.27093C35.8753 1.91338 33.9619 0 31.6043 0H4.27035C3.80055 0 3.41617 0.384381 3.41617 0.854187C3.41617 1.32399 3.80055 1.70837 4.27035 1.70837Z" fill="#234683"/>
<path d="M38.2663 31.8696C36.5665 30.0758 34.1321 29.0422 31.6034 29.0422C26.4185 29.0422 22.2071 33.2534 22.2071 38.4386C22.2071 40.9499 23.1808 43.3074 24.9575 45.084C26.7343 46.8606 29.0918 47.8345 31.603 47.8345C36.7879 47.8345 40.9993 43.6233 40.9993 38.4381C40.9993 35.9012 40.017 33.5607 38.2659 31.8692L38.2663 31.8696ZM30.9633 37.584H32.2446C33.7736 37.584 35.0207 38.8311 35.0207 40.3601C35.0207 41.8208 33.8846 42.9996 32.4581 43.1106V43.5633C32.4581 44.0331 32.0737 44.4175 31.6039 44.4175C31.1341 44.4175 30.7497 44.0331 30.7497 43.5633V43.1362H29.0413C28.5715 43.1362 28.1872 42.7518 28.1872 42.282C28.1872 41.8122 28.5715 41.4278 29.0413 41.4278H32.2446C32.8339 41.4278 33.3123 40.9495 33.3123 40.3601C33.3123 39.7708 32.8339 39.2924 32.2446 39.2924H30.9633C29.4342 39.2924 28.1872 38.0453 28.1872 36.5163C28.1872 35.0556 29.3232 33.8769 30.7497 33.7659V33.3131C30.7497 32.8433 31.1341 32.459 31.6039 32.459C32.0737 32.459 32.4581 32.8433 32.4581 33.3131V33.7402H34.1665C34.6363 33.7402 35.0207 34.1246 35.0207 34.5944C35.0207 35.0642 34.6363 35.4486 34.1665 35.4486H30.9633C30.3739 35.4486 29.8955 35.927 29.8955 36.5163C29.8955 37.1057 30.3739 37.584 30.9633 37.584Z" fill="#234683"/>
</svg>
