<svg width="56" height="55" viewBox="0 0 56 55" fill="none" xmlns="http://www.w3.org/2000/svg">
<path d="M28.193 20.8371C27.0842 21.2805 26.9754 21.2161 26.851 21.0438C26.6373 20.7467 26.7897 20.3794 27.2692 20.0361C27.5545 19.832 28.2509 19.4009 28.5558 19.8229L30.1428 18.6844C29.5467 17.8568 28.4301 17.3932 27.0946 17.9173L26.4731 17.0512L24.8836 18.1864L25.4881 19.029C24.5526 20.092 24.6653 21.3475 25.2627 22.1803C26.3428 23.6802 27.9565 23.0333 28.9206 22.6471C30.1147 22.1693 30.2854 22.2245 30.4984 22.5216C30.6346 22.7102 30.6183 22.8058 30.6131 22.8415C30.5994 22.9228 30.5076 23.2225 29.8828 23.6698C29.7063 23.7966 29.1043 24.1769 28.791 23.742L27.2047 24.8817C27.6855 25.5481 28.4021 25.8901 29.178 25.8901C29.533 25.8901 29.8991 25.8095 30.262 25.6645L30.8027 26.4174L32.3916 25.2809L31.8391 24.5124C32.217 24.084 32.4639 23.6328 32.5421 23.1575C32.6417 22.5496 32.4841 21.9359 32.086 21.3832C30.9089 19.75 29.2092 20.4314 28.193 20.8371Z" fill="#234683"/>
<path d="M49.9378 30.8046L37.2579 36.3003L41.7549 38.2202C38.1354 44.071 31.3082 47.8373 24.337 47.4934C14.5053 47.3256 5.70218 39.1136 4.72435 29.1877C3.34718 19.0225 10.3738 8.53359 20.4276 5.67876L20.2166 3.63988C12.9463 5.04746 6.7191 9.70841 3.112 16.444C-0.608449 23.3915 -1.01235 31.4378 2.00453 38.5187C5.05659 45.9005 11.2767 51.4743 19.0726 53.8155C27.047 56.21 35.5368 54.9383 42.3653 50.3255C45.6141 48.1409 48.403 45.253 50.5091 41.9593L54.7104 43.7531L49.9378 30.8046Z" fill="#234683"/>
<path d="M55.8315 10.7532C55.5397 10.3436 54.9703 10.248 54.5599 10.538C53.4772 11.3052 50.5404 13.3733 49.9547 13.727C49.3241 14.0924 44.0233 15.5871 37.3498 17.2821C36.3029 17.5486 34.9238 17.6507 34.3029 16.6254C34.0261 16.1696 33.944 15.6326 34.0717 15.1144C34.1961 14.6093 34.5055 14.1808 34.944 13.9045L36.7159 13.0567L42.9015 10.3235C43.362 10.12 43.5699 9.58228 43.366 9.12263C43.162 8.66297 42.6246 8.45622 42.1627 8.65907L40.6487 9.32807L36.8664 4.06833L31.159 8.15585C32.1017 5.07672 33.0619 3.22573 33.7355 3.04564C35.1016 2.68025 46.5431 2.11202 53.9 1.81945C54.4029 1.7993 54.795 1.37605 54.7749 0.873477C54.7547 0.370908 54.3508 -0.0126821 53.827 0.000320981C51.9345 0.0750886 35.2651 0.751248 33.2645 1.28632C31.2887 1.81555 29.7942 5.81269 28.7688 9.86835L8.72427 24.225L19.9045 39.7689L48.046 19.6122L46.0649 16.8569C48.4154 16.1969 50.3964 15.5884 50.8987 15.2848C51.6616 14.8238 55.455 12.1361 55.6159 12.0223C56.0263 11.731 56.1234 11.1628 55.8315 10.7532ZM33.0144 26.325C30.4724 28.7137 26.4712 28.5928 24.0797 26.0546C21.6856 23.5157 21.8081 19.5238 24.3481 17.1351C26.8927 14.7471 30.8919 14.868 33.2873 17.4056C35.6782 19.9438 35.557 23.937 33.0144 26.325Z" fill="#234683"/>
</svg>
