<svg width="125" height="125" viewBox="0 0 125 125" fill="none" xmlns="http://www.w3.org/2000/svg">
<mask id="path-1-inside-1_0_557" fill="white">
<path d="M13.4358 24.3216C22.3282 12.9964 34.8723 5.10496 48.9309 1.99177C62.9894 -1.12141 77.6925 0.736317 90.5348 7.24843C103.377 13.7605 113.564 24.5241 119.36 37.7052C125.156 50.8862 126.203 65.6692 122.321 79.5352C118.44 93.4013 109.87 105.492 98.0733 113.749C86.2763 122.005 71.9815 125.915 57.6246 124.813C43.2677 123.711 29.7371 117.666 19.338 107.706C8.93902 97.7464 2.31508 84.4891 0.594865 70.1931L5.82538 69.5638C7.39999 82.6496 13.4632 94.7847 22.982 103.901C32.5008 113.018 44.8861 118.552 58.0278 119.56C71.1694 120.569 84.2541 116.99 95.0526 109.432C105.851 101.875 113.695 90.8074 117.248 78.1151C120.801 65.4227 119.843 51.8911 114.538 39.8258C109.232 27.7605 99.9075 17.908 88.1522 11.9471C76.3969 5.98623 62.9384 4.28575 50.0699 7.13542C37.2014 9.98508 25.7191 17.2086 17.5794 27.5751L13.4358 24.3216Z"/>
</mask>
<path d="M13.4358 24.3216C22.3282 12.9964 34.8723 5.10496 48.9309 1.99177C62.9894 -1.12141 77.6925 0.736317 90.5348 7.24843C103.377 13.7605 113.564 24.5241 119.36 37.7052C125.156 50.8862 126.203 65.6692 122.321 79.5352C118.44 93.4013 109.87 105.492 98.0733 113.749C86.2763 122.005 71.9815 125.915 57.6246 124.813C43.2677 123.711 29.7371 117.666 19.338 107.706C8.93902 97.7464 2.31508 84.4891 0.594865 70.1931L5.82538 69.5638C7.39999 82.6496 13.4632 94.7847 22.982 103.901C32.5008 113.018 44.8861 118.552 58.0278 119.56C71.1694 120.569 84.2541 116.99 95.0526 109.432C105.851 101.875 113.695 90.8074 117.248 78.1151C120.801 65.4227 119.843 51.8911 114.538 39.8258C109.232 27.7605 99.9075 17.908 88.1522 11.9471C76.3969 5.98623 62.9384 4.28575 50.0699 7.13542C37.2014 9.98508 25.7191 17.2086 17.5794 27.5751L13.4358 24.3216Z" stroke="#FFC24F" stroke-width="8" mask="url(#path-1-inside-1_0_557)"/>
</svg>
